<?xml version="1.0" encoding="utf-8"?>
<!-- Generator: Adobe Illustrator 27.3.1, SVG Export Plug-In . SVG Version: 6.00 Build 0)  -->
<svg version="1.1" id="_圖層_1" xmlns="http://www.w3.org/2000/svg" xmlns:xlink="http://www.w3.org/1999/xlink" x="0px" y="0px"
	 viewBox="0 0 1205.9 158.4" style="enable-background:new 0 0 1205.9 158.4;" xml:space="preserve">
<style type="text/css">
	.st0{fill:#231815;stroke:#231815;stroke-miterlimit:10;}
	.st1{fill:#231815;}
	.st2{fill:#FFFFFF;}
</style>
<path class="st0" d="M97.1,115.9c2.6,4.9,2.8,9.9,1.2,15.1c-1.6,5.1-4.2,9.5-8.4,12.8c-2.7,2.1-5.5,3.1-9,3.4
	c-2.4,0.2-4.5-0.8-6.6-1.7c-2-0.9-3.4-2.3-4.3-4.3c-1.6-3.5-2-7-1.3-10.8c1-5.8,2.9-11.2,5.9-16.2c1.9-3.2,4.5-5.9,7.4-8.2
	c2.3-1.9,2.4-1.9,4.9-0.4C91,108.4,94.7,111.4,97.1,115.9z"/>
<path class="st0" d="M115.6,56.8c0.1,4.8-1.6,9.1-3.2,13.5c-1.2,3.2-3.2,5.9-5.2,8.5c-1.3,1.7-3.1,3-4.8,4.4
	c-0.4,0.3-1.6,0.2-2.1-0.1c-3-2.2-6.2-4.3-7.9-8c-1.8-4.1-2-8.3-0.8-12.5c0.9-3,2.1-6,3.6-8.8c2.5-4.7,6.5-7.4,12.1-7.4
	c4.3,0,7.9,3.9,8.2,8.2C115.6,55.3,115.6,56,115.6,56.8z"/>
<path class="st0" d="M157.9,79.2c0,21.8-8.8,41.4-23,55.7c-6.3,6.3-13.6,11.5-21.6,15.3c2.1-1.3,4-2.8,5.8-4.5
	c2.6-2.5,5.1-5.2,7.1-8.1c4.8-6.9,6.8-14.6,6.6-23c-0.1-4.4-1.3-8.5-4.1-12c-3.5-4.4-7.9-7.7-12.6-10.6c-0.5-0.3-1.1-0.7-1.9-1.3
	c1-0.5,1.5-0.8,2.1-1.1c4.5-1.7,8.7-4.1,12.7-6.8c8.3-5.7,13.3-13.3,14.7-23.3c1.1-8-1.6-14.4-8-19.2c-4.3-3.2-9.3-4.7-14.6-5.4
	c-5.3-0.7-10.7-1-16.2-0.6c-7.2,0.6-14.2,1.5-21,4.3c-6.9,2.9-12.8,6.9-17.3,12.9c-2.9,3.8-5.1,7.9-6.3,12.4c-0.7,2.6-1.1,5.3-1.4,8
	c-0.5,3.7,0.1,7.3,1.6,10.7c2.5,5.5,6.9,9.4,11.8,12.8c0.4,0.2,0.8,0.5,1.4,0.9c-0.6,0.3-0.9,0.5-1.3,0.7c-4.4,1.4-8.5,3.2-12.5,5.5
	c-4.5,2.6-8.7,5.7-12,9.6c-4.9,5.9-7.7,12.8-8.3,20.5c-0.2,2.5-0.3,5.2,0.3,7.6c0.8,3.3,2.2,6.3,4.6,9c0.5,0.5,0.9,1,1.4,1.5
	c-8.4-3.9-16-9.2-22.4-15.7c-14.2-14.2-23-33.9-23-55.7s8.8-41.4,23-55.7c14.2-14.2,33.9-23,55.7-23
	C122.7,0.5,157.9,35.7,157.9,79.2z"/>
<g>
	<g>
		<path class="st1" d="M231.3,108.7h-27.2c4.5,15.7,13.3,27.6,28.9,32.8c-2.2,2-5.2,6.1-6.6,8.7c-14.6-5.7-23.2-16.2-28.7-30.8
			c-4.2,12.4-12.4,23.6-28.9,30.9c-1.4-2.6-4.1-5.9-6.7-8c18.5-7.5,25.6-19.8,28.3-33.7h-26.8v-9.4h28.1c0.5-6.8,0.5-13.7,0.5-20.5
			l12.1,0.8c-0.2,0.8-0.8,1.4-2.1,1.6c-0.1,5.8-0.2,12-0.7,18.1h29.9v9.5H231.3z"/>
		<path class="st1" d="M268.9,136.6c-0.3,0.3-0.8,0.5-1.6,0.5c-5.2,4.3-14.7,10-22.4,13.3c-1.5-2-4.4-5.2-6.5-7.1
			c7.7-3,17.1-8.6,21.9-13L268.9,136.6z M307.9,121.8v8.6h-69.3v-8.6h12.1V83.1l7.4,1.6c12.7-1.4,25.9-3.5,34.3-6.1l8,7.7
			c-0.4,0.3-0.7,0.3-2.2,0.3c-10,2.6-24.6,4.8-38.1,6v6.1h44.1v8.5h-11.8v14.6C292.4,121.8,307.9,121.8,307.9,121.8z M260.1,107.2
			v14.6h23v-14.6H260.1z M300.6,150.5c-4.9-3.8-15.2-9.8-22.6-13.7l7.1-6.1c7.1,3.5,17.7,9.1,23.1,12.9L300.6,150.5z"/>
		<path class="st1" d="M317.9,99.7c4.9,1.7,11.5,4.6,14.8,7.1l-5.1,7.7c-3-2.6-9.4-6-14.4-7.9L317.9,99.7z M315.3,143.5
			c3.8-5.8,9.3-15.2,13.5-24c6.6,5.6,6.7,5.7,6.8,5.8c-3.6,8-8,16.2-11.5,22.1c0.4,0.5,0.5,1,0.5,1.4s-0.2,0.9-0.5,1.3L315.3,143.5z
			 M322.5,79.1c4.9,1.9,11.4,5.2,14.6,7.8l-5.3,7.4c-3-2.7-9.3-6.4-14.3-8.5L322.5,79.1z M384.6,109.3v8.7h-28.5l3.4,1.1
			c-0.3,0.6-1.1,1.1-2.3,1.1c-1.8,5.2-4.5,11.7-7.3,17.2c5.9-0.3,12.3-0.7,18.7-1.1c-2-3-4.1-6.1-6.2-8.7l7.9-4.2
			c5.7,6.7,11.9,15.7,14.3,22.1l-8.6,4.8c-0.6-1.8-1.5-3.9-2.7-6c-12.6,1.1-25.5,2-34.1,2.7c-0.2,0.7-0.8,1.1-1.4,1.2l-3.3-10.2
			l5.5-0.2c2.7-5.8,5.6-13.4,7.5-19.9h-13.1v-8.7h19.9V98.4h-16.1v-8.6h16.1v-11l11.7,0.7c-0.1,0.8-0.8,1.7-2.3,1.9v8.3h16.8v8.6
			h-16.8v10.9L384.6,109.3L384.6,109.3z"/>
		<path class="st1" d="M444.3,107.8c0.5,4.6,1,9,1.6,13.1c2-3.7,3.7-7.6,5.1-11.7l9.9,3c-0.2,0.7-0.9,1.1-2,1
			c-2.7,7.1-6.2,13.7-10.5,19.5c1.4,5.5,3.1,8.8,4.9,8.8c1.3,0,2.1-3.9,2.4-12.4c1.7,2.1,4.5,4.4,6.7,5.5
			c-1.4,12.5-3.9,15.7-9.9,15.7c-4.5,0-7.7-3.4-10.4-10c-3.7,3.8-7.8,7.1-12.3,9.7c-1.2-1.8-3.9-5.2-5.6-6.7c2-1.1,3.9-2.3,5.7-3.6
			h-15.7v10.8h-8.7v-10.8h-16.3v-8h16.3v-3.8h-13.3v-27.8H428v27.8h-13.8v3.8H430v7.9c3.3-2.4,6.4-5.3,9.2-8.5
			c-1.5-6.4-2.6-14.1-3.3-22.1l-6.1,0.8l-1-8.5l6.4-0.8c-0.5-7.2-0.6-14.5-0.7-21.5l11.1,0.7c0,0.8-0.7,1.2-2.1,1.4
			c-0.2,6.1,0,12.3,0.4,18.4l16.4-2l0.9,8.3L444.3,107.8z M408.3,80.8v16.4h-17.1V80.8H408.3z M401.6,91.5v-5h-4v5H401.6z
			 M399.4,106.8v4h6.3v-4H399.4z M399.4,117.1v4.1h6.3v-4.1H399.4z M428.4,80.8v16.4h-17.3V80.8H428.4z M419.9,110.8v-4h-6.5v4
			H419.9z M419.9,121.2v-4.1h-6.5v4.1H419.9z M421.7,91.5v-5h-4.1v5H421.7z M452.5,79.9c3,3.9,6.4,9.3,7.6,12.8l-7.3,4
			c-1.2-3.6-4.3-9.2-7.2-13.3L452.5,79.9z"/>
		<path class="st1" d="M528.7,85.9L535,89c-0.2,0.5-0.8,0.8-1.1,1.1c-2.8,7.2-7,13.7-12.1,19.2c4.7,3.6,10.2,6.5,16.3,8.5
			c-1.9,1.7-4.5,5.4-5.8,7.7l-0.3-0.2v25.1h-9V148h-15.7v2.4h-8.5v-24.7l-1.4,0.6c-0.8-1.4-1.9-3.2-3.2-4.7v13.8h-19.8v6.3h-6.7
			V83.3h26.5v14.9c5.3-4.9,10.2-12.2,13-19.5L517,82c-0.2,0.5-1,0.9-2,0.8c-0.5,1.1-1.1,2.4-1.7,3.5h13.9L528.7,85.9z M478.1,91.1
			h-3.6v13.7h3.6V91.1z M474.4,112.3v15.3h3.6v-15.3H474.4z M487.4,104.8V91.1h-3.7v13.7C483.7,104.8,487.4,104.8,487.4,104.8z
			 M483.7,127.6h3.7v-15.3h-3.7V127.6z M494.2,118.3c5.3-2.3,10.5-5.4,15.1-9.3c-2.3-2.6-4.3-5.3-6-8c-1.8,2-3.6,3.9-5.5,5.5
			c-0.8-1-2.2-2.4-3.6-3.7V118.3z M525.5,122.2c-3.6-2-7-4.5-10-7.1c-3.2,2.7-6.5,5-10.1,7.1H525.5z M507.3,140H523v-9.8h-15.7V140z
			 M508.3,94.5c1.8,3,4.1,6.1,6.9,8.9c2.8-3,5.2-6.2,7.1-9.6h-13.6L508.3,94.5z"/>
		<path class="st1" d="M549.4,150.6c1.9-5.8,3.6-13.4,4.6-19.4l12.3-0.9c-2.3,6.8-5.5,14.6-8.7,19.6L549.4,150.6z"/>
		<path class="st1" d="M649.5,109v8.7H634v32.7h-9.4v-32.7h-18.9c-0.8,12.4-4.6,24.9-19.6,33.2c-1.4-2.1-4.6-5.5-6.7-7.1
			c12.8-6.7,16.2-16.5,17.1-26.2h-16.9V109h17.1V95.3c-4.2,1.2-8.6,2.4-12.9,3.3c-0.5-2.2-1.9-5.5-3.1-7.5
			c11.9-2.7,24.6-7.1,32.7-11.9l6.8,8c-0.3,0.3-0.5,0.3-2,0.3c-3.1,1.6-6.7,3.1-10.8,4.5c-0.3,0.3-0.8,0.5-1.6,0.7V109h18.7V80
			l11.5,0.7c-0.1,0.7-0.7,1.2-2.1,1.4V109H649.5z"/>
		<path class="st1" d="M720.5,103l5.5,2.4c-0.2,0.5-0.6,1-1,1.3c-2.3,11.1-6.3,20.6-11.6,28.1c3.7,3.6,8.1,6.4,13.5,8.3
			c-1.8,1.6-4.4,5.1-5.6,7.4c-5.3-2.2-9.7-5.2-13.4-8.9c-3.4,3.5-7.3,6.4-11.4,8.6c-1.2-2-4.2-5.3-6.1-6.7c4.5-2.2,8.5-5.2,12.1-8.8
			c-2.8-4.3-5.1-9.3-6.8-14.7c-1.7,12.6-4.8,23.1-10.5,30.4c-1.4-1.5-4.7-4.2-6.8-5.4c1.7-2.1,3.3-4.6,4.5-7.5l-4.6,1.7
			c-0.7-3.6-2.4-9.2-4.1-13.4l6.8-2.2c1.3,3,2.5,6.7,3.4,9.8c3.6-10.8,4.5-25.5,4.6-41.7h-6l0.2,0.1c-0.3,0.5-1.1,0.8-2.1,0.8
			c-3.5,5.8-8.8,13.4-13.7,19.5l7.9-0.1c-0.9-2-1.8-3.9-2.8-5.6l6.5-2.7c3,5,6,11.5,7,15.9l-7.1,3.1c-0.2-1.1-0.5-2.4-1-3.6
			l-3.9,0.2v31.2h-8V126c-0.4,0.4-0.8,0.5-1.5,0.5c-0.8,6.2-2.3,13.5-4.4,18.1c-1.6-1.1-4.6-2.4-6.4-3.2c1.9-4.2,3.1-11.4,3.7-17.8
			l8.6,2v-5.9c-3.3,0.2-6.3,0.3-8.7,0.5c-0.2,0.8-0.8,1.1-1.4,1.1l-1.8-9.1h5.2c1.3-1.6,2.6-3.3,3.8-5.1c-2.2-3.3-5.8-7.3-8.9-10.3
			l4.3-6.2l1.7,1.5c2.2-4.2,4.4-9.3,5.7-13.2l8.9,3.6c-0.2,0.5-1,0.8-2,0.8c-1.8,4.1-4.9,9.7-7.5,13.8c0.9,1,1.8,2,2.5,3
			c2.7-4.2,5.1-8.6,6.9-12.3l8.2,3.7v-8.3h26.4l1.8-0.2l4.5,0.9c-0.1,0.5-0.2,1.2-0.4,1.7c-0.8,4.5-2,11.1-3.3,17.6h7.2L720.5,103z
			 M701.5,113c1.5-6.6,3.1-14.8,4.2-21.4h-8.3c0,1.6,0,3.3-0.1,4.9c1.8,12.4,5,23.2,10.5,31.6c3.2-4.7,5.7-10.2,7.5-16.6h-5.2
			l-0.5,2.5L701.5,113z"/>
		<path class="st1" d="M757.5,82c-0.2,0.7-1,1.1-2.1,1c-2,5.8-4.3,11.6-6.9,17.1l2.9,0.7c-0.2,0.8-0.8,1.3-2,1.4v48.1h-9V115
			c-1.7,2.6-3.4,5-5.2,7.1c-1.2-2-3.9-6.1-5.5-8c6.8-7.9,13.4-21.9,17.4-35.3L757.5,82z M802,92.7c0,0.4-1,9.3-3.3,18.6l-5.6-1
			c4.3,8,8,18.4,9.4,25.5l-8.7,3.2c-1.1-7.1-4.8-17.9-8.9-25.9l7.9-2.8L791,110c0.4-2.4,0.8-5.6,1.2-8.9h-9.3v39.3
			c0,7-1.5,10.2-14.7,10.2c-0.5-2.7-1.8-6.7-3.1-9.2c3.2,0.1,6.4,0.1,7.5,0.1c1,0,1.3-0.3,1.3-1.3v-39.1h-8.1
			c-2.4,5.3-5.2,10.1-8.2,13.9c-1.6-1.7-4.9-4.4-6.9-5.8c5.6-6.7,10.2-18.5,12.7-30L774,82c-0.2,0.6-0.9,1.1-2,1
			c-0.8,3.3-1.8,6.5-3,9.7h28L802,92.7z M771.6,113.5c-0.2,0.6-0.9,1-1.9,1c-2.3,8.9-6.1,18.7-10.6,24.8c-1.7-1.4-5.1-3.4-7.1-4.5
			c4.2-5.5,7.7-15,9.6-23.9L771.6,113.5z"/>
		<path class="st1" d="M870.3,91.9l4.8,0.3c0,0.7-0.1,2-0.2,2.9c-0.9,34.9-1.7,47-4.7,50.9c-2.4,3.4-5.1,4.4-12.5,4.4
			c-1.8,0-3.9-0.1-5.8-0.1c-0.2-2.5-1.3-6.3-2.8-8.7c4.4,0.3,8.4,0.4,10.3,0.4c1.4,0,2.2-0.4,3-1.4c2-2.4,3-13.3,3.7-40.2h-15.3
			c-1.4,3.9-2.9,7.4-4.7,10.7l6.8-2.9c3.6,5.5,7.4,12.6,8.5,17.6l-8.3,3.6c-1-4.5-4.1-11.6-7.5-17.2c-0.9,1.5-1.8,2.9-2.7,4.2
			c-1.2-1.4-3.6-3.7-5.5-5.2v27.2H818v5.4h-8.3V91.6h7.8c1.1-3.9,2.3-9,2.8-12.8l11.1,2.4c-0.3,0.7-0.9,1-2,1.1
			c-0.8,2.8-2.1,6.4-3.4,9.4h11.4v16.8c4.6-7.1,8-18.5,9.7-29.6l10.8,2.4c-0.2,0.6-0.9,1.1-2,1.1c-0.7,3.2-1.4,6.4-2.3,9.6h14.8
			L870.3,91.9z M828.7,110.7v-11H818v11H828.7z M818,130.3h10.8v-11.6H818V130.3z"/>
		<path class="st1" d="M940.2,114.4h-17.9v8.8h21.4v8h-21.4v9.2h28.3v8.1h-65.1v-8.1h27.3v-9.2h-21.2v-8h21.2v-8.8h-17.3v-6.1
			c-2.7,1.9-5.6,3.7-8.5,5.3c-1.2-2.1-3.7-5.5-5.7-7.3c13.1-6.7,25.7-18.6,31.3-28.1l12.1,0.7c-0.2,0.8-0.9,1.4-2,1.5
			c7.4,9.9,20.3,19.8,31.8,24.7c-2.4,2.3-4.4,5.5-6.1,8.2c-2.7-1.5-5.5-3.3-8.3-5.1v6.2H940.2z M937.5,106.4c-8-5.8-15.5-12.7-20-19
			c-4.2,6.1-11.2,13-19.3,19H937.5z"/>
		<path class="st1" d="M1028.9,112.2h-6.4c2.4,3.6,5.2,6.5,8.5,8.5c-1.9,1.6-4.6,4.8-5.8,7.1c-0.8-0.6-1.6-1.2-2.4-1.9
			c-1.3,22.8-2.3,24.2-13,24.2c-1.1,0-2.1,0-3.3-0.1c-0.2-2.2-1-5.5-2-7.4c2.4,0.2,4.5,0.2,5.5,0.2s1.6-0.1,2.1-0.8
			c0.8-1.1,1.4-4.2,2-12.1h-7.3c-2,8.9-6.4,16-17.4,20.7c-0.9-2.1-3.3-5.3-5.1-6.9c8.2-3.1,12.1-7.7,14-13.8h-8V125
			c-1.3,1.1-2.7,2.1-4.1,3.1c-0.6-1.2-1.9-3.1-3-4.6v17.2c0,8.1-3,9.4-12.4,9.4c-0.2-2.2-1.2-6.1-2.3-8.4c2.4,0.2,4.7,0.2,5.5,0.2
			s1.1-0.3,1.1-1.3V125H969c-0.6,8.9-1.9,18.2-4.6,25.2c-1.5-1.3-5-3.2-7-3.9c4.1-10.5,4.4-25.9,4.4-37.1V81.5h21.5v38.8
			c3-2.2,5.5-4.9,7.5-8h-5.9v-7.4h9.8c0.8-1.8,1.4-3.7,2-5.7h-10.3v-7.4h12.1c0.8-4.1,1.4-8.4,1.9-13l9.8,1.3
			c-0.2,0.7-0.8,1.1-1.8,1.2c-0.5,3.6-1,7.2-1.6,10.5h6l-0.7-0.3c1.7-3.3,3.8-8.3,4.8-12l9.7,3.3c-0.3,0.6-1,0.8-2,0.8
			c-1.1,2.4-2.8,5.5-4.5,8.1h7.7v7.4h-11.1c0.5,2,1.2,3.9,2,5.7h10.2L1028.9,112.2L1028.9,112.2z M969.4,107.1c0,4.8,0,6.8-0.1,9.5
			h5.9v-9.5H969.4z M975.3,89.7h-5.8v9.2h5.8V89.7z M993.4,79.8c1.8,2.8,3.3,6.6,4,9.1l-7.1,2.7c-0.5-2.6-2-6.5-3.6-9.4L993.4,79.8z
			 M1018.3,122.5l1.3,0.2c-2.4-3-4.5-6.4-6.1-10.4h-13.3c-2,3.9-4.4,7.4-7.2,10.4h6.8c0.2-2.2,0.4-4.5,0.5-7.1l9.9,0.9
			c-0.1,0.6-0.7,1.1-1.8,1.3l-0.5,4.9h8.5L1018.3,122.5z M1010.7,104.9c-0.5-1.8-1.1-3.7-1.5-5.7h-4.2c-0.5,2-1.1,3.9-1.7,5.7
			H1010.7z"/>
		<path class="st1" d="M1051.8,127.7c-1.8,7.4-4.7,14.7-10.7,19.3l-7.5-5.2c5.3-3.8,8.5-9.9,10-16.7L1051.8,127.7z M1072.5,132.6
			c-2.7-3.3-8.6-7.7-14-10.3l4.2-4h-19.2V82h52.1v36.2h-27.3c4.2,2.3,8.5,5.3,10.8,8L1072.5,132.6z M1052.1,89.9v6.4h12.7v-6.4
			H1052.1z M1052.1,103.7v6.7h12.7v-6.7H1052.1z M1062.9,138.5c0,2.3,0.5,2.5,3.5,2.5h8.5c2.7,0,3.1-1.1,3.4-8.7
			c1.8,1.4,5.6,2.8,8,3.3c-0.9,10.8-3.3,13.5-10.5,13.5h-10.5c-9.1,0-11.3-2.6-11.3-10.5v-12.2l11,0.6c-0.1,0.7-0.6,1.2-2,1.4
			L1062.9,138.5L1062.9,138.5z M1086.6,96.4V90h-13v6.4H1086.6z M1086.6,110.4v-6.7h-13v6.7H1086.6z M1096.5,146.3
			c-2.1-5.2-7.7-12.7-12.9-18.3l8.1-4.6c5.2,5.2,11.1,12.4,13.6,17.7L1096.5,146.3z"/>
		<path class="st1" d="M1181.3,138.8v8h-29.7v3.5h-8.3v-40.4c-0.8,1.1-1.7,2.3-2.6,3.3c-0.8-1.1-2.2-2.7-3.6-4.1h-0.1
			c1.8,3.7,3.4,7.6,4,10.5l-7.1,3.1c-0.2-1.1-0.5-2.4-1-3.8l-4,0.3v31.1h-8v-24.5c-0.4,0.5-1,0.7-1.6,0.6
			c-0.8,6.2-2.3,13.5-4.4,18.1c-1.7-1.1-4.5-2.4-6.4-3.2c1.9-4.2,3-11.4,3.7-17.8l8.6,2v-5.9c-3.4,0.2-6.4,0.4-8.9,0.5
			c-0.2,0.8-0.8,1.1-1.4,1.1l-1.8-9.1h5.5c1.2-1.5,2.5-3.2,3.7-4.9c-2.2-3.3-5.8-7.4-8.9-10.4l4.4-6.2l1.7,1.5
			c2.2-4.2,4.4-9.3,5.8-13.3l8.9,3.6c-0.3,0.5-1.1,0.8-2,0.8c-1.9,4.2-5,9.9-7.7,14c0.9,1.1,1.8,2.1,2.6,3.1c2.7-4.3,5.2-8.7,7-12.5
			l8.6,3.9c-0.4,0.5-1.1,0.8-2.1,0.8c-3.5,5.8-8.8,13.4-13.7,19.5l7.9-0.1c-0.8-2-1.9-4-2.9-5.8l6.5-2.7c0.5,0.9,1.1,1.9,1.6,2.9
			c5.8-7.3,10.8-18.8,13.2-27.6l10,2.8c-0.2,0.7-0.9,1.1-2,1c-1.2,3.5-2.7,7.4-4.5,11.5h7.7c2.1-4.2,4.4-9.9,5.6-14.1l10.3,2.9
			c-0.2,0.5-1,0.9-2.1,0.9c-1.2,3.1-3.1,6.9-4.9,10.3h11.4v8H1168v6.8h9.9v7.9h-9.9v7h10.1v7.9H1168v7.3h13.3V138.8z M1136.3,123.2
			c2,4.8,3.9,10.7,4.9,14.7c-2.3,0.8-4.5,1.6-7.3,2.6c-0.7-4-2.7-10.3-4.5-15L1136.3,123.2z M1159.9,108.8V102h-8.3v6.8H1159.9z
			 M1159.9,123.7v-7h-8.3v7H1159.9z M1151.6,131.6v7.3h8.3v-7.3H1151.6z"/>
	</g>
</g>
<path class="st0" d="M-375.9,0.5L-375.9,0.5c43.5,0,78.7,35.2,78.7,78.7l0,0c0,43.5-35.2,78.7-78.7,78.7l0,0
	c-43.5,0-78.7-35.2-78.7-78.7l0,0C-454.6,35.7-419.4,0.5-375.9,0.5z"/>
<g id="jMrFG7_00000122703673450524397900000018254207340950615468_">
	<g>
		<path class="st2" d="M-340.9,90.6c0.9,0.6,1.4,1,1.9,1.3c4.7,2.9,9.1,6.2,12.6,10.6c2.8,3.5,4,7.6,4.1,12c0.1,8.3-1.8,16.1-6.6,23
			c-2.1,2.9-4.5,5.6-7.1,8.1c-4.3,4.1-9.5,7-15,9.1c-6.1,2.3-12.4,3.7-19,4.1c-3.2,0.2-6.5,0.6-9.7,0.5c-6.9-0.2-13.7-0.7-20.2-3.1
			c-4.1-1.5-7.6-3.8-10.6-7.1c-2.4-2.6-3.8-5.7-4.6-9c-0.6-2.4-0.5-5.1-0.3-7.6c0.6-7.7,3.3-14.6,8.3-20.5c3.3-4,7.5-7.1,12.1-9.6
			c4-2.3,8.1-4.1,12.5-5.5c0.4-0.1,0.7-0.3,1.3-0.6c-0.6-0.4-1-0.6-1.4-0.9c-4.9-3.3-9.3-7.2-11.8-12.8c-1.5-3.4-2.1-7-1.6-10.7
			c0.3-2.7,0.7-5.4,1.4-8c1.2-4.6,3.4-8.6,6.3-12.4c4.5-6,10.5-10,17.3-12.9c6.7-2.8,13.8-3.8,21-4.3c5.4-0.4,10.8,0,16.2,0.6
			c5.2,0.7,10.3,2.1,14.6,5.3c6.4,4.8,9.1,11.2,8.1,19.2c-1.3,10-6.4,17.6-14.7,23.3c-4,2.7-8.2,5.1-12.7,6.8
			C-339.4,89.8-340,90.1-340.9,90.6z M-374.3,147.3c3.5-0.3,6.3-1.4,9-3.4c4.3-3.3,6.9-7.7,8.4-12.8c1.6-5.2,1.4-10.2-1.2-15.1
			c-2.4-4.5-6.1-7.6-10.3-10.2c-2.5-1.6-2.6-1.6-4.9,0.4c-2.9,2.4-5.5,5-7.4,8.2c-3,5-4.9,10.4-5.9,16.2c-0.7,3.8-0.3,7.3,1.3,10.8
			c0.9,2,2.3,3.4,4.3,4.3C-378.8,146.5-376.6,147.4-374.3,147.3z M-339.5,56.8c0-0.7,0-1.5,0-2.2c-0.2-4.3-3.8-8.2-8.2-8.2
			c-5.6,0-9.6,2.7-12.1,7.4c-1.5,2.8-2.7,5.8-3.6,8.8c-1.2,4.2-1.1,8.4,0.8,12.5c1.6,3.7,4.8,5.8,7.9,8c0.5,0.4,1.6,0.4,2.1,0.1
			c1.7-1.3,3.5-2.7,4.8-4.3c2-2.7,4-5.3,5.2-8.5C-341.1,65.9-339.4,61.6-339.5,56.8z"/>
	</g>
</g>
</svg>
