<?xml version="1.0" encoding="utf-8"?>
<!-- Generator: Adobe Illustrator 27.3.1, SVG Export Plug-In . SVG Version: 6.00 Build 0)  -->
<svg version="1.1" id="圖層_1" xmlns="http://www.w3.org/2000/svg" xmlns:xlink="http://www.w3.org/1999/xlink" x="0px" y="0px"
	 viewBox="0 0 1673 2054.5" style="enable-background:new 0 0 1673 2054.5;" xml:space="preserve">
<style type="text/css">
	.st0{fill:#D6B054;}
	.st1{fill:#231815;}
	.st2{stroke:#B49650;stroke-width:4.9547;stroke-linecap:round;stroke-linejoin:round;stroke-miterlimit:10;}
	.st3{enable-background:new    ;}
	.st4{fill:none;stroke:#B49650;stroke-width:4.9547;stroke-linecap:round;stroke-linejoin:round;stroke-miterlimit:10;}
</style>
<rect x="-631.3" y="602.4" class="st0" width="519.2" height="122"/>
<rect x="-605.6" y="602.4" width="467.8" height="122"/>
<g>
	<g>
		<g>
			<g>
				<g>
					<path d="M1554.9,1524c-1.5-1.2-2.8-2.1-2.1-3c-4.4-3.1-7.4-5.9-11-7c-5.4-2.8-10.2-4.7-14.8-5.9c-7.8-5.7-15.4,1.8-21,5.9
						c-7.5,0.2-14.8,6.2-21,2.4c-3.9-3.3,1.2-5.9,2.7-8.1c1.8-5.7,5.7-8,8.1-12.9c7.2-9,13.1-20.1,22.1-28c3.2-2.9,6.6-7.1,8.3-11
						c0-3.4-1.2-5.9-2.2-7.5c-0.5-7.9-8.4-8.3-12.1-11.3c-7,0.3-11.7-4.9-17.5-4.8c-5.8,3.3-12.3,4.4-18,5.4
						c-3.1-7.7-3.2-15.9-4-23.1c-2.8-2.2-1.4-5.4-3.2-6.7c-1-4-3.5-6.8-5.9-8.6c-4.1-1.4-8.4-1.8-10.8-2.7c-2.6,1.6-4.8-1.1-6.5,1.3
						c-2.5,2.2,2.7,3.8,4,6.7c0.4,1.4,2.3,3.6,1.3,6.2c2.1,13.4-6,25.5-11.8,37.4c-2.6,7.2-10.3,12.7-7.3,22.6
						c1.5,1.5-0.8,4.4,1.6,7c-0.4,4.9,3,10,4.6,15.6c1.4,4.1,7.7,1.9,12.1,3c5.3-2.2,6.2-8.4,11.8-10.2c2.6,3.7-0.4,10-1.6,15.1
						c-4,3.7-3.3,9.5-6.5,13.7c-2,5.4-6.8,9.9-11.3,13.7c-5.9-1.3-10,2-14.8,1.3c-3,0.6-5.7-0.2-7.5,0.5c-6-1.4-11.1,2.5-15.9,0.8
						c-2.8-2-0.6-4.3-0.3-5.7c1.5-3.3,3.4-6.7,4.6-9.7c-0.1-2.1,1.8-2.4,1.6-4c3.3-7.4,6.4-13,7.8-20.2c-0.6-12-11.9-17.7-19.6-22.3
						c-7.2-4.5,0.7-10.3,0.3-14.8l-2.2,1.3c-1.6,2.7-4.5,5.4-6.5,8.3c-3.3,1.3-6.8,0.6-9.4,0.5c-6.5,0.5-13.1-5.9-18.6-0.8
						c-5.4-0.7-9.9,1.7-13.4,4.8c-1,0.7-1,1.8,0,3.5c-1.3,2.6-4.9,0.2-6.2,2.1c-7.3,6.8-15.4,13.2-19.6,22.1
						c-4.2,3.9-7,10.3-11,14.3c0.1,3.1-1.5,6-3.5,8.6c-4.2,6.9-7.7,14.6-10.8,22.6c-4.6,2.3-3.1,8.2-7,11.6c-2.2-2.3-3.3-5.6-4.8-7
						c-0.2-5.6-3.9-9.4-4.3-13.2c-3.1-2-3-5.7-2.4-7.5c-2.3-3.5-3.3-7.1-4-9.4c-0.4-4.8-0.4-10.2,0.8-13.7
						c-6.6,0.2-5.3,7.3-9.1,10.8c0.4,4.2-5.3,7.8-3.2,13.7c-2.4,1.8-1.1,5.7-1.1,8.9c2.4,8.6,4,19.4,5.9,29.6
						c-0.7,2.4,2.4,5.4,0.8,8.3c-0.3,7-2.7,14.5-2.2,22.6c1.9,8.2-1.8,18.2,4.8,26.1c0.5,5.2,5.6,8.6,9.4,13.2
						c5.6,3.1,10.2,8.6,17.2,11.3c1,0.8,2.9-1.6,4-2.2c-0.2-0.9,0.1-1.9-0.3-1.3c-0.4-6.5-2.3-11.2-2.4-16.7c-3.8-2.4,0-5.9-3-7.3
						c-0.2-3.2-2.2-5.4,0.5-7l3.2,2.1c4.8,6.5,3.7,15.2,9.7,22.3c1.7,1.6,3.3,6.3,7.8,5.4c1.3,2.6,5.3,1.3,8.6,1.6
						c0.8-1.5-1-2.6,0.8-3c0.4-0.7,1-0.4,2.2,0.3c0.2-3.2,1.3-5.8,3.5-7.5c1.4-2.3,0.4-6.2,4-5.9c4.7,5.1,9,11.7,12.9,18.8
						c4.9,1.3,8,11.2,15.6,8.9c-0.6-1.1-0.3-1.5,0.3-1.3c-0.1-1.1,0.3,0,1.3,0.5c2-2.2,4.5-4.4,5.6-7c9.5-7.3,8.4-20.7,9.1-30.9
						c2.9-2.6,6.7-0.5,10,1.9c0.5,0,2.1,0.9,3.2-0.3c9.2-0.7,15-8.9,22.9-13.4c1.7-1.3,1.8-4.4,5.1-3.8c0.1,0.3,1.4,0.7,1.6,2.4
						c-2.2,9.2-3.7,19.4-7,29.6c-1,2.6-1.4,5.5-2.7,8.6c0.5,5-4.8,8.6-4.3,14.5c4.4,9.5,7.9,20.4,16.1,29.6c1.1,0.1,3.7-0.6,5.9-0.5
						c2.9-7.7,0-15.3,6.7-20.7c1.8-7.3,3.7-14.1,6.2-20.4c-0.9-6.6,2.3-11.2,2.4-16.7c0.4-3.5-1.6-8.1,2.7-9.7
						c4.7-2.1,10-3.6,15.3-5.7c1.7-0.1,3.1-1.3,5.1-2.1c3.1-1.5,8.1-3.6,11.6,0.8c-0.4,3.6-2.8,7.4-3,12.1
						c-5.9,2.3-0.8,8.9-6.2,11.6c-1.4,3.1-3.3,6.9-5.1,10.8c-5.7,4.6-16.1,4.8-16.4,13.7c1.7,5.1,3.4,11.8,3.5,19.1
						c1.4,2.9,5.8,2.5,9.4,4.6l1.1-1.1c1.8,2.5,3.7-2.3,5.6,2.1l0.5-0.5c2.2-1,4.2-2,7-1.1c1.4-0.3,2.9-0.2,5.1,0.3
						c2-2.3,5.8-1.9,8.6-0.3c3.1-0.3,7.2-0.2,10.5,1.9c4.2-0.7,8.9-3.9,11.3-7.5c0.3-3.6-0.6-7-1.3-8.9c-5.2-3.9-2.8-13.1-9.4-12.6
						c-5.1,0.4-10.3-0.3-14.3,1.6c-1.9-2-4.9-1.2-4.3-3.5c-0.1-2,0.6-3.8,2.7-4c2-6.2,7.3-8.9,11.8-13.2c2.7-5.9,8.8-5.9,12.9-9.7
						c1.5-0.7,0.8-3.4,3.5-2.7c1.2-6.6,9-5.8,10.5-12.1c5.8-4.3,5.7-11.4,7.8-17.2c-0.7-4,1.9-7.1-0.8-9.7
						c-4.7-3.1-7.1-7.2-11.6-8.1c-3.3,0.6-4.3-3.6-6.7-1.6c-5.8-2.1-10.1-1.9-15.1-1.3c-2.8,3.4-7.2-2-8.6,3
						c-3.1-0.8-2.4,2.4-4.3,2.7c-3.7,5.1-11,4.6-14,10c-4.3,0.5-7.2,3.6-10.8,4.8c-1.7-0.5-2.1,1.6-3.2,1.3
						c-5.3,4.3-12.1,6.5-17.5,9.4c-5.6-2.1-4.5-7.2-6.5-10.5c-4.5-8,4-12.1,5.6-17.4c0.1,0.1,0.6,0.2,1.4,0.5c2.9-4,7-7.6,9.1-11.6
						c1.5-0.5,4.1-1.6,6.5-0.8c0.7-3.5,3.3,0.8,4.6-1.3c1.8,2.8,5-1.7,8.6,0.3c3.4-1.7,7.8-4,12.1-1.9c4.7,1,9.3-2.1,15.1-1.6
						c3.4-2.3,7.7-1.5,11.8-2.7c4.7-1.1,10.6-2.7,16.4-2.7c2.7-2.5,7,0,10.5-1.1c0.4-2.4,2.7,0.8,4.6-0.8c1.9-0.5,6.9,1.4,9.7-1.1
						C1566.6,1547.8,1553.3,1532.6,1554.9,1524z M1319.5,1554.6c-3.3,3-6.9,5.4-6.5,10.5c-3,2.6-3.8,7.1-7.5,9.4
						c-1.4,4.2-5.4,7.7-5.4,13.2c-1.9,0.6-1.5,3.8-3.8,3.8c-3.1-3.6,1.4-6.8-0.8-9.4c0.4-4.1,0.4-8.5,1.9-12.1
						c0.5-9.7,6.3-17,8.3-25c3.9-4.1,5.1-9.7,6.7-14.3c0.5-2.1,3.6-2.9,3-4.8c5.5-5.2,5.2-13.4,10.2-17.5c3.4,4.7-0.2,12.9,2.2,18.8
						c-1.3,3,0.8,8.2,0.5,13.2C1325.1,1544.4,1320.7,1548.7,1319.5,1554.6z M1354,1586.3c-1.6,4.7-1.6,10.1-4.7,14.2
						c-1.8,2.3-4.4,3.8-7.2,4.4c-0.9-1.8-0.2-4,0.9-5.7s2.5-3.2,3.4-5c2.2-4.6,0.5-10.9,4.1-14.6c0.7-0.7,1.5-1.3,2-2.1
						c1.2-1.8-0.4-4.8,2.8-5.6c2.7-0.7,3.8,2.1,3.9,4.3c0.2,3.2-1.4,3.7-3.1,5.9C1355.1,1583.5,1354.5,1584.9,1354,1586.3z
						 M1372.2,1497.9c-2.3,3.1-0.1,7.8-1.9,12.1c0.1,3.4-1.1,7.3-1.9,11c1,0.7-1.4,1.8-0.5,3.8c-0.7,3.1-0.6,7.4-3.2,10
						c-3.2,1.6-5.8-1-8.1-0.8c-3.1-6.8,0.2-12.7,1.1-18.8c0.3-9.5-6.4-16.8-12.6-21.5c-3.1-0.8-4-0.8-4.8-2.4c0.2-3.7,2.8-5.7,5.9-7
						c2.5,0.2,4.1-2.5,7-2.7c-1-2,0.3-2.8,1.6-3.2c2.5-2.6,5.1,1.3,8.1,0.8c3-1.3,9.6-2.6,11.6,3.2
						C1373.7,1486.7,1373.7,1492.7,1372.2,1497.9z M1425.2,1565.4c-7.1,4.2-10,11.3-15.6,17.2c-2.5,2.3-3.7,5.8-7,7.5
						c-2.5,3.6-6,4.3-7.8,8.6c-3.4,2-7.7,3.2-9.7,7c-2.8-5.8,0.2-10.3,1.6-15.1c0.3-10.3,1.7-19.3,6.2-28c0.7-5.9,2.6-10.7,3.5-15.6
						c0.5-1.9,2.1-2.8,4.6-1.9c0.2,0.7,1.3,0.6,3,1.1c5.3-0.9,5.8,6.5,12.6,6.2c3,1.8,7.3,3.7,11,5.7
						C1427.7,1560.1,1424.3,1561.9,1425.2,1565.4z"/>
				</g>
				<g>
					<g>
						<path class="st1" d="M272.3,1392.6c-5.4,5.4-10.8-2.7-16.3-3.4c-3.4,0-6.8,1.4-8.8,4.1c-4.7,0-8.8,1.4-12.9,4.1
							c-6.1-2,1.4-4.7,0.7-8.1c8.8-5.4,14.9-14.9,14.2-25.1c-2-3.4,1.4-6.8-2-8.8c-5.4-2.7-8.8-6.8-14.2-8.1
							c-5.4-6.8-15.6-11.5-22.4-6.8c0,1.4,1.4,2,2,2.7c4.1,10.2,11.5,19.7,9.5,31.2c0,4.1-2.7,8.8-6.8,11.5
							c-4.7,0.7-7.5,6.1-11.5,7.5c2,2.7,6.8,0.7,9.5,2c4.1,2.7,8.1-2,12.2,0.7c0.7,1.4-0.7,2.7-2,3.4c-10.8,2-19.7,9.5-31.2,10.8
							c-8.8,5.4-19.7,4.8-28.5,10.2c-9.5,6.1-23.1,7.5-33.9,3.4c-1.4,0.7-2.7,0-4.1,1.4c2,6.1,6.8,12.2,12.9,14.2v-0.7
							c0.7,0,1.4-1.4,1.4,0c0.7,0.7,0,1.4,0,2.7c4.1,0,7.5,1.4,11.5,0.7c5.4,0.7,9.5-3.4,14.9-4.8c2-4.7,9.5-3.4,11.5-7.5
							c5.4-1.4,10.8-3.4,17-5.4c4.1-2.7,9.5-2,13.6-4.7c4.7,0,8.8-3.4,13.6-3.4c16.3-4.7,33.9-4.7,50.9-2.7
							c6.1-0.7,10.2-5.4,12.2-11.5C283.8,1396.7,277.7,1394,272.3,1392.6z"/>
						<path class="st1" d="M301.4,1435c4.7,2.7,2,10.2,6.8,12.2c3.4,1.4,6.1,6.1,9.5,2.7c8.8-4.8,12.9-13.6,19-20.3
							c4.1,0.7,5.4-6.8,8.8-3.4c1.4,4.1-1.4,7.5-2.7,10.8c2,6.1-5.4,9.5-4.1,14.9c-2.7,4.1-3.4,9.5-6.8,12.2
							c-3.4,8.8-11.5,14.9-19.7,19.7c0.7,1.4,0,2,0.7,2.7c4.1-0.7,10.2,2.7,12.9-2c6.1,0,10.2-3.4,12.9-8.1c6.1-2,7.5-9.5,12.2-14.2
							c1.4-4.1,4.1-7.5,5.4-11.5c0-4.1,4.1-4.7,7.5-4.1v-1.4h-2.7c-6.1-4.7,2.7-8.8,2-14.2c3.4-4.1,1.4-8.1,3.4-12.9
							c-0.7-4.7,4.7-7.5,8.1-9.5c10.8-4.1,24.4-4.1,35.3-1.4c4.1,4.7,9.5,2,14.2,4.7c2-2,6.8-2.7,7.5-6.1c1.4-6.1-2-10.9-6.1-13.6
							c-5.4-9.5-17.6-5.4-24.4-12.2c-4.1-5.4-12.9-4.7-18.3-9.5c-8.8-4.7,1.4-14.9-6.1-20.3l-4.1-2.7c-3.4-0.7-9.5-2-12.2,2
							c-9.5,0.7-1.4,8.8-3.4,13.6c0,4.1-2.7,6.1-0.7,10.2c-2.7,7.5-5.4,16.3-5.4,25.1c0,8.8-8.1,14.2-14.9,18.3
							c-4.7-0.7-4.7,6.8-10.2,4.7c-6.1-1.4-4.7-8.1-5.4-13.6c-1.4-2-1.4-4.7-4.1-4.7c-2-3.4-6.8-4.7-9.5-6.8c-2,0-3.4,0-4.7,1.4
							c1.4,1.4,0,4.1,1.4,6.1c-1.4,4.1,2,9.5-0.7,13.6C303.4,1423.5,298,1429.6,301.4,1435z"/>
						<path class="st1" d="M193,1475.4c4.7-5.4,12.2-2.7,17-6.8c13.6-5.4,27.8-7.5,40.7-14.9c0-3.4,2.7-6.1,3.4-8.8
							c-6.8-2-14.2-6.1-21.7-4.7c-6.1,2.7-10.9,8.1-17.6,8.1c-9.5,3.4-19.7,6.1-29.2,8.1c-3.4,4.1-7.5-1.4-11.5,1.4
							c-2-1.4-4.1-0.7-6.1,0.7c-1.4,1.4,0.7,2.7,1.4,4.1c4.1,2.7,8.1,4.7,13.6,5.4c2-1.4,5.4,0,7.5,0.7c2.7,2,0.7,4.7,0.7,6.8
							L193,1475.4L193,1475.4z"/>
						<path class="st1" d="M415.8,1448.1c-7.5-1.4-11.5-9.5-19.7-8.8c-2,0.7-3.4,1.4-4.7,3.4c-4.7,2-10.9,1.4-16.3,4.1
							c3.4,0,6.1-0.7,8.8,1.4c1.4,3.4-1.4,5.4-4.1,7.5c2,2,6.1,1.4,8.1,1.4c8.1-1.4,16.3,4.1,24.4,3.4c2-1.4,4.7-2.7,5.4-5.4l-2-0.7
							c0.7-0.7,1.4-1.4,2-1.4C417.1,1452.1,417.8,1449.4,415.8,1448.1z"/>
						<path class="st1" d="M161.8,1524.2H172c2.7-2,6.1-0.7,9.5-2c6.1-1.4,10.8-6.8,17-4.7c3.4,3.4,0,7.5-2.7,10.2
							c2,4.1-3.4,2.7-2.7,6.1c-4.1,4.7-7.5,9.5-10.2,14.2c2,2.7-2,3.4-2.7,6.1l1.4,0.7c2-4.1,5.4-5.4,7.5-9.5
							c0.7-4.1,6.1-4.1,6.1-7.5c4.1-2.7,8.1-4.7,9.5-8.1c3.4,0.7,2-3.4,4.7-2.7c4.1-4.8,10.2-6.8,14.9-8.8c2.7-2,2-4.1,2-6.8
							c0.7-0.7,2-0.7,2.7,0.7c0,0.7,1.4,0.7,2.7,0c2.7-6.1,10.9-4.1,14.9-8.8c7.5,0,12.2-5.4,18.3-8.1c2-2,2-5.4,0.7-8.1
							c-2.7-3.4-7.5-3.4-11.5-5.4h-10.8c-2.7-2-4.1,0-6.8-0.7c-4.1,5.4-10.2,5.4-14.2,10.2c-6.1-0.7-8.8,8.1-14.9,8.1
							c-2-2-2.7,0.7-4.7,0.7c-5.4,0.7-9.5,7.5-16.3,6.1c-8.1,3.4-18.3,7.5-27.8,4.7c-2-0.7-3.4-2.7-2.7-4.7c-2.7-0.7-3.4,1.4-4.7,2
							C146.8,1516.7,158.4,1518.1,161.8,1524.2z"/>
						<path class="st1" d="M464.2,1614.5c-0.7-5.5-7.2-9-10-14.8c-4.5-2.6-8.8-7.1-15-6.4c-2-0.2-3.1-2.4-5.3-1.3
							c-10.9-6-21.5-9.2-32.5-14.5c-9.4-7.2-23.2-6-32.6-13.2c-3.8-2.5-4.8-6-3.7-10c2.5-3.8,1.2-10.8,5-14.5l3.1-15.3
							c-0.4-2.8,0.5-4,1.4-6c-3.1-2.4,1.9-4.6,0.1-7.5c4.3-2.2,10.6-3.6,15.2-1.7c13.4,2.2,19.8,17.9,34.2,17.5
							c2.8-0.4,4.5-3.6,6.1-5.5c8.8-5.2-1.6-10.4-2.4-15.3c-9.1-9.9-22.3-7.9-33.8-8.5c1,2.8,5.1,3.3,4.7,6.7
							c-3.7,3-7.6,0.5-11.1,1.5c-2.1,0.5-3.6,1.6-5.6,1.4c-8.1-0.9-3.7-10-5.7-16.3c-3.1-3.1-7-4.9-9.2-9.2c-3.2-1.7-7-4.9-10.7-1.9
							c-3.2,4.4,2.7,6.4,3.6,10.6c1.2,7.6,3.7,16.1-1.9,23c3.2,1.7,1.5,4.9,1.2,7.6c-0.1,1.3-2.4,3.1-0.5,4.7
							c-2.9,1.7-2.7,5.8-3.1,9.2c-0.4,3.4-4.7,5.6-3.1,9.2c-3.2,4.4-3.9,10.5-7.7,14.1c-3,2.4-1.5,7.3-5.1,9c-1.5,1.2,1,2.8-1.1,3.3
							c-1.3,6-7.6,7.3-9.6,12.6c-3.5,7.1-10,10.5-14.7,15.4c-3.5,1-5.4,5.5-9.4,5.1c-6.1,6.1-15.6,5.1-23.1,5.6
							c2.5,2.3,4.3,3.9,6.7,6.9c5.1,3.3,10.6,3.2,16.6,3.9c5.2-4.2,13.5-4.6,18.7-8.8c5.8-3.4,11.8-7.6,15-12
							c5.8-3.4,9.2-9.2,13.8-13.5c0.6-5.4,4.3-8.4,5.5-12.4c-0.5-2.1,3.6-1.6,1.1-4c2.2-1.8,1.9-5.2,5.4-5.5l7.2,9
							c1.1,8.3,11.3,8.8,15.9,16.1c1.3,0.2,4,0.5,4.5,2.5c10.4,4.6,20.1,9.7,30.6,13.6c1.9,1.6,5.1,3.3,4,6.6
							c-4.3,1.6-6.2,6.8-10.5,8.4c-0.2,1.3-2.9,1.7-1.8,3.9c13-0.6,25.2,6.2,38.9,5.7c3.1-3.1,9.3-3.8,11.2-9
							C465.6,1619.4,466.8,1615.5,464.2,1614.5z"/>
						<path class="st1" d="M313.5,1517.9c-2.7-2.7,1.4-14.9-5.4-9.5c-0.7,9.5-9.5,17-6.8,25.8c4.7,5.4,4.7,14.2,10.9,19
							c8.1,4.1,7.5-7.5,12.2-10.2c-0.7-6.8,5.4-9.5,6.1-14.9c3.4-3.4,7.5-5.4,8.8-9.5c-6.1,3.4-12.9,8.1-20.3,8.8
							C312.1,1526.7,318.2,1520.6,313.5,1517.9z"/>
						<path class="st1" d="M267.5,1561.5c0-4.1-2-9.5-2-13.6l-1.4,1.4c-1.4,0-2.7,0-3.4,0l-4.7-4.1c-6.1-2-12.9-4.7-19.7-2
							c-8.1,0-12.2,6.1-19.7,8.8c-8.1,0.7-12.2,8.1-18.3,10.8c-5.4,2.7-9.5,8.1-15.6,8.8c-1.4,2-4.1,4.1-6.1,4.7
							c-8.1-0.7-2-6.8-3.4-10.8c-2.7,1.4-2.7,5.4-6.1,6.1l2.7,2.7c-2.7,6.1-8.1,9.5-11.5,14.9c-3.4,1.4-1.4,4.7-2.7,6.8
							c2,6.1,4.1,12.2,4.1,19c2,4.1,7.5,4.1,10.8,5.4c3.4-1.4,8.8-0.7,8.8-5.4c6.8-2,6.8-8.8,7.5-14.2c3.4-2.7,0-9.5,5.4-12.2
							c2-6.8,7.5-12.2,13.6-15.6c0-3.4,6.1-2,7.5-6.1c0.7,0,1.4-0.7,2,0c4.7-2,9.5-7.5,14.9-4.1c2,2.7,2,6.1,1.4,9.5
							c-2.7,2-0.7,6.1-3.4,7.5c0,7.5-8.1,12.2-10.2,19c-3.4,0.7-3.4,5.4-6.8,5.4c-2.7,5.4-10.2,3.4-12.9,8.1
							c-0.7,4.1-3.4,8.8-0.7,12.9c5.4,4.7,11.5,3.4,19,2.7c4.1-3.4,8.8-4.7,13.6-8.1c3.4-2,5.4-6.8,9.5-8.1c1.4-2.7,6.1-2,6.1-6.1
							c1.4-5.4,8.1-5.4,8.8-9.5c7.5-6.8,10.8-15.6,12.2-25.1C268.9,1568.9,266.9,1564.9,267.5,1561.5z"/>
					</g>
					<g>
						<path class="st1" d="M149.2,1447.1c-1.9,0-3.5-0.2-5.1-0.5c-1.4-0.2-2.7-0.4-4-0.4h-4.8v-3c-7.3-3.3-12-10.5-14-16.5l-0.9-2.8
							l2.1-2.1c2-2,4.3-2.3,5.4-2.4c0.1,0,0.1,0,0.2,0l1.6-0.8l2,0.7c3.5,1.3,7.6,2,11.6,2c6.6,0,13-1.8,18-5
							c5.1-3.2,10.5-4.5,15.7-5.7c4.7-1.1,9.1-2.2,12.9-4.5l0.9-0.6l1.1-0.1c5.4-0.6,10.3-2.9,15.5-5.3c0.4-0.2,0.9-0.4,1.3-0.6
							c-0.1,0-0.2,0-0.3,0c-1.7,0-5.8,0-8.3-3.4l-4-5.3l6.3-2.1c0.8-0.3,2-1.4,3.2-2.4c2-1.8,4.5-4.1,7.9-5c2.6-2,4-5.1,4-7v-0.4
							l0.1-0.4c1.2-7-2-13.5-5.4-20.3c-1.1-2.3-2.3-4.7-3.4-7.1c-1.1-0.9-2.8-2.7-2.8-5.6v-2.5l2-1.4c2.6-1.8,5.7-2.8,9.1-2.8
							c6.5,0,13.7,3.6,18.8,9.3c3.3,1.1,5.9,3,8.5,4.7c1.7,1.2,3.3,2.4,5.2,3.3l0.2,0.1l0.2,0.1c4.5,2.7,4,7.1,3.8,9
							c-0.1,0.5-0.1,1.2-0.1,1.4l0.6,1l0.1,1.2c0.6,9.2-3.3,18.2-10.5,24.9c0.5-0.1,1-0.1,1.5-0.2c2.8-2.6,6.8-4.1,11-4.1h0.3h0.3
							c3,0.4,5.5,1.9,7.7,3.3c1.3,0.8,3.2,1.9,4,1.9c0.1,0,0.4-0.2,0.6-0.5l1.9-1.9l2.6,0.7c11.6,2.9,15.3,8.7,16.4,13l0.3,1.4
							l-0.4,1.3c-2.9,8.6-8.8,13.9-16.2,14.8l-0.5,0.1l-0.5-0.1c-6.9-0.8-13.6-1.3-19.7-1.3c-10.7,0-20.5,1.3-29.2,3.8l-0.7,0.2
							h-0.7c-1.5,0-3.1,0.6-5.1,1.4c-2.1,0.8-4.4,1.7-7.1,1.9c-2.4,1.3-5,1.9-7.2,2.3c-2.1,0.4-3.9,0.8-5.1,1.7l-0.5,0.4l-0.6,0.2
							c-1.6,0.5-3.1,1-4.6,1.6c-3.8,1.3-7.4,2.5-11,3.5c-2,2.2-4.7,3.1-6.9,3.7c-1.2,0.4-2.9,0.9-3.1,1.4l-0.9,2.2l-2.3,0.6
							c-1.6,0.4-3.2,1.2-4.9,2c-2.8,1.4-6.1,3-10,3c-0.4,0-0.7,0-1.1,0C150.9,1447.1,150.1,1447.1,149.2,1447.1z"/>
						<path class="st1" d="M320.8,1491.9c-1.4,0-2.8-0.2-4.1-0.4c-1-0.1-1.9-0.3-2.6-0.3c-0.3,0-0.4,0-0.5,0l-2.4,0.4l-1.7-1.7
							c-1.6-1.6-1.7-3.4-1.7-4.3l-1.9-3.7l3.9-2.3c6.6-3.9,14.6-9.3,17.6-17.3l0.5-1.2l1-0.8c1.1-0.8,1.9-2.8,2.7-5
							c0.6-1.4,1.2-3,2.1-4.6c-0.1-3.5,1.6-6.2,3-8.4c1.4-2.3,1.8-3.1,1.5-4l-0.6-1.7l0.7-1.6c0.1-0.1,0.1-0.3,0.2-0.4
							c-1.1,1.4-2.2,2.9-3.3,4.4c-3.8,5.1-8,10.8-14.7,14.6c-2,1.7-3.9,2.1-5.3,2.1l0,0c-3,0-5.1-1.7-6.9-3
							c-0.7-0.5-1.4-1.1-1.9-1.3h-0.1c-4.7-2-5.6-6.4-6.2-9.3c-0.3-1.3-0.6-2.8-1.1-3.1l-1-0.6l-0.6-1c-3.1-5-1.6-10.2-0.4-14
							c0.6-2.1,1.2-4.1,1.1-5.6l-0.2-1.7l1-1.4c0.5-0.8,0.2-2.6,0-4.3c-0.3-1.9-0.6-3.9-0.3-6.1c-0.5-1.5-0.5-2.9-0.5-3.8v-0.1
							l-2.7-2.7l3.4-3.4c2.8-2.7,5.7-2.7,8.1-2.7h1.6l1.3,1c0.6,0.5,1.6,1,2.6,1.5c2.2,1.1,4.7,2.5,6.7,4.8c3,1.1,4.2,3.9,4.8,5.3
							c0.2,0.4,0.4,0.9,0.5,1.1l0.6,0.9l0.1,1.1c0.2,1.4,0.2,2.7,0.3,4c0.2,5,0.6,5.3,1.4,5.5l0.3,0.1c0.2-0.2,0.4-0.4,0.5-0.6
							c1.2-1.4,3.3-4,6.9-4.3c5.7-3.5,11.4-7.8,11.4-13.5c0-9,2.6-17.9,5.1-25c-1-3.3-0.1-5.8,0.4-7.7c0.3-1,0.6-1.7,0.6-2.6v-1
							l0.3-0.8c0-0.6-0.4-2.1-0.7-3c-0.8-2.8-1.9-6.5,0.4-9.8c1.6-2.2,3.9-3.1,5.7-3.5c1.8-1.6,4.5-3.1,8.8-3.1
							c2.5,0,4.8,0.5,6.5,0.8l1.2,0.2l4.9,3.3l0.1,0.1c5.9,4.3,5.1,10.5,4.5,14.5c-0.6,4.4-0.3,4.7,1,5.5l0.5,0.3l0.4,0.4
							c1.8,1.5,4.4,2.4,7.2,3.3c4,1.3,8.4,2.7,11.6,6.6c2,1.9,5.1,2.5,8.6,3.3c5.2,1.1,11.7,2.5,15.8,8.8c6,4.5,8.7,11.1,7.2,17.9
							c-0.9,4.3-4.6,6.2-7,7.5c-0.6,0.3-1.5,0.8-1.8,1l-2.6,2.6l-3.2-1.8c-1.1-0.6-2.5-0.7-4.2-0.9c-2.9-0.2-6.7-0.6-10.1-3.7
							c-4.2-0.9-8.8-1.4-13.3-1.4c-6.4,0-12.4,1-17.4,2.8l-0.5,0.3c-1.7,1-5.1,3-4.9,4.2l0.2,1.3l-0.5,1.2c-0.5,1.3-0.6,2.6-0.7,4.2
							c-0.2,2.4-0.4,5.4-2.3,8.4c-0.3,2.9-1.8,5.3-3,7.1c-0.2,0.2-0.3,0.5-0.5,0.8h4.2v12l-5.7-1.2c-0.4-0.1-0.9-0.1-1.3-0.1
							c-0.2,0-0.3,0-0.4,0v0.2l-0.3,0.8c-0.8,2.4-1.9,4.5-3,6.5c-0.9,1.7-1.8,3.4-2.4,5l-0.4,1.1l-0.8,0.8c-1.4,1.4-2.5,3.3-3.7,5.3
							c-2,3.4-4.3,7.3-8.6,9.4c-3.4,5.2-8.1,8.3-13.8,9C326.7,1490.6,324.3,1491.9,320.8,1491.9z"/>
						<path class="st1" d="M186.1,1480.2v-4.8c0-1.1,0.2-2.1,0.5-2.9c-0.6-0.2-1.1-0.3-1.5-0.3l-1.1,0.8l-1.8-0.2
							c-6.9-0.9-11.7-3.6-15.6-6.2l-1.1-0.7l-0.5-1.1c-0.1-0.1-0.2-0.3-0.3-0.4c-3.7-4.8-1.4-8-0.2-9.2l0.3-0.3l0.4-0.3
							c2.2-1.5,4.3-2.2,6.4-2.2c0.8,0,1.6,0.1,2.3,0.3c0.9-0.2,1.7-0.4,2.7-0.4c1.6,0,3.1,0.4,4.2,0.7c0.4,0.1,0.8,0.2,1.2,0.3
							l0.9-1.1l1.6-0.3c10.3-2.2,20.1-5,28.6-8l0.8-0.3h0.8c3,0,5.8-1.8,9-3.9c2.1-1.3,4.2-2.7,6.7-3.8l0.5-0.2l0.6-0.1
							c1.3-0.2,2.6-0.3,3.9-0.3c5.4,0,10.6,1.9,15.1,3.5c1.7,0.6,3.3,1.2,4.9,1.7l4.4,1.3l-1.1,4.4c-0.4,1.7-1.2,3.1-1.9,4.4
							c-0.7,1.2-1.3,2.4-1.3,3.2v2.8l-2.4,1.4c-8.5,4.9-17.4,7.6-26,10.1c-4.9,1.5-9.9,3-14.6,4.8c-3,2.3-6.5,2.8-9.4,3.3
							c-3.2,0.5-5,0.9-6.4,2.5l-1.4,1.6h-9.2V1480.2z"/>
						<path class="st1" d="M410.9,1465.1c-4,0-7.8-1-11.4-2c-3.2-0.9-6.1-1.7-8.9-1.7c-0.7,0-1.3,0-1.9,0.2l-0.4,0.1H388
							c-0.3,0-0.7,0-1,0c-0.7,0-1.4,0.1-2.1,0.1c-1.4,0-5.5,0-8.4-2.9l-3.9-3.9c0,0,4.6-3.5,4.8-3.6c-0.7,0-1.5,0.1-2.2,0.1
							l-2.1-9.1c3.6-1.8,7.3-2.4,10.6-2.8c1.8-0.3,3.5-0.5,4.9-0.9c2-2.4,4.2-3.3,6.2-3.9l0.5-0.2h0.6c0.5,0,0.9-0.1,1.3-0.1
							c5.6,0,9.7,3,13,5.4c2.3,1.7,4.3,3.2,6.6,3.6l1,0.2l0.8,0.5c2.8,1.9,3.4,4.7,3.7,6.2l1.4,1.4h0.1l0,0l5.9,5.9h-7.5
							c-1.4,3.2-4.2,4.9-6.1,6.1c-0.3,0.2-0.5,0.3-0.8,0.5l-1,0.7l-1.2,0.1C412.2,1465.1,411.6,1465.1,410.9,1465.1L410.9,1465.1z"
							/>
						<path class="st1" d="M174.5,1556.6l0.9-3.7c0.4-1.7,1.3-3,2.2-3.9l-0.5-0.7l1.6-2.7c2.6-4.5,5.8-9.1,9.6-13.6
							c0.3-1.5,1-2.8,2.3-3.9l-0.7-1.4l2.4-2.4c1-1,1.6-1.7,2-2.3c-1.3,0.3-2.7,1.1-4.3,1.9c-2.1,1.1-4.4,2.2-7.1,2.9
							c-2.1,0.8-4,0.9-5.6,0.9c-1.1,0-2.1,0.1-2.4,0.3l-1.3,1H159l-1.4-2.5c-0.7-1.2-2.5-2.5-4.3-3.7c-3.8-2.7-11-7.6-6.7-16.9
							l0.7-1.5l1.3-0.6c0.1-0.1,0.1-0.1,0.2-0.2c0.9-0.8,2.8-2.6,5.9-2.6c0.7,0,1.5,0.1,2.2,0.3l5,1.3l-1.2,3.8
							c1.4,0.3,2.9,0.5,4.4,0.5c6.7,0,14-3,19.4-5.3l1.3-0.6l1.4,0.3c0.3,0.1,0.6,0.1,0.8,0.1c1.7,0,3.5-1.2,5.5-2.5
							c2.3-1.5,4.9-3.2,8.1-3.7c0.8-0.5,2.1-1.5,4.2-1.5c0.8,0,1.6,0.2,2.4,0.5c0.9-0.5,1.9-1.5,3-2.5c2.1-2,4.9-4.7,8.9-5.3
							c2.2-1.9,4.5-3.1,6.6-4.2c2.4-1.2,4.4-2.2,5.9-4.1l1.9-2.5l3.1,0.8c0.1,0,0.5-0.1,0.7-0.1c0.6-0.1,1.4-0.3,2.4-0.3
							c1.3,0,2.6,0.3,3.8,0.9h10.6l1,0.5c1.1,0.5,2.4,0.9,3.8,1.4c3,0.9,6.7,2,9.4,5.4l0.3,0.4l0.2,0.5c2.4,4.8,1.8,10.3-1.6,13.7
							l-0.6,0.6l-0.8,0.4c-1.7,0.8-3.4,1.8-5.2,3c-3.6,2.3-7.7,4.9-13.1,5.5c-2.5,2-5.4,2.9-7.8,3.6c-3.2,0.9-4.3,1.4-4.8,2.5
							l-0.7,1.6l-1.5,0.8c-1.1,0.5-2.2,0.9-3.2,1c-0.5,1.6-1.5,3.2-3.5,4.7l-0.5,0.3l-0.5,0.2c-0.7,0.3-1.4,0.6-2.1,0.9
							c-4.1,1.7-8.3,3.4-11.1,6.7l-1.9,2.3l-0.7-0.2c-0.8,1-1.8,1.7-2.9,2c-2,2.6-4.8,4.4-7.6,6.2c-0.2,0.1-0.4,0.2-0.6,0.4
							c-1,2.3-3.1,3.7-4.3,4.5c-0.4,0.3-1,0.7-1.3,0.9l-0.1,0.6l-0.3,0.6c-1.4,2.7-3.2,4.5-4.6,6c-1.2,1.2-2.2,2.2-2.8,3.5l-2.1,4.3
							L174.5,1556.6z"/>
						<path class="st1" d="M452.1,1634.5c-6.9,0-13.3-1.6-19.5-3.1c-5.7-1.4-11-2.7-16.3-2.7c-0.5,0-0.9,0-1.4,0l-3.1,0.1l-1.4-2.7
							c-0.9-1.7-1.8-4.9,1.4-8l0.2-1.6l2.8-1c1-0.4,2.2-1.6,3.4-2.9c0.8-0.9,1.8-2,2.9-2.9c0,0-0.4-0.3-0.6-0.4
							c-6.6-2.5-12.9-5.5-19.1-8.4c-3.6-1.7-7.3-3.4-11-5.1l-2.2-1l-0.2-1.1c-0.2,0-0.5-0.1-0.6-0.1l-2.3-0.3l-1.2-1.9
							c-1.4-2.2-3.9-3.8-6.4-5.4c-3.8-2.4-8.5-5.3-9.9-11.2l-2.6-3.2c-0.3,1.7-1.3,2.8-2.1,3.4c-0.7,2.1-1.8,3.9-2.7,5.4
							c-1.2,1.9-2.2,3.6-2.5,5.7l-0.2,1.8l-1.3,1.2c-1.4,1.3-2.8,2.9-4.2,4.6c-2.6,3-5.5,6.4-9.5,9c-3.1,4-8.1,7.9-15.5,12.3
							c-3.2,2.5-6.9,3.7-10.5,5c-3.1,1.1-6,2.1-7.9,3.6l-1.5,1.2l-2-0.2c-1-0.1-2-0.2-2.9-0.3c-5.2-0.5-10.5-1-15.8-4.4l-0.7-0.4
							l-0.5-0.6c-1.8-2.2-3.2-3.5-5-5.2c-0.4-0.4-0.8-0.8-1.3-1.2l-8-7.5l10.9-0.7c1.5-0.1,3-0.1,4.5-0.2c6.1-0.2,11.9-0.4,15.6-4
							l1.6-1.6l2.3,0.3c0.4-0.1,1.3-0.9,1.9-1.4c1.1-1,2.5-2.2,4.3-3c1.5-1.5,3.1-2.9,4.7-4.2c3.3-2.7,6.4-5.3,8.3-9.1
							c1.4-3.4,3.8-5.5,5.8-7.3c2-1.7,3.1-2.8,3.5-4.4l0.7-3l0,0c0.4-1.5,1.3-2.4,2-3l0.5-0.4l0.3-0.1c0.1-0.3,0.3-1,0.4-1.5
							c0.5-1.9,1.2-4.7,3.7-6.8c1.4-1.4,2.2-3.5,3.2-6c0.7-1.7,1.5-3.6,2.5-5.5c-0.3-3.2,1.5-5.8,2.5-7.3c0.4-0.5,0.9-1.3,1-1.6
							c0-0.5,0.1-1,0.1-1.5c0.2-2.4,0.4-5.7,2.2-8.3c0-1.2,0.3-2.7,1.3-4.4c0-0.1,0.1-0.1,0.1-0.2c0.1-0.6,0.2-1.3,0.3-1.8
							c0.1-0.3,0.1-0.6,0.2-0.9l-4.4-2.3l3.6-4.5c3.5-4.3,2.5-9.8,1.4-16.2c-0.2-1-0.3-1.9-0.5-2.8c-0.1-0.5-0.9-1.3-1.4-2
							c-1.7-2-5.6-6.7-1.4-12.4l0.4-0.5l0.5-0.4c1.9-1.5,4-2.3,6.3-2.3c3.3,0,6.1,1.6,8.3,2.9c0.5,0.3,0.9,0.5,1.4,0.8l1.3,0.7
							l0.7,1.3c1,2,2.6,3.3,4.7,4.9c1.2,1,2.4,1.9,3.7,3.1l0.8,0.8l0.4,1.1c0.9,2.9,0.9,5.9,0.8,8.6c0,1.3-0.1,3.5,0.2,4.3
							c0.1,0,0.3,0.1,0.7,0.1c0.2,0,0.7-0.2,1.2-0.4c0.7-0.3,1.7-0.7,2.8-0.9c1-0.3,2-0.4,3.1-0.4c0.2,0,0.4,0,0.6,0
							c-0.3-0.4-0.5-0.9-0.7-1.5l-2.5-6.8l7.3,0.4c2,0.1,4,0.1,6.1,0.2c10.4,0.1,22.1,0.3,31,9.9l1,1l0.2,1.4
							c0.1,0.5,1.2,1.8,1.9,2.7c2,2.5,4.7,6,3.9,10.4c-0.5,2.6-2.1,4.8-4.9,6.6c-0.1,0.2-0.3,0.4-0.4,0.6c-1.6,2.2-4.1,5.4-8.2,6
							H425h-0.2c-0.3,0-0.5,0-0.7,0c-9.2,0-15.5-5.2-21.2-9.9c-4.3-3.5-8.3-6.9-13.2-7.7l-0.5-0.1l-0.5-0.2
							c-0.9-0.4-1.9-0.5-3.1-0.5c-1.7,0-3.5,0.3-5.3,0.9c-0.2,0.7-0.4,1.3-0.6,1.8l1.5,1.1l-1.6,3.5l-0.3,0.7
							c-0.7,1.4-0.8,1.6-0.6,2.7l0.1,0.8l-3.5,17.6l-1.1,1c-1,1-1.4,3.3-1.8,5.6c-0.4,2.3-0.8,4.9-2.1,7.2c-0.5,2.1,0.3,3.2,1.8,4.1
							l0.2,0.1l0.1,0.1c3.9,3,9.1,4.3,14.6,5.8c6,1.6,12.2,3.2,17.6,7.1c4.4,2.1,8.8,3.9,13.1,5.7c5.7,2.3,11.6,4.8,17.6,7.9
							c0.2,0,0.4,0,0.6,0c2,0,3.6,0.9,4.5,1.4c0.1,0,0.1,0.1,0.2,0.1c0.2,0,0.4,0,0.7,0c5.6,0,9.8,2.9,13.1,5.2c1.1,0.7,2,1.4,3,1.9
							l1.3,0.7l0.6,1.4c0.9,1.9,2.5,3.6,4.1,5.4c2.2,2.4,4.7,5.1,5.8,8.6c0.8,0.8,1.4,1.7,1.7,2.9c1.1,3.2-0.1,6.6-1,8.3
							c-1.9,4.7-6,6.8-9,8.4c-1.3,0.7-2.5,1.3-3.2,1.9l-1.3,1.3l-1.9,0.1C453.2,1634.5,452.7,1634.5,452.1,1634.5z"/>
						<path class="st1" d="M315.2,1558.8c-1.7,0-3.4-0.4-5.2-1.4l-0.4-0.2l-0.4-0.3c-4.5-3.5-6.3-8.3-7.9-12.5
							c-1.1-2.7-2-5.3-3.6-7.1l-0.7-0.8l-0.3-1c-2.1-6.8,0.7-12.7,3.2-17.9c1.6-3.3,3.1-6.5,3.3-9.6l0.1-2.1l1.6-1.3
							c1.3-1,3.3-2.4,5.7-2.4c6.2,0,6.3,6.9,6.4,9.8c0,0.8,0,1.9,0.1,2.7c2.8,2.4,3.1,5.7,3,7.6c4.5-0.9,8.9-3.5,13.3-6
							c1.2-0.7,2.3-1.3,3.4-2l10.8-6l-3.9,11.7c-1.4,4.1-4.4,6.6-7.1,8.8c-0.7,0.5-1.3,1.1-1.9,1.6c-0.7,2.6-2.2,4.7-3.4,6.4
							c-1.7,2.3-2.5,3.6-2.3,5.6l0.3,3.1l-2.7,1.5c-0.5,0.4-1.3,2.2-1.8,3.3C323.5,1553.6,321.1,1558.8,315.2,1558.8z"/>
						<path class="st1" d="M207.7,1633.4c-3.4,0-8.5-0.5-13.2-4.6l-0.5-0.4l-0.4-0.5c-3.2-4.9-1.8-9.9-0.7-13.6c0.3-1,0.6-2,0.7-2.8
							l0.1-0.8l0.4-0.7c2.3-3.9,6.1-5.1,8.9-5.9c2.4-0.7,3.4-1.1,3.8-2l1.3-2.6h2.1c0.1-0.2,0.2-0.3,0.3-0.5
							c0.7-1.1,1.8-2.7,3.5-3.8c1.3-2.8,3.1-5.2,4.8-7.3c2.3-2.9,4.3-5.5,4.3-8.1v-3l1.7-0.8c0-0.1,0-0.2,0-0.3
							c0.2-1.4,0.4-3.6,2-5.6c0.2-1.7,0-2.8-0.2-3.5c-0.1,0-0.2,0-0.3,0c-1.2,0-3.2,1.2-4.9,2.3c-1.4,0.9-2.9,1.8-4.5,2.5l-1.7,0.7
							c-1.6,1.6-3.6,2.3-4.9,2.7v1.1l-2.5,1.4c-5.7,3.2-9.8,7.8-11.3,12.8l-0.6,2l-1.8,0.9c-0.5,0.2-0.7,0.5-0.9,3.2
							c-0.2,2-0.4,4.6-2.1,6.9v0.1c-0.5,4.6-1.3,11.9-7.8,15.4c-1.7,4.4-6.6,5.4-9,5.9c-0.8,0.2-1.7,0.3-2.3,0.6l-1.8,0.7l-1.8-0.7
							c-0.6-0.3-1.5-0.5-2.5-0.7c-3.3-0.8-8.4-2.1-10.8-7l-0.5-1v-1.1c0-6-1.9-11.6-3.8-17.5l-0.7-2.2l1-1.6c0-0.2,0-0.4,0-0.6
							c0-1.5,0.1-5.3,3.6-7.6c1.5-2.2,3.3-4.1,4.9-5.8c1.4-1.5,2.8-3,3.9-4.6l-6.5-6.5l8.5-1.7c0.2-0.2,0.4-0.7,0.6-1
							c0.8-1.4,2.1-3.5,4.5-4.7l4.9-2.5l1.7,5.2c0.7,2.2,0.5,4.3,0.1,6c0.4-0.3,0.7-0.7,0.9-1l1.2-1.9l2.2-0.2
							c2.5-0.3,4.8-2,7.6-4.1c2-1.5,4-3,6.4-4.3l0.2-0.1c1.7-0.8,3.5-2.3,5.4-3.9c3.4-2.9,7.6-6.5,13.8-7.3c2.2-0.9,4.1-2.1,6.1-3.5
							c3.7-2.4,7.8-5.2,13.8-5.4c2.2-0.8,4.6-1.2,7-1.2c5,0,9.6,1.6,13.7,2.9l2.3,0.8l3.9,3.4l8-7.9v11.5c0,1.5,0.5,3.7,0.9,5.8
							c0.6,2.6,1.1,5.2,1.1,7.8v0.5l-0.1,0.5c-0.1,0.6,0,1.7,0.1,2.8c0.2,2.1,0.6,5.1-0.9,7.6c-1.8,10.9-5.9,19.3-12.6,25.8
							c-1.2,2.9-3.7,4.4-5.5,5.5c-1.6,1-2.4,1.5-2.7,2.2c-0.4,4.8-4.3,6.6-5.9,7.4c-0.2,0.1-0.6,0.3-0.8,0.4l-0.7,1.4l-1.9,0.6
							c-1.1,0.4-2.3,1.7-3.5,3.1c-1.3,1.5-2.8,3.2-4.8,4.4c-2.4,1.7-4.8,2.9-6.9,4c-2.4,1.2-4.4,2.3-6.2,3.8l-1.1,1l-1.5,0.1
							c-0.9,0.1-1.7,0.2-2.5,0.3C212.2,1633.2,210,1633.4,207.7,1633.4L207.7,1633.4z"/>
					</g>
				</g>
				<g>
					<g>
						<path d="M824.9,1522.6c2.1-7.6-4.5-13.6,0.5-21.1c-3.7-4.9,2.1-7.6-1.6-12.5c2.3-15.3-3.1-31.8,1.2-48
							c-0.7-12.5-3.3-23.1-0.1-36.5c-3.8-2,1.1-4.8,1.1-7.7c-4.7-4,2.1-6.7,0.2-9.6c-1.8-5.8-4.6-8.8-7.3-13.6
							c-7.7,1.7-5.6-7.8-11.3-10.8c-1.9,0-4.8-1.1-5.8,1.8c-3.9,1.8-1.8-3.9-4.7-4.9c-6.7-1.1-11.4-7-18.1-6.2l-0.1,2.9
							c-5.6-5.9-16.1-11-25.7-10.2c0,1,0.9,1.9,0,1.9c-0.1,2.9,2.8,2,4.8,2c6.6,6.9,15.1,10.9,21.7,17.8
							c5.6,7.8,14.1,13.8,15.8,22.5c2.4,18.3,2,36.5,6.4,54.9l-3.2,13.4c-0.1,3.8,3.7,7.8,0.7,10.6c-0.3,12.5,4.2,23.2,1.1,34.6
							c0.8,4.8,0.7,9.6,2.5,14.5c-4.1,8.5-4.3,19.1-3.6,27.8c-1.1,6.7-0.4,16.3-7.2,21.9c-7.8,2.7-15.3-1.3-24-0.6
							c-2.9-1-7.7,0.8-11.5-0.3c-7.6-4-11.5-1.2-19.1-3.3c4.7,3,7.5,7.9,12.2,10.9c10.6-1.7,12.2,10.9,19.8,14.9
							c-5,6.6,5.5,10.7,9.3,13.7c5.7,4,14.2,8,21,4.4l1.9,2.9c4.8-0.8,12.3,6.1,15.4-0.6c6.8-1.7,4.1-9.5,8-14.2
							C830.4,1571.7,825.3,1545.7,824.9,1522.6z"/>
						<path d="M697.5,1478.2c-1.9-1-1.9-2.9-4.7-3c-6.6-5-18.1-5.2-20.8-13.9c3.9-1.8,6-8.5,10.7-7.4c4.9-5.6,15.6-11.1,14.9-18.8
							c-3.6-9.7-13.3-4.2-20-8.2c-2.9,1.9-9.6-0.2-13.4-2.2c0.4-18.2-7.9-32.8-12.3-48.3c-6.6-5.9-12.1-14.7-19.7-17.8
							c-3,3.8-3.8-2-4.7-3c-6.6-3-13.5,0.6-17.4,3.4c-2,4.8,1.7,8.7,5.5,12.6c0.9,1-0.1,4.8,2.8,4.9c2.9-0.9,1.1-4.8,3-5.7
							c3.9-0.9,4.7,3,7.6,4c1.8,3.9,5.5,8.8,3.6,11.6c5.7,1.1,2.7,8.7,7.4,11.7c-0.3,10.6,7.1,22.3,3,32.7c-4.9,2.8-4.7-3-7.6-4
							c0.8,5.8,3.6,10.6,5.4,16.4c-5.1,13.3-20.6,16.8-31.3,25.2c-2.9-0.1-3.9,3.7-7.7,2.7c-10.8,9.3-25.2,10.9-37.8,16.4
							c-3.8-0.1-8.6-1.2-12.5,0.7c-2.9-1-6.6-5-9.5-4.1c1.9,1,3.8,3,3.7,5.8c4.7,4,11.4,4.1,18.2,3.3c5.7,1.1,12.4,2.2,18.1,4.3
							c1.9,2.9-0.1,5.8-1.1,7.7c-1.9,0.9,0.9,2.9-2,3.8c-3,5.7-9.9,10.3-10,18c-0.1,2.9-2.9,1.8-4.9,2.8
							c-2.1,7.6-12.6,5.5-16.6,12.1c0.9,1.9-1,1.9-2,3.8c-1.9-1-0.9-2.9-1.8-3.9c-4.8,1.8-5.9,7.5-6,11.4c0.8,4.8,4.6,7.8,9.3,10.8
							c12.4,4.1,23.2-6.2,33-12.6c3-6.7,8.8-5.6,13.7-9.3c3-5.7,11.6-3.6,14.6-9.2c10.6-3.6,19.4-10.1,30-11.8
							c3.8,1,0.9,3.9-0.1,5.8c1.7,7.7-2.3,15.3-3.4,23c-5,7.6-6.2,17.1-9.3,25.7c-7.8,5.6-8,15.2-15.8,18.8c-2,1.9-4.8-1.1-4.9,2.8
							c5.7,2.1,16.4-2.5,17.1,7.1c-1,1.9-2,4.8-4.9,4.7c6.7,2.1,12.5-2.6,18.3-2.4c2.9-2.8,7.8-4.6,9.8-8.4
							c5.9-5.6,8-15.2,11.1-22.8c2-1.9,1.1-5.7,2.1-7.6c2-1.9,3-2.8,2.1-5.7c7-10.4,2.4-22,5.6-33.5c-0.8-4.8,3.1-8.6-0.6-13.5
							c4.9-4.7,10.8-9.3,17.5-9.2c6.9-7.5,20.3-5.3,25.4-16.7c0.1-3.8,0.2-7.7-2.6-10.6C703.3,1478.4,699.5,1476.3,697.5,1478.2z
							 M641.3,1499.9c-11.7,5.5-26.2,12.8-38.9,19.2c-2.9,0.9-4,4.7-7.8,4.6c-8.7,0.7-14.7,12.1-25.2,8l1.1-3.8
							c8.9-9.4,17.8-20.7,29.4-26.2c3.9-3.7,9.7-4.6,13.6-8.3c6-10.4,18.5-10.1,26.3-16.6c1.9,0,5.8,0.1,4.7,3
							C643.5,1486.5,646.2,1494.3,641.3,1499.9z"/>
						<path d="M700.2,1365c-1.8-5.8-6.6-5-10.4-7c-6.8,1.8-13.4-1.3-17.4,3.4c5.7,1.1,10.4,6,14.2,9.9c0.7,11.5-9.1,19-15,26.5
							c5.8-1.8,13.5-0.6,18.2,3.3c6.7-0.8,10.4,7,17.2,4.3c3.9-0.9,5.9-4.7,8.8-6.5c3.1-7.6-1.6-13.5-2.4-20.2
							C709.6,1373.9,708.9,1365.2,700.2,1365z"/>
						<path d="M613.3,1426.3c4.8-1.8,2.1-8.6,6-11.4c-0.8-8.7,7.1-14.2,7.3-22.9c-4.9,5.6-12.7,8.3-20.4,9.1
							c-1.8-4.8-9.5-4.1-11.3-9.9c-5.8-0.1-10.4-6-15.2-8c-1.2,10.5,8.3,14.6,9,23.3C596.3,1414.3,600.8,1427.9,613.3,1426.3z"/>
						<path d="M764.4,1507c-1.6-11.6-0.3-27.8,0-40.3c-0.8-6.7-1.6-12.5-4.4-17.4c-1.6-15.4-15.8-22.5-29.1-25.7
							c0.8,5.8,4.5,11.6,4.4,18.3c6.3,15.5,2.1,30.8,2.7,47.1c-2,2.8-2.1,7.6,1.7,8.7c0.8,4.8,4.6,8.8,3.5,13.5
							c0.8,4.8,4.6,7.8,5.5,10.7c1.9,2.9,4.7,3,7.6,3.1C763,1522.3,761.4,1512.7,764.4,1507z"/>
					</g>
					<g>
						<path class="st1" d="M812.8,1614.7c-1.9,0-3.9-0.7-5.8-1.3c-1.6-0.5-3.2-1.1-4.5-1.1c-0.2,0-0.4,0-0.6,0l-1.3,0.2l-1.6-2.6
							c-1.6,0.6-3.4,0.9-5.2,0.9c-6.1,0-12.2-3.3-16.2-6.1l-0.1-0.1c-0.7-0.5-1.7-1.2-2.8-1.8c-3.4-2.2-7.7-4.8-8.5-8.8
							c-0.2-1.3-0.1-2.6,0.5-4c-2.4-1.8-4.2-4.3-5.9-6.7c-2.7-3.8-5.1-7.1-9.4-7.1c-0.5,0-1,0-1.6,0.1l-0.7,0.1l-0.6-0.4
							c-2.6-1.6-4.5-3.7-6.5-5.7c-1.8-1.9-3.6-3.8-5.7-5.1l1.5-3.5c2.9,0.8,5.3,0.8,7.7,0.9c3.4,0,6.9,0.1,11.7,2.5
							c0.6,0.2,1.4,0.2,2.2,0.2c1,0,2.1-0.1,3.1-0.2s2.1-0.2,3.1-0.2s1.8,0.1,2.6,0.3c0.7,0,1.4-0.1,2-0.1c3,0,5.8,0.4,8.5,0.9
							c2.5,0.4,4.9,0.8,7.2,0.8c1.8,0,3.5-0.2,5-0.7c4.6-3.9,5.2-10.2,5.7-15.8c0.2-1.6,0.3-3,0.5-4.4c-0.9-11.2,0.2-20.6,3.4-27.8
							c-1.1-3.2-1.4-6.3-1.7-9.3c-0.2-1.6-0.3-3.2-0.6-4.7l-0.1-0.4l0.1-0.4c1.8-6.5,0.9-13,0-19.7c-0.6-4.6-1.3-9.3-1.2-14.4v-0.8
							l0.6-0.5c0.8-0.8,0.7-1.7-0.2-4.2c-0.5-1.5-1.1-3.2-1.1-5v-0.2l3.1-13.1c-2.7-11.5-3.5-23-4.4-34.2c-0.5-6.7-1-13.6-1.9-20.4
							c-1.1-5.2-5-9.6-9.1-14.1c-2.1-2.3-4.3-4.8-6.2-7.4c-3.1-3.3-6.7-5.8-10.5-8.6c-3.6-2.6-7.2-5.2-10.5-8.5c-0.1,0-0.2,0-0.3,0
							c-0.4,0-0.8,0.1-1.3,0.1c-0.9,0-2.3-0.1-3.3-1.1c-0.7-0.7-1.1-1.7-1-3l0.1-3.6l1.7-0.1c0.7,0,1.3-0.1,2-0.1
							c8.4,0,16.5,3.7,22,8v-0.4l1.7-0.2c0.5-0.1,1-0.1,1.5-0.1c3.8,0,6.9,1.7,9.9,3.3c2.4,1.3,4.7,2.5,7.2,3h0.2l0.2,0.1
							c2.2,0.8,2.7,3.1,3.1,4.4v0.1c0.8-1,2-1.7,4-1.7c0.6,0,1.2,0.1,1.8,0.1c0.4,0,0.7,0.1,1,0.1h0.5l0.4,0.2
							c3,1.6,4.2,4.5,5.2,6.9c1.2,2.8,1.8,3.9,3.4,3.9c0.4,0,0.8-0.1,1.3-0.2l1.4-0.3l0.7,1.2c0.8,1.5,1.7,2.8,2.5,4
							c1.9,2.9,3.7,5.6,5,9.8c1.2,2.1,0,4.1-0.9,5.4c-1.1,1.8-1.3,2.3,0.1,3.5l0.7,0.6v0.9c0,1.6-0.9,3-1.7,4.1
							c-0.3,0.4-0.8,1.1-0.9,1.5c0.1,0.1,0.2,0.1,0.4,0.3l1.3,0.7l-0.3,1.4c-2.3,9.6-1.5,17.7-0.7,26.4c0.3,3.1,0.6,6.3,0.8,9.6v0.3
							l-0.1,0.3c-2.3,8.8-1.7,17.8-1.1,26.5c0.5,6.8,0.9,13.8,0,20.5c1.9,2.9,1.2,5.4,0.7,7.2c-0.5,1.8-0.8,2.9,0.5,4.6l0.8,1.1
							l-0.7,1.1c-2.4,3.6-1.6,6.8-0.7,10.4c0.7,2.9,1.5,6.2,0.6,9.9c0.1,6.9,0.7,13.9,1.2,21.3c1.3,17.2,2.7,35-1.1,51.9l-0.1,0.5
							l-0.3,0.4c-1.3,1.5-1.7,3.6-2.2,5.8c-0.7,3.2-1.5,7.2-6,8.8C817.1,1613.5,815.2,1614.7,812.8,1614.7L812.8,1614.7z"/>
						<path class="st1" d="M620.2,1611.2c-1.5,0-2.8-0.2-4.2-0.6l0.6-3.7c1.2,0,1.8-0.9,2.8-2.9c0-0.1,0.1-0.2,0.1-0.2
							c-0.5-3.6-2.7-4.2-7.7-4.2h-1.9c-2,0-4.3-0.1-6.2-0.7l-1.3-0.5v-1.4c0.1-3.5,2.2-4,3.5-4c0.2,0,0.5,0,0.7,0s0.4,0,0.6,0
							c0.5,0,0.6-0.1,0.6-0.2l0.2-0.2l0.3-0.1c3.5-1.7,5.3-4.8,7.3-8.4c1.9-3.3,3.9-7,7.7-9.8c0.9-2.6,1.7-5.4,2.4-8.1
							c1.6-5.8,3.3-11.9,6.6-17.1c0.4-2.5,1.1-5,1.8-7.4c1.4-5,2.7-9.7,1.6-14.4l-0.2-0.7l0.3-0.6c0.2-0.4,0.5-0.9,0.8-1.3
							s0.7-1.1,0.9-1.5c0,0,0,0-0.1,0c-5.9,1-11.3,3.6-16.9,6.3c-3.7,1.8-7.6,3.6-11.7,5.1c-1.9,3-5.2,4-8,4.9
							c-2.7,0.8-5,1.5-6.2,3.7l-0.2,0.4l-0.3,0.3c-2,1.5-4.2,2.3-6.1,3c-3,1.1-5.4,2-7,5.5l-0.2,0.5l-0.5,0.3
							c-1.6,1-3.2,2.2-4.9,3.4c-6.9,4.9-14.7,10.5-23.4,10.5c-2.2,0-4.3-0.4-6.4-1l-0.2-0.1l-0.2-0.1c-4.6-2.9-9.2-6.2-10.2-12.1
							v-0.2v-0.2c0.2-6.7,2.8-11.5,7.3-13.1l1.2-0.4l0.9,0.9c0.3,0.3,0.4,0.5,0.6,0.8l0.2-0.4c2.2-3.7,6-5,9.3-6.2
							c3.9-1.4,6.3-2.4,7.1-5.4l0.2-0.9l0.8-0.4c0.9-0.4,1.9-0.5,2.6-0.6c0.4,0,0.9-0.1,1.1-0.2c0,0,0-0.1,0-0.2
							c0.1-5.7,3.5-9.9,6.5-13.6c1.5-1.8,2.8-3.5,3.8-5.3l0.4-0.7l0.8-0.2c-0.1-0.6-0.3-2.3,1.1-3.3c0-0.1,0.1-0.1,0.1-0.2
							c1-1.8,1.7-3.2,1.1-4.5c-4.7-1.6-10.2-2.6-15-3.5l-1.9-0.4c-2.1,0.2-4,0.4-5.7,0.4c-5.8,0-10.3-1.4-13.6-4.2l-0.7-0.6v-0.9
							c0.1-2.4-1.9-3.7-2.7-4.1l-4.1-2.2l4.4-1.4c0.5-0.1,1-0.2,1.5-0.2c2.2,0,4.3,1.4,6.4,2.7c0.8,0.5,1.6,1,2.2,1.4
							c1.6-0.6,3.4-0.9,5.6-0.9c1.4,0,2.8,0.1,4.1,0.2c0.8,0.1,1.7,0.1,2.4,0.2c4.2-1.8,8.6-3.2,12.8-4.5
							c8.9-2.8,17.3-5.4,24.1-11.4l0.8-0.7l1,0.3c0.3,0.1,0.5,0.1,0.8,0.1c0.8,0,1.3-0.4,2.2-1.1s2-1.5,3.5-1.7
							c3.5-2.6,7.4-4.8,11.2-6.9c7.9-4.4,15.4-8.5,18.8-16.4c-0.6-1.8-1.3-3.6-2-5.4c-1.3-3.4-2.7-6.9-3.2-10.7l-0.4-3.1l3,1.1
							c1.7,0.6,2.6,2,3.3,3.1c0.6,0.9,1,1.5,1.4,1.5c0.1,0,0.4,0,0.8-0.2c1.9-5.5,0.4-11.6-1.2-17.9c-1-4.1-2.1-8.3-2.2-12.5
							c-2.1-1.8-2.7-4.4-3.2-6.6c-0.6-2.9-1-3.9-2.7-4.2l-2.9-0.6l1.7-2.4c0.9-1.2-0.9-4.5-2.2-6.8c-0.4-0.7-0.8-1.5-1.2-2.2
							c-1.1-0.6-1.9-1.4-2.6-2.1c-1-1-1.6-1.6-2.5-1.6H622c-0.1,0.2-0.1,0.6-0.1,0.9c-0.2,1.4-0.5,4-3.3,4.8l-0.3,0.1H618
							c-3.5-0.1-3.9-3.4-4.1-4.8c0-0.3-0.1-0.6-0.1-0.8c-3.9-4.1-8.2-8.7-5.7-14.5l0.2-0.5l0.4-0.3c4.6-3.3,9-4.9,13.2-4.9
							c2.1,0,4.2,0.4,6.1,1.3l0.3,0.2l0.3,0.3c0.5,0.5,0.8,1.2,1.1,2c0.1,0.3,0.4,0.9,0.6,1.3c0-0.1,0.1-0.1,0.2-0.2l0.9-1.1
							l1.3,0.5c5.5,2.2,9.9,7,14.1,11.7c2,2.2,4.1,4.5,6.2,6.4l0.4,0.4l0.2,0.5c1.3,4.5,2.9,8.8,4.5,13.4
							c3.9,10.6,7.9,21.5,7.8,34.3c2.5,1.1,5.8,2.2,8.4,2.2c0.9,0,1.6-0.1,2.1-0.4l1-0.6l1,0.6c2.1,1.3,4.8,1.4,7.6,1.5
							c4.7,0.2,10.5,0.5,13.2,7.6l0.1,0.2v0.2c0.6,6.4-5.1,11.2-10.1,15.5c-2,1.7-3.9,3.3-5.2,4.8l-0.8,0.9l-1.1-0.2
							c-0.2,0-0.4-0.1-0.6-0.1c-1.5,0-2.8,1.6-4.3,3.3c-0.9,1.1-1.9,2.2-3.1,3.1c1.9,3.8,6.2,5.5,10.8,7.3c2.9,1.1,5.8,2.3,8.3,4
							c2.2,0.2,3.2,1.4,3.9,2.2c0.1,0.1,0.2,0.2,0.3,0.3c0.6-0.3,1.4-0.4,2.2-0.4c1.3,0,2.6,0.3,3.7,0.6c0.7,0.2,1.4,0.3,1.7,0.4
							h0.8l0.5,0.6c3.4,3.5,3.3,8,3.2,12v0.4l-0.2,0.4c-3.3,7.4-9.7,9.6-15.4,11.6c-4,1.4-7.7,2.7-10.3,5.5l-0.6,0.6h-1.2
							c-5.5,0-10.4,3.7-14.7,7.6c1.7,3.1,1,6,0.5,8.3c-0.4,1.5-0.7,3-0.4,4.5l0.1,0.4l-0.1,0.4c-1.2,4.3-1.2,8.9-1.3,13.3
							c0,6.7-0.1,13.5-4.1,20c0.7,3.2-0.8,4.8-2.5,6.5c-0.2,0.5-0.2,1.3-0.3,2.1c-0.2,1.8-0.4,3.9-1.8,5.5c-0.7,1.7-1.3,3.4-1.9,5.3
							c-2.3,6.4-4.6,13-9.3,17.6c-1.5,2.7-4.1,4.4-6.5,6c-1.3,0.9-2.6,1.7-3.6,2.7l-0.6,0.5h-1c-2,0-4.1,0.7-6.3,1.3
							C625.8,1610.4,623.1,1611.2,620.2,1611.2z M571.8,1530.5c0.7,0.2,1.4,0.2,2.1,0.2c3.6,0,6.7-2.1,10-4.2
							c3.2-2.1,6.6-4.3,10.5-4.7h0.1h0.1c1.4,0,2.2-0.7,3.4-1.9c1-1,2-2,3.6-2.6c10.7-5.4,26.2-13.2,38.4-19
							c2.6-3.2,2.5-7.3,2.4-11.6c-0.1-2.4-0.1-4.9,0.3-7.3v-0.2l0.1-0.2c-0.4-0.2-1.1-0.3-2.3-0.3c-3.2,2.5-7,4-10.7,5.5
							c-5.8,2.3-11.3,4.5-14.6,10.2l-0.1,0.2l-0.2,0.2c-2.2,2.1-4.8,3.3-7.3,4.5c-2.4,1.1-4.6,2.2-6.3,3.8l-0.2,0.2l-0.3,0.1
							c-9.3,4.4-16.8,12.7-24.2,20.7c-1.5,1.6-2.9,3.2-4.4,4.7L571.8,1530.5z"/>
						<path class="st1" d="M704.1,1408c-2.9,0-5.2-1.3-7.4-2.6c-2-1.2-3.9-2.3-6-2.3c-0.2,0-0.5,0-0.7,0l-0.8,0.1l-0.6-0.5
							c-2.7-2.3-6.9-3.7-11.2-3.7c-1.8,0-3.6,0.3-5.2,0.7l-5.9,1.8l3.8-4.8c1.3-1.7,2.8-3.3,4.3-5c5.2-5.7,10.5-11.6,10.3-19.5
							c-3.5-3.6-7.7-7.9-12.6-8.9l-3.2-0.6l2.1-2.5c2.7-3.2,6.5-3.5,9.8-3.5c0.5,0,1,0,1.5,0s1,0,1.5,0c1.8,0,3.7-0.1,5.6-0.6
							l0.7-0.2l0.7,0.3c0.9,0.5,2,0.8,3.1,1.1c2.7,0.8,6,1.7,7.7,5.7c6.3,0.8,8.8,5.8,10.7,9.9c0.8,1.7,1.6,3.3,2.5,4.5l0.3,0.4
							l0.1,0.5c0.2,2.1,0.9,4.1,1.6,6.2c1.4,4.3,3,9.3,0.7,15l-0.2,0.6l-0.5,0.3c-0.9,0.6-1.8,1.5-2.7,2.4c-1.7,1.7-3.7,3.7-6.5,4.4
							C706.4,1407.8,705.2,1408,704.1,1408L704.1,1408z"/>
						<path class="st1" d="M611.3,1428.3c-8.8,0-13.7-6.8-18.4-13.5c-1.8-2.5-3.6-5-5.5-7.1l-0.5-0.5l-0.1-0.7
							c-0.3-3.3-2.1-6-4.1-8.8c-2.7-3.9-5.7-8.2-5-14.9l0.3-2.6l2.4,1c2,0.8,3.9,2.3,5.7,3.6c2.8,2.1,5.7,4.2,8.7,4.3h1.4l0.4,1.3
							c0.7,2.3,2.7,3.2,5,4.3c2,0.9,4.2,2,5.5,4.1c7.7-1,14-3.9,17.8-8.3l3.5-4l-0.1,5.3c-0.1,4.6-2.1,8.2-3.9,11.7
							c-1.9,3.6-3.7,6.9-3.3,10.9l0.1,1.1l-0.9,0.6c-1.2,0.8-1.5,2.5-1.8,4.4c-0.5,2.6-1.1,5.9-4.7,7.3l-0.2,0.1h-0.2
							C612.8,1428.3,612,1428.3,611.3,1428.3L611.3,1428.3z"/>
						<path class="st1" d="M756.2,1527c-3-0.1-6.8-0.2-9.2-4l-0.1-0.2l-0.1-0.2c-0.3-0.9-1-2-1.8-3.1c-1.4-2-3.2-4.5-3.7-7.8
							l-0.1-0.4l0.1-0.4c0.5-2.3-0.4-4.5-1.6-7c-0.7-1.5-1.3-3-1.7-4.7c-1.4-0.7-2.4-1.8-2.9-3.3c-0.8-2.2-0.4-5.1,0.9-7.3
							c-0.1-5,0.1-9.9,0.4-14.7c0.6-10.8,1.2-20.9-3-31.2l-0.2-0.4v-0.4c0.1-3.6-1.1-7.1-2.3-10.5c-0.8-2.4-1.7-5-2.1-7.5l-0.4-2.8
							l2.7,0.7c18.5,4.4,29,13.7,30.6,26.9c2.7,5,3.6,10.8,4.4,17.8v0.1v0.1c-0.1,3-0.2,6.2-0.3,9.6c-0.4,10.2-0.9,21.8,0.3,30.4
							l0.1,0.6l-0.3,0.5c-0.9,1.8-1.4,4.1-1.8,6.6c-0.9,4.8-1.9,10.2-7.2,12.4l-0.4,0.1L756.2,1527z"/>
					</g>
				</g>
				<g>
					<g>
						<g>
							<path d="M1086.6,1699.5c-2.1,0-5-0.8-7.2-4.4c-1.2-1-2.1-2-2.9-3c-1.2-1.4-1.4-1.6-2.1-1.7l-0.9-0.1l-0.8-0.4
								c-3.8-2.1-6.7-5.2-9.4-8.2c-1.8-1.9-3.5-3.7-5.2-5l-1.9-1.4v-7.6l4-0.7c2.5-0.4,5-0.7,7.8-0.9c9.8-0.9,16.6-1.9,19.4-7.5
								c0-2.7,0.8-5.1,1.4-7c0.9-2.8,1.2-3.8,0.5-5.1l-0.8-1.5l0.3-1.6c0.3-1.5,0.7-2.9,1.1-4.1c0.8-2.2,0.9-2.8,0.5-3.4l-1.5-3.1
								l1.1-1.1c0.1-1.3,0.4-2.4,0.6-3.2c-0.1-0.1-0.2-0.3-0.3-0.4c-1.3-2.2-0.8-4.5-0.4-5.8l0,0v-1.4c0-2.1-0.6-4.7-2.3-5.5
								l-2.6-1.3v-2.9c-0.3-0.4-1.4-1.1-2.1-1.5c0,0,0,0-0.1,0c-0.5,0.1-1.1,0.1-1.7,0.1c-1.3,0-2.5-0.2-3.5-0.4
								c-0.7-0.1-1.3-0.2-1.8-0.2l0,0l-2.2,2.2l-3-1.4c-0.5-0.2-0.9-0.3-1.2-0.3c-1.1,0-2.5,0.9-4,1.8c-1.8,1.1-3.9,2.4-6.5,3
								c-2,1.8-4.5,3-6.7,4.1c-1.4,0.7-2.7,1.3-3.7,2c-3.9,3.1-7.9,4.7-11.8,4.7c-0.7,0-1.5-0.1-2.2-0.2l-0.7-0.1l-0.5-0.3
								c-0.2,0-0.8-0.1-1.2-0.1c-1.6,0-4.9-0.1-7.1-2.6c-3.5-1.2-7.2-3.8-8.9-6.3l-0.8-1.2v-8.6l6.2,1.9c0.5,0.2,1,0.2,1.5,0.2
								c1.6,0,3.3-0.9,5.2-1.9c2.6-1.4,5.8-3.1,9.9-3.1c0.4,0,0.9,0,1.3,0.1c1.8-0.9,3.5-1.3,5.1-1.7c1.7-0.4,3.3-0.8,4-1.6l0.5-0.5
								l0.7-0.3c1.4-0.7,2.8-1.1,4.2-1.5c1-0.3,2.7-0.8,3.4-1.3c-0.4-0.9-0.9-1.9-1.6-3.1c-1.3-2.4-3-5.4-3.6-9.1
								c-2.7-5.4-1.8-11.1-0.9-16.2c0.4-2.2,0.7-4.3,0.7-6.1v-0.2v-0.2c0.2-1.6,0.1-3.5,0.1-5.6c-0.1-5.4-0.2-11.5,3-16.6
								c0.5-0.9,1.1-1.7,1.6-2.3l-0.8-1l1.6-2.7c0.6-1,0.6-2,0.5-3.8c-0.1-1.5-0.1-3.3,0.3-5.2c-1.1-2.7-2.5-7.2-1.8-11.7
								c-0.2-0.1-0.4-0.2-0.7-0.3c-3.4-0.2-6.2-1.4-8.6-3.8l-1.4-1.4v-1.9c0-0.1-0.1-0.4-0.2-0.6c-1.5-5.5,1-8.1,3.4-9.3l1-0.5h1.1
								c3.1,0,5.6-1.4,6.6-3.8l0.5-1.2l0,0c-0.7-1.6-1.5-4.5,0.2-7.4c-0.2-1.9-0.3-3.7-0.5-5.6c-0.4-4.6-0.8-9.4-1.2-14.7l1.1-0.3
								l-1.1-1.1v-2c0-1.1-0.3-2.2-0.7-3.5c-0.5-1.7-1.1-3.7-1.1-6.3v-5.3l5.3,0.6c7.6,0.8,13.1,7.7,15.5,13.3l0.4,0.9v1
								c0,0.4,0.1,0.6,0.9,1.8c0.2,0.3,0.5,0.7,0.7,1l0.7,1l0.4,4.3c0.5,5.6,0.9,10.5,1,15.8c0,0,0.1,0,0.1-0.1
								c2.4-1.1,5.3-2.4,8.7-2.4c0.6,0,1.1,0,1.7,0.1c1.3-1,2.9-1.6,4.2-2.1c0.6-0.2,1.2-0.4,1.6-0.6l0.7-0.3l0.7-0.1
								c3.5-0.5,6.3-2,9.6-3.6c3.1-1.5,6.6-3.3,10.9-4.3l1.3-0.3l0.3,0.1c0.1-0.1,0.2-0.2,0.3-0.3c0.5-1.6,0.5-3.2,0.4-5.3
								c-0.1-2.3-0.2-4.8,0.6-7.7c-0.2-1.6-0.4-3-0.5-4.4s-0.3-2.8-0.5-4.3c-0.7-1.7-1-3.4-1.3-4.9c-0.2-0.9-0.5-2.7-0.8-3
								c0,0,0,0-0.1,0l-2.2-0.9l-0.5-1.9c-0.6-0.1-1.6-0.2-2.3-0.2c-2.1-0.1-4.5-0.3-6.6-1.5l-3.8-2.3l2-4c0-0.1,0.1-0.2,0.1-0.4
								c0.7-2.2,1.9-3.8,3.5-4.6c3.6-5.1,9.8-6.7,14.3-7.8l1.6-0.4l1.1,0.3c13.8,3.2,24.6,11.1,29,21.1l0.1,0.2l0.1,0.2
								c1.4,4.1,3.3,10.1,2.1,15.5c0,2.1,0.2,3.8,0.6,5.5c0.6,0,1.3,0.1,2,0.1c3.7,0.1,8.3,0.3,12,4c0.2,0.1,0.4,0.1,0.6,0.2
								c1.7,0.4,5.6,1.3,6.7,5.7l0.1,0.5c0.6,3,1.7,8.6-4.1,12.1l-1.5,0.9l-1.6-0.3c-0.3,0-0.9,0.3-1.4,0.6
								c-1.3,0.6-2.9,1.3-4.8,1.3c-0.9,0-2.1-0.2-3.3-0.8c-1.4,0.5-2.8,0.8-4.1,1c-1.4,0.3-2.4,0.5-3,0.8c-0.2,3.5-1,6.6-1.7,9.4
								c-0.6,2.4-1.1,4.6-1.3,6.7c1,3.3,0.3,6.3-0.3,8.7c-0.4,1.7-0.8,3.2-0.5,4.4l0.7,2.6l-1.9,1.9c-0.1,0.1-0.1,0.1-0.1,0.1
								c-0.1,0.3,0,1.6,0.1,2.3c0.1,0.7,0.2,1.6,0.2,2.5c0.3,3-0.5,5.4-1.3,7.4c-0.7,1.8-1,2.8-0.7,4l0.8,3.3l-1,0.7
								c0.2,1,0.2,2.4-0.3,3.8c-0.2,4.4-1.3,9.6-2.4,14.2c0,1.9-0.3,3.8-0.5,5.6c-0.4,2.9-0.8,5.7-0.2,7.9l0.1,0.6v0.6
								c0,2.1-0.4,4.2-0.9,6c0.1,0,0.1,0,0.2,0c3.4,0,7.1-1.2,10.8-2.7c1.2-1.2,3-2.1,5.7-2.1c0.4,0,0.8,0,1.2,0h0.1l0.9-1.8h3
								c2,0,3.9-0.6,6-1.3c1.6-0.5,3.3-1.1,5.2-1.4c1.9-1.5,3.9-1.9,5.3-1.9c2.8,0,5,1.4,6.8,2.5c0.6,0.4,1.6,1,2,1.1l1.8,0.3
								l1.1,1.4c0.4,0.5,1,1.1,1.7,1.8c2.8,2.8,8,8.1,4.3,14.6l-0.7,1.2l-1.2,0.6c-3.8,2-7.9,2.9-13.1,2.9l0,0c-2.6,0-5-0.2-7.5-0.4
								c-2.2-0.2-4.4-0.4-6.4-0.4c-3.6,0-6.1,0.6-8.2,2l-1.2,0.8h-1.4c-0.9,0-2,0.5-3.2,1c-1.8,0.8-4,1.7-6.6,1.7
								c-0.5,0-1,0-1.5-0.1l-2.3,0.7c-8.7,2.7-16.9,5.3-25.8,7l-1.6,0.3l-1.4-0.7c-0.2-0.1-0.4-0.2-0.5-0.2
								c-0.8-0.4-2.1-0.9-3.3-2.4c-0.4,0.3-0.9,0.6-1.4,0.8c0.1,0.1,0.1,0.1,0.2,0.2l1.4,1.4v0.8c0.8,0.7,2,1.8,2.7,3.5
								c3,6.1,5.9,13.1,3.6,21.1c0.5,3.3-0.2,6.4-0.8,9c-0.3,1.2-0.5,2.3-0.6,3.1c0.7,3.6-0.3,6.7-1,9.3c-0.5,1.8-1,3.3-0.8,4.6
								l0.2,1.3l-0.5,1.2c-0.3,0.7-0.1,2.3,0.1,3.8c0.4,2.7,0.8,6.2-0.9,9.6c0,8.7-4.9,15.6-8.9,21.2c-0.4,0.6-0.8,1.1-1.2,1.7
								c-1.5,2.3-3.8,3.5-6.3,3.5c-0.7,0-1.4-0.1-1.9-0.2l-0.6,1l-3.1-0.4c-0.4,0-1.3,0.3-2,0.6
								C1090,1698.8,1088.4,1699.5,1086.6,1699.5z M1077.3,1591.6c0.3,0,0.6,0,0.9,0c0.1,0,0.1,0,0.2,0c2.3-0.8,4.7-0.9,6.8-1
								c2.1-0.1,4.2-0.2,5.1-0.9l0.7-0.6l0.9-0.3c1-0.3,2-0.4,2.9-0.4l0.4-1.6h3.7c1.9,0,4.3-0.5,6.8-0.9c1.5-0.3,3-0.6,4.6-0.8
								c0.2-0.1,0.6-0.5,0.8-0.7c0.8-0.8,2-2,3.8-2.6c2.9-3.1,4-5.7,3.8-8.3c-0.2-1.1-0.1-2.1,0.1-2.9l-2.1-0.8l2.6-4.7
								c1-1.8,0.7-3.8,0-7.2c-0.7-3.4-1.5-7.5,0.1-11.9c0.1-0.3,0.1-0.7,0.2-1l-0.3-0.2v-2.6c0-5.7,0.2-10.5,0.3-15.3
								c0.1-3.8,0.2-7.5,0.3-11.4l-0.4,1.2c0,0.2,0,0.5,0,0.7c0,4-1.5,5.9-3.2,6.8c-3,4.3-7.8,4.6-11.1,4.8
								c-0.9,0.1-1.7,0.1-2.5,0.2c-1.1,1.4-3,2.7-6.2,2.7c-0.7,0-1.4-0.1-2-0.1c-0.5,0-1-0.1-1.3-0.1c-0.1,0-0.2,0-0.3,0l-2.7,2.7
								l-2.1-1.6c-1,0.5-2.4,1.1-4.1,1.1c-1,0-2-0.2-3-0.6c-0.4,0-0.8-0.1-1.2-0.1c-0.6,0-1.2,0.1-1.5,0.1c0.2,0.7,0.3,1.6,0.3,2.6
								v0.7l-0.2,0.6c-0.9,3.3-1.5,6.3-1.6,11.1c0.1,0.3,0.3,0.6,0.4,0.9c1.8-0.7,3.6-1.9,5.5-3.2c3.7-2.5,7.9-5.2,13.6-5.2
								c0.4,0,0.8,0,1.1,0l1.1,0.1l1,0.6c0.3,0.2,1.5,0.3,2.2,0.4c1.8,0.2,5,0.5,7.2,2.8c1.7,0.5,3.7,1.8,5.3,4.9l0.1,0.2l0.1,0.2
								c1.5,3.9,0.5,7.2-3.1,9.8c-0.1,0.1-0.3,0.2-0.4,0.3l-2.4,2.4l-0.8-0.4c-3.1,3.1-8.2,3.1-10.4,3.1c-0.5,0-1.1,0-1.6,0
								c-0.8,0.3-1.6,0.5-2.6,0.6l-0.6,0.6h-2c-0.8,0-2.1,0.2-3.3,0.3c-1.8,0.2-3.9,0.5-6,0.5c-1.2,0-2.3-0.1-3.4-0.3
								c-0.1,0.5-0.2,1-0.2,1.4c-0.1,0.8-0.2,1.7-0.5,2.6c0.6,3.3,0.3,6.5-0.1,9.3c-0.3,2.8-0.6,5.2,0.1,6.9l0.8,1.7l-0.6,1.8
								c-0.1,0.4-0.2,0.6-0.2,0.7L1077.3,1591.6C1077.1,1591.6,1077.2,1591.6,1077.3,1591.6z M1078,1514.1c0.1,0.8,0.4,1.6,0.7,2.2
								c0.6-0.1,1.3-0.4,2.2-0.8c1.5-0.6,3.3-1.4,5.5-1.6c2.3-1.3,5.1-2.7,7.9-3.6c2.1-3.1,5.5-4.1,7.6-4.7c0.7-0.2,1.3-0.4,1.8-0.6
								l3.3-1.3l2.1,2.6c0.3,0.1,1,0.3,1.5,0.3c2.4,0.4,7.3,1.4,8.7,7.1l0.3,1.4c0-0.9,0-1.7,0-2.6v-0.7l0.2-0.7
								c1.4-4.5,1.7-11.2,1.1-18.8l-0.5-3c-0.9,0.2-1.9,0.6-2.9,0.9c-1.3,0.4-2.6,0.9-3.9,1.2c-0.5,0.2-1.1,0.3-1.7,0.3
								c-0.9,0.5-1.9,0.7-2.9,0.7c-0.6,0-1.2-0.1-1.7-0.2l-0.7,0.3c-2.1,0.8-4,1.1-5.5,1.2c-1.2,0.1-2.1,0.2-3,0.6l-0.9,0.3h-0.8
								c-0.3,0.1-0.8,0.5-1.2,0.7c-1.3,0.9-3.3,2.3-6,2.4c-1.3,0.6-2.4,1.1-3.5,1.4c-0.9,0.7-1.9,1.1-3,1.3
								c-0.9,0.7-1.8,1.3-2.6,1.8c-0.5,0.3-1.1,0.7-1.5,1c0.8,3.5,0,7.2-0.6,10.1C1078.1,1513.6,1078,1513.9,1078,1514.1z"/>
						</g>
						<g>
							<path d="M911.2,1519.6c-4,0-7.6-1.4-10.7-4.1l-0.1-0.1c-0.3-0.2-1.1-0.4-1.6-0.6c-2.4-0.7-8.6-2.7-7.8-10.2l0.3-3.1l3-0.9
								c8.2-2.6,15.4-3.9,23.1-5.2c1.6-0.3,3.2-0.6,4.8-0.9c6-3.2,12.4-4.7,18.5-6.1c3.1-0.7,6.3-1.4,9.4-2.4
								c6.3-3.3,12.9-4.2,18.7-4.9c6.6-0.9,12.3-1.6,16.8-5.4l1-0.8l1.3-0.2c0.9-0.1,1.7-0.5,2.5-1c0,0-0.1,0-0.1-0.1
								c-1.4-0.9-3-2-4.2-3.6l-0.4-0.5l-0.2-0.6c-0.4-1.1-1.4-2.2-2.5-3.4c-2-2.2-4.7-5.2-5.1-9.9c-1.1-2.4-1.8-4.6-2.6-6.7
								c-0.7-2-1.3-4-2.3-6c-2.7-3.4-6-7.5-6.8-12.9l-0.8-5.5h5.5c20.7,0,36.7,8.5,42.8,22.8c2.4,4.2,1.3,8.7,0.4,12.3
								c-0.1,0.5-0.3,1-0.4,1.5c0.1-0.1,0.2-0.2,0.2-0.2c2.2-2.3,5.2-5.4,9.9-5.4c0.3,0,0.5,0,0.8,0c1.2-0.4,2.5-0.6,4.1-0.6
								c0.8,0,1.6,0.1,2.2,0.1c0.4,0,0.8,0.1,1.1,0.1h2l1.1,1.1l0.9-0.6l2.5,1.2c1.1,0.6,2.5,1.2,3.8,1.8c1.4,0.6,2.8,1.2,4.1,1.9
								l0.3,0.2l0.9-0.5l0.6,1.2l0.8,0.4v1.2l0.7,1.5c2.1,4.3,1.7,9.2-1.1,13l-0.4,0.5l-0.5,0.4c-1.7,1.3-3.5,1.9-5,2.4
								c-1.3,0.4-2.4,0.8-3,1.4l-1.6,1.6l-2.2-0.2c-0.7-0.1-1.5-0.1-2.3-0.1c-3.9,0-8.1,0.6-12.5,1.3c-2.9,0.4-5.8,0.9-8.8,1.1
								c-3.8,2.6-8,2.6-11.5,2.7c-2.3,0-4.5,0.1-6.3,0.8l-1.4,0.5c0,0-1.4-0.3-1.5-0.3c-0.6,0-2.1,1-2.9,1.7c-1.9,1.4-4.2,3-7.2,3
								c-0.1,0-0.3,0-0.4,0c-1.2,0.9-2.7,1.4-4.3,1.4c-0.9,0-1.6-0.1-2.3-0.2c-0.1,0-0.2,0-0.2,0l-0.3,0.2c-1.9,1.3-3.9,2.1-5.6,2.8
								c-1.9,0.8-3.6,1.5-4.3,2.3l-3.3,4.2l-2.2-2.2c-0.7,0.3-1.6,0.5-2.6,0.5h-0.1h-0.1c-5.4,1.6-11.1,3.3-14.9,6.6l-1,0.9
								l-1.3,0.2c-0.8,0.1-1.4,0.5-2.2,0.9c-1.4,0.7-3.3,1.7-6,1.7c-1.3,0.6-2.5,0.9-3.6,1.2c-0.6,0.1-1.4,0.4-1.7,0.5l-0.9,1.2
								l-1.5,0.5c-0.5,0.1-0.9,0.3-1.4,0.4C918.2,1518.5,914.8,1519.6,911.2,1519.6z"/>
						</g>
						<g>
							<path d="M944.8,1550.4c0-0.7,0.1-1.2,0.2-1.8c-2.1-0.3-6.7-1.2-7.5-6.7l-0.2-1.1l0.3-0.9c0-0.3-0.1-0.7-0.1-1.1
								c-0.2-1.4-0.5-3.3,0.2-5.2l0.7-2.1l2.1-0.8c1.1-0.4,2.2-0.6,3.3-0.6c1.6,0,2.9,0.4,3.8,0.7c0.1,0,0.2,0.1,0.3,0.1l0,0
								l0.8-0.2c2.3-0.7,4.6-1.6,7-2.6c3.3-1.3,6.6-2.6,10.3-3.5c4.5-2.7,9.1-4.8,13.3-6.6c2.3-1,4.5-1.9,6.4-2.9
								c2.3-1.4,4.3-3.4,6.4-5.5c3.1-5.2,9.1-7.8,17.6-7.8c4,0,7.9,0.6,11.5,1.2l2,0.3l2.7,4.1l0.2,0.6c0.9,2.7,0,4.6-0.7,5.7
								c0,0.5-0.1,1-0.3,1.5v0.1c-1,5-5.6,5.5-7.1,5.7c-0.2,0-0.3,0-0.5,0.1l-2.8,4.7l-2.1-2.1c-2,1-4.1,1-5.3,1c-0.1,0-0.2,0-0.3,0
								l-0.7,1.7l-2.6,0.6c-5.9,1.3-10.9,3.2-16.6,5.3c-1.8,0.7-3.7,1.4-5.7,2.1c-0.6,0.7-1.9,2-4,2.2c-1.5,1.2-3.2,1.7-4.1,2
								c-0.5,0.2-1.3,0.4-1.5,0.6c-6.8,6.8-13.2,11.7-20,15.5l-7.1,3.9L944.8,1550.4L944.8,1550.4z"/>
						</g>
						<g>
							<path d="M937.5,1593.9c0-1.7,0.5-3.1,0.9-4.3c0.1-0.4,0.3-1,0.4-1.3v-2.1c-0.3-0.4-0.5-0.8-0.8-1.2c-0.2-0.1-0.3-0.1-0.5-0.2
								c-1.8-0.6-6.7-2.3-6.7-8.1v-0.9l0.2-0.6c-0.1-0.3-0.4-0.8-0.6-1.2c-0.7-1.2-1.5-2.7-1.5-4.6v-2.4l12.1-9.1
								c0,0,2.1,6.3,2.1,6.4c0.1,0,0.4,0,0.7,0c0.7,0,1.6-0.1,2.5-0.2c1.1-0.1,2.3-0.2,3.6-0.2c0.4,0,0.7,0,1,0
								c0.4-0.2,1.1-0.7,1.6-1.2c1.4-1.1,3.4-2.6,6-3c2.5-2.1,5.5-3.3,8.2-4.2c2.8-1,5.1-1.9,6.5-3.7l1-1.3l1.6-0.4
								c0.4-0.1,1.1-0.5,1.7-0.8c1.3-0.7,2.9-1.6,4.8-1.8c1.9-1.8,4-2.8,5.9-3.8c1.5-0.8,2.9-1.5,4-2.4l0.9-0.8l1-0.2
								c0.2-0.2,0.7-0.6,1-0.9c0.9-0.9,2.3-2.2,4.2-2.9c0.5-0.8,1.1-1.4,1.4-1.7l0.1-0.1l1.8-3.6l4,1.5c1.3,0.5,2.9,0.7,4.5,0.9
								c2.9,0.4,6.4,0.9,9,3.3c3.4,0.7,6,2.9,7.1,6.1l0.3,0.7v0.8c0,8.6-7.7,11.9-10.2,13l-1.6,0.7l-1.6-0.5c0,0,0,0-0.1,0
								c-0.7,0-2.1,0.6-3.3,1.2c-2,0.9-4.4,2-7.2,2.1c-3.6,2.4-7.5,3.6-11.3,4.8c-2.5,0.8-4.9,1.6-7,2.6l-2.5,1.2l-0.8-0.5
								c-0.8,1.1-1.9,2-3.2,2.5c-0.7,0.3-1.4,0.4-2.2,0.4c-0.4,0-0.8,0-1.2-0.1c-2.4,2.3-5.1,3.9-7.8,5.5c-3.2,2-6.3,3.8-8.3,6.6
								l-1.2,1.7l-2.1,0.3c-0.1,0-0.2,0-0.2,0c-0.2,0.1-0.8,1-1.1,1.5c-1,1.6-2.6,4-5.5,5.6c-0.2,0.2-0.3,0.4-0.5,0.7
								c-1,1.4-2.2,3.1-4.1,4.3l-7.4,5v-9.1L937.5,1593.9L937.5,1593.9z"/>
						</g>
						<g>
							<path d="M950.7,1689.6c-1.3,0-2.6-0.3-3.8-0.9l-0.4-0.2l-0.3-0.3c-0.3-0.3-1-0.5-1.6-0.8c-1.8-0.8-4.8-2.1-6.3-5.4
								c-5.7-4-7-8.3-6.9-11.7c-2.7-8.2-5-15.8-5.9-24.3c-2.1-2.1-2.4-4.6-2.5-6c0-0.2-0.1-0.5-0.1-0.7l-1.3-1.3v-2
								c0-4.6,0.1-9.8,1.6-13.4l0.1-0.3l0.2-0.3c0.6-1.1,0.8-2.2,1-4.2c0.2-2.2,0.5-4.8,1.8-7.6c-0.4-4.1,2.4-7.5,4.1-9.7
								c0.3-0.3,0.5-0.7,0.8-1l0.9-1.2c0.8-2.1,2.5-4.4,6-4.4h4.8v4.8c0,1.4-0.4,2.8-0.7,4.2v0.1c5.8-1.6,11.5-4.3,17.8-8.3l1.2-0.7
								h1.4c0.4,0,1.5-0.7,2.2-1.1c1.3-0.8,2.9-1.8,4.9-2.3c6.1-2.6,11.2-6.6,16.5-10.8c3.9-3.1,8-6.3,12.5-8.9l2.1-1.2l2.2,0.9
								c1.9,0.8,4,1.1,6.2,1.5c4.7,0.8,10.9,1.8,14.4,8.1c1.9,1,3.2,2.9,4,5.7c0,0.1,0.1,0.2,0.1,0.3l0.8,0.8l0.1,1.7
								c0.5,5.9-2.1,10.4-4.5,14.4c-0.9,1.5-1.8,3-2.4,4.5h2v15.6l-7.4-5.5c-0.3,0.1-0.9,0.3-1.2,0.4s-0.6,0.2-0.9,0.3
								c-2.7,3.2-4.2,7.8-5.7,12.2l-1,2.9l-1.8,0.9c-0.6,0.3-0.8,0.7-0.9,1.2c1.6,5.1-2,8.7-3.6,10.3c-0.5,0.5-0.9,0.9-1.2,1.2
								l-0.3,0.4l-0.4,0.3c-3.3,2.9-7.3,3.7-10.8,4.4c-2.9,0.6-5.3,1.1-6.5,2.5l-2.4,2.8l-3.1-1.5c-0.2,0.1-0.5,0.2-0.8,0.2
								c-0.4,0.1-0.8,0.3-1.3,0.4c-2.5,3-6.1,3.9-8.7,4.5c-2,0.5-3,0.8-3.6,1.3c0.8,2.9,0.9,5.9,1.1,8.5c0.1,1.4,0.1,2.8,0.3,3.7
								l0.3,1.5l-0.7,1.4c-0.5,1-0.9,2.1-1.3,3.2c-0.5,1.3-1,2.7-1.7,4.1l-0.6,1.1l-1.4,0.9C956.4,1687.9,953.9,1689.6,950.7,1689.6
								z M948.9,1627c0.3,1.4,0.5,2.7,0.6,4c0.2,2,0.4,3.2,0.9,3.6l1.3,0.9l0.5,1.5c0,0.1,0.1,0.2,0.1,0.3c0.7,0,1.8-0.2,2.9-0.4
								c1.6-0.3,3.4-0.7,5.4-0.7c0.1,0,0.1,0,0.2,0c1.6-1.3,3.8-2.4,6.5-2.4c0.3,0,0.7,0,1,0.1c2.6-0.7,5.4-1.9,8.2-3.1
								c1.4-0.6,2.9-1.2,4.4-1.8c0.7-0.6,1.3-1.5,2-2.4c0.6-0.9,1.4-1.9,2.4-2.9c-1.1-2.8-0.9-5.5-0.7-7.8c0.1-1.4,0.2-2.7,0-4.1
								l-0.3-2.3l1.1-1.1c0-0.3-0.1-0.7-0.1-1.1c-0.8,0.8-1.8,1.3-2.9,1.5c-0.4,0.3-0.9,0.7-1.4,1c0,0-0.1,0-0.1,0.1l-0.4,0.4
								c-3.7,3.7-8.6,8.6-15.9,9.3c-3.5,2.2-7.2,2.5-9.7,2.5c-1.2,0-2.4-0.1-3.6-0.1c-1.1-0.1-2.1-0.1-3-0.1c-0.2,0-0.5,0-0.7,0
								C948.2,1623,948.9,1624.9,948.9,1627z"/>
						</g>
						<g>
							<path d="M1176.1,1670.4c-0.1,0-0.3,0-0.4,0c-2.8,0-5.4-0.7-7.7-2.1l-0.7-0.4l-0.5-0.7c-0.7-0.8-1.6-1.7-2.6-2.6
								c-2.1-1.9-4.4-4-5.7-6.9c-2-2.1-3.6-4.4-5.2-6.7c-2.4-3.3-4.6-6.5-7.5-8.6l-0.7-0.5l-0.5-0.7c-0.7-1-1.7-2.1-2.8-3.2
								c-2.2-2.2-4.7-4.8-5.8-8.6l-0.5-1.8l0.8-1.7c1.3-2.6,3.9-4.2,6.6-4.2c0.8,0,1.8,0.1,2.9,0.6c0.2,0,0.5-0.1,0.8-0.1
								c1.3,0,2.6,0.5,3.6,1.3c0.4-0.1,0.9-0.2,1.4-0.2c1.2,0,2.4,0.4,3.5,1.1c3,0.2,5.5,0.9,7.5,2.1c0.6,0,1.2,0.2,1.5,0.3h2.4
								l1.3,2.2c0.5,0.3,2,0.5,3,0.7c1.4,0.2,3,0.5,4.5,1.1l0.7,0.3l0.6,0.4c0.7,0.6,1.7,1.1,2.7,1.6c2.2,1.1,5,2.6,6.7,5.6
								c2.3,1.9,3,4.7,3.4,6.3c0.1,0.4,0.2,1,0.3,1.3l0.8,0.6l0.5,1.3c2.6,7-0.2,15-3.9,19.4l-0.6,0.8l-10.3,5.1v-3.1L1176.1,1670.4
								L1176.1,1670.4z"/>
						</g>
						<g>
							<path d="M1037.7,1687c-0.1,0-0.2,0-0.2,0c-1.2-0.1-4.3-0.4-5.9-3.5l-0.5-1v-1.1c0-0.8,0.1-1.7,0.1-2.5
								c0.1-1.2,0.3-3.2-0.2-3.6l-2.6-2.1l1.1-3.2c1.5-4.5,3.3-9.7,5.9-15c0.3-2.6,1.3-4.7,2.2-6.2c1.1-2,1-2.1,0.7-2.7l-2.1-4.3
								l2.5-1.3c-0.1-1.3,0-3,1.1-4.7l2.7-4l4,2.7c1,0.6,1.7,1.5,2.5,2.2c0.2,0.2,0.3,0.3,0.5,0.5c0.9-0.8,1.8-1.3,2.4-1.7
								c0.3-0.2,0.7-0.4,0.8-0.5l8.2-8.2l-0.1,11.7c0,4.4,0,9-1.3,13.8c-0.6,4.9-1.8,11-2.9,15.7c0.8,6-2.6,10.3-5.4,13.8
								c-0.6,0.8-1.2,1.5-1.7,2.3l-0.2,0.3l-0.3,0.3c-1.5,1.5-3.4,2.3-5.6,2.3c-0.4,0-0.9,0-1.3-0.1c-0.2,0-0.4,0-0.6,0l-2,1
								L1037.7,1687z"/>
						</g>
					</g>
				</g>
				<g>
					<path d="M516.3,1082c6.6-3.3,6.6-12.1,14.3-15.4c2.2-11,5.5-23.1-3.3-31.8c-14.3-7.7-31.8-2.2-49.4-2.2
						c-13.2,7.7-24.2,18.7-35.1,27.5c-4.4-1.1-5.5,3.3-8.8,5.5c-15.4,4.4-25.3,25.3-42.8,25.3c-2.2,3.3-4.4,3.3-7.7,2.2
						c-4.4,3.3-11,3.3-15.4,8.8c-12.1,1.1-23.1,11-35.1,5.5c-3.3-4.4,3.3-4.4,4.4-7.7c17.6-11,39.5-20.9,53.8-38.4
						c17.6-6.6,29.7-25.3,47.2-34c8.8-11,24.2-14.3,30.8-25.3c9.9-6.6,16.5-14.3,27.5-18.7c1.1-5.5,7.7-6.6,11-9.9
						c9.9-6.6,8.8-17.6,8.8-28.6c-9.9-4.4-16.5-11-28.6-13.2c-8.8,3.3-16.5-5.5-23.1-11c-4.4,0-9.9-2.2-12.1,2.2
						c-16.5,3.3-23.1,24.2-38.4,29.7c-14.3,8.8-29.7,17.6-45,24.2c-14.3,12.1-35.1,13.2-49.4,26.4c-12.1,2.2-25.3,11-38.4,4.4
						c-3.3-3.3-4.4-7.7-5.5-12.1c13.2-26.4,40.6-37.3,58.2-60.4c8.8-4.4,16.5-9.9,24.2-15.4c8.8-7.7,16.5-13.2,26.4-20.9
						c4.4-2.2,5.5-5.5,11-6.6c20.9-19.8,43.9-34,67-50.5c3.3-5.5,3.3-14.3,1.1-20.9c-5.5-8.8-15.4-17.6-25.3-17.6
						c-4.4-4.4-7.7,2.2-13.2-1.1l-5.5-1.1c-5.5,4.4-11-4.4-16.5,2.2c-8.8-1.1-17.6,2.2-25.3,5.5c0,11-4.4,20.9-8.8,30.7
						c-4.4,7.7-14.3,14.3-14.3,24.2c-13.2,20.9-26.4,40.6-42.8,58.2c-6.6,13.2-19.8,22-26.4,35.1c-6.6,0-13.2,7.7-15.4,13.2
						c-19.8,20.9,6.6,41.7,1.1,65.9c0,2.2,4.4,4.4,0,6.6c3.3,5.5-1.1,13.2,4.4,17.6c12.1,15.4,27.5-1.1,40.6-3.3
						c17.6-4.4,19.8-25.3,31.8-36.2c7.7-7.7,15.4-17.6,25.3-23.1c9.9-9.9,23.1-13.2,30.8-26.4L424,959c1.1,2.2,3.3,4.4,4.4,6.6
						c-3.3,3.3-3.3,7.7-7.7,8.8c-5.5,9.9-15.4,16.5-20.9,25.3c-12.1,4.4-6.6,19.8-18.7,23.1c1.1,7.7-7.7,6.6-8.8,13.2
						c0,5.5-4.4,9.9-5.5,14.3c-1.1,3.3-3.3,0-3.3,0c-8.8,5.5-15.4,19.8-25.3,20.9c-4.4,3.3-5.5,8.8-5.5,14.3
						c-5.5,3.3-11,6.6-13.2,13.2c-3.3,2.2-4.4-2.2-7.7-3.3l-2.2,3.3c-6.6-1.1-7.7,7.7-13.2,7.7c-1.1,0-1.1-1.1-1.1-2.2
						c-7.7,1.1-7.7,8.8-13.2,13.2c-1.1,6.6-7.7,13.2-2.2,18.7c6.6,9.9,17.6,8.8,26.4,11c8.8-6.6,19.8-1.1,28.6-6.6
						c11-7.7,22-12.1,31.8-22c4.4-1.1,7.7-1.1,11-3.3c6.6,0,14.3-2.2,17.6,6.6c-1.1,11,4.4,23.1,1.1,35.1c0,7.7,4.4,15.4,0,22
						c2.2,5.5-1.1,11,0,17.6c0,1.1-2.2,2.2-2.2,4.4c-6.6,5.5,6.6,7.7,4.4,14.3c-3.3,8.8,0,17.6,0,28.6c-1.1,4.4-5.5,1.1-7.7,1.1
						c-4.4,2.2-6.6-4.4-9.9,0c-11,2.2-17.6-13.2-28.6-7.7c-4.4,1.1-5.5-5.5-8.8-4.4c-1.1,5.5,7.7,11,7.7,16.5
						c6.6-1.1,2.2,7.7,8.8,6.6c4.4,6.6,13.2,8.8,19.8,11c1.1,6.6,5.5,0,8.8,3.3c2.2,4.4-2.2,7.7-2.2,12.1c2.2,2.2,5.5,3.3,4.4,6.6
						c3.3,1.1,5.5,0,7.7-1.1c6.6,5.5,12.1-3.3,15.4-7.7c7.7-3.3,4.4-13.2,9.9-18.7c4.4-17.6,3.3-36.2,6.6-52.7
						c-3.3-6.6,2.2-12.1-1.1-17.6c1.1-15.4,6.6-36.2-1.1-49.4v1.1c-7.7,3.3-7.7-6.6-12.1-8.8c-5.5-12.1,9.9-6.6,13.2-12.1l-2.2-1.1
						c3.3-8.8-3.3-17.6-8.8-23.1c-3.3,1.1-6.6-2.2-8.8-5.5c9.9-3.3,16.5-9.9,24.2-17.6c11-5.5,20.9-14.3,31.8-17.6
						c5.5-3.3,14.3,0,18.7-1.1l1.1,1.1c0,2.2-2.2,2.2-3.3,3.3l5.5,5.5c3.3,6.6-5.5,4.4-5.5,11c-8.8,4.4-14.3,14.3-24.2,16.5
						c-6.6,7.7-15.4,11-19.8,18.7v1.1c12.1-6.6,27.5,1.1,39.5-6.6c3.3-2.2,5.5-6.6,9.9-5.5C496.5,1092.9,509.7,1092.9,516.3,1082z"
						/>
					<path d="M206.4,853.1c-3.3,0-3.3-4.4-6.6-3.3c-3.3,1.1-7.7,3.3-12.1,2.2c-15.4,3.3-27.5,14.3-43.9,15.4
						c-22,8.8-42.8,15.4-65.9,17.6c-4.4,3.3-11,1.1-14.3,4.4c-1.1,1.1,1.1,2.2,2.2,3.3c4.4,1.1,8.8,3.3,12.1,7.7
						c7.7,6.6,16.5,14.3,24.2,18.7c8.8-1.1,12.1,7.7,19.8,3.3c4.4,4.4,7.7-2.2,12.1-1.1c5.5-3.3,13.2-2.2,19.8-5.5
						c3.3,2.2,8.8-2.2,13.2,0c-1.1,12.1-7.7,22-15.4,31.8c-2.2,9.9-9.9,16.5-13.2,25.3c2.2,11-9.9,16.5-12.1,25.3
						c-3.3,12.1-17.6,18.7-16.5,30.7c3.3,2.2,2.2,6.6,1.1,9.9c4.4,4.4,3.3,12.1,11,15.4c8.8,2.2,19.8-1.1,25.3,7.7
						c4.4,4.4,3.3,9.9,7.7,13.2c3.3,6.6-1.1,15.4-5.5,20.9c-5.5,3.3-8.8,11-12.1,17.6c-13.2,12.1-20.9,27.5-30.8,41.7l-5.5,3.3
						c-11,14.3-26.4,28.5-37.3,43.9c0,7.7-6.6,14.3-5.5,22c-3.3,5.5,4.4,9.9,5.5,14.3c9.9,5.5,11,16.5,14.3,25.3
						c6.6,8.8,15.4,14.3,26.4,15.4c8.8,4.4,19.8,6.6,28.5,2.2c12.1,2.2,25.3-3.3,37.3-7.7c12.1-5.5,16.5-16.5,25.3-25.3
						c3.3-8.8-1.1-20.9,3.3-27.5c2.2-28.5,3.3-56,3.3-86.8l-2.2-2.2c-2.2-12.1,1.1-26.4-5.5-37.3c-4.4-14.3,5.5-25.3,9.9-38.4
						c5.5-7.7,8.8-16.5,13.2-25.3c-3.3-7.7,7.7-9.9,5.5-18.7c-5.5,3.3-6.6,11-14.3,14.3c-3.3,7.7-9.9,15.4-16.5,20.9
						c-5.5,2.2-9.9-1.1-14.3-4.4c-3.3-12.1-17.6-15.4-18.7-27.5c0-4.4,4.4-4.4,6.6-6.6c7.7-12.1,16.5-22,24.2-34
						c7.7-12.1,15.4-26.4,26.4-37.3c-2.2-7.7,8.8-12.1,7.7-19.8c6.6-7.7,11-19.8,11-29.6C232.8,871.7,220.7,858.6,206.4,853.1z
						 M168,1129.8c0,22,3.3,41.7-1.1,62.6c2.2,9.9-5.5,17.6-7.7,26.4c-5.5,4.4-12.1,7.7-17.6,14.3c-2.2-2.2-6.6-1.1-9.9-2.2
						c-6.6-9.9-9.9-17.6-6.6-30.7c7.7-17.6,17.6-36.2,27.5-53.8C161.4,1144.1,159.2,1132,168,1129.8z"/>
					<path d="M581.1,1190.7c-6.6,1.1-7.7-7.7-14.3-7.7c-8.8,2.2-12.1-7.7-19.8-8.8c-2.2-6.6-8.8-3.3-13.2-4.4c0,2.2-1.1,4.4-3.3,4.4
						c-4.4,11-4.4,24.2-16.5,29.7c-4.4,7.7-15.4,9.9-20.9,16.5c9.9,3.3,20.9,0,29.7,6.6c13.2-1.1,22,9.9,35.1,5.5
						c11-2.2,19.8-11,24.2-19.8C583.3,1203.9,588.8,1197.3,581.1,1190.7z"/>
					<path d="M309.8,1187.4c-3.3-2.2-8.8-1.1-13.2-1.1c-6.6-5.5-11-12.1-18.7-15.4c-4.4,4.4-3.3,12.1-2.2,18.7
						c-3.3,5.5-3.3,9.9-5.5,15.4c-7.7,2.2-4.4,12.1-9.9,15.4c-1.1,9.9-6.6,16.5-2.2,26.4c2.2,12.1,14.3,14.3,23.1,17.6
						c7.7-1.1,17.6,3.3,24.2,1.1c3.3-3.3,9.9-6.6,8.8-11c3.3-6.6-2.2-13.2,2.2-19.8c-2.2-12.1,5.5-23.1,0-34
						c3.3-5.5,6.6-9.9,7.7-15.4C319.7,1181.9,314.2,1187.4,309.8,1187.4z"/>
				</g>
				<g>
					<path d="M691.8,1188.9c-1.2,0-2.3-0.2-3.4-0.7c-0.9,0.2-1.8,0.3-2.8,0.3c-1.8,0-3.5-0.4-4.9-0.7c-1.2-0.3-2.3-0.5-3.2-0.5
						c-0.6,0-1,0.1-1.4,0.3l-1.3,0.7l-1.3-0.7c-3.4-1.7-6.9-1.7-10.7-1.7h-1.2l-0.8-0.9c-0.4-0.4-1.9-0.5-3-0.6
						c-1.4-0.1-2.9-0.2-4.2-0.9l-3.5-1.8l2.7-2.8c1.5-1.6,3.7-1.8,5.8-2c2.5-0.2,4-0.5,5-1.8l0.9-1.2h1.5c4.9,0,9.1-2.3,13.6-4.8
						c2-1.1,4-2.2,6.2-3.2l0.4-0.2l0.4-0.1c10.7-1.6,17.6-9,24.9-16.9c1.5-1.6,3-3.2,4.5-4.7c4.8-4.9,6-12.1,7.2-19.8
						c0.6-3.6,1.1-7.2,2.1-10.6l0.1-0.2l0.1-0.2c0.6-1.3,0.7-3.5,0.8-5.6c0.1-3.1,0.3-6.6,2-9.4c0.3-2.8,0.1-5.9-0.2-9.2
						c-0.4-5.4-0.7-11,0.9-16.2c-0.7-2.3-0.1-4.3,0.4-5.8c0.6-1.9,0.7-2.4-0.4-3.4l-0.2-0.2l-0.2-0.2c-1.9-2.8-0.4-5.6,0.4-7.1
						c0.1-0.1,0.1-0.2,0.2-0.3l-0.5-0.3l-0.4-1.1c-1.2-3.4-4.1-4-9.4-4c-0.5,0-2.4,0-2.9,0c-1.4,0-3,0-4.5-0.3h-0.2l-0.2-0.1
						c-0.7-0.2-1.3-0.3-2-0.3c-1.4,0-2.7,0.4-4.2,0.9c-1.7,0.5-3.4,1.1-5.3,1.1c-0.6,0-1.3-0.1-1.9-0.2c-3.7,2.7-7.4,4-10.9,5.3
						c-1.2,0.4-2.4,0.9-3.6,1.4l-0.5,0.2h-0.6c-3.3,0-6.4,1.4-9.8,2.9c-2.9,1.3-5.9,2.6-9.3,3.1c-8.5,4.3-18.6,6.6-28.4,6.6
						c-4.5,0-9-0.5-13.1-1.5l-0.2-0.1c-0.4,0.1-0.8,0.1-1.1,0.1h-0.4l-0.4-0.1c-2.3-0.7-4.9-0.8-7.6-1c-4.8-0.3-10.2-0.7-14.6-3.9
						c-2.7,0-5.5-0.3-7.2-2.9c0,0,0,0-0.1,0c-0.4,0.1-0.9,0.2-1.5,0.2c-0.9,0-1.7-0.2-2.5-0.6l-1.6-0.8v-6.7h2.9
						c2.9,0,5.6-1.1,8.4-2.3c2.8-1.2,5.8-2.5,9.3-2.7c2-2,4.4-2.3,6.5-2.3c0.3,0,0.7,0,1,0s0.6,0,0.9,0c1,0,1.9-0.1,2.6-0.5l1.1-0.6
						l1.1,0.4c0.4,0.1,0.8,0.2,1.3,0.2c1.4,0,2.8-0.7,4.5-1.6c2-1,4.3-2.2,7.1-2.2c0.6,0,1.1,0,1.7,0.1c1.9-1.1,4-1.7,6.1-2.2
						c2.6-0.6,4.8-1.2,6.4-2.9l1.4-1.4l1.8,0.7c0.3,0.1,0.7,0.2,1,0.2c1,0,2.1-0.6,3.4-1.4c1.7-1,3.8-2.2,6.5-2.2
						c0.6,0,1.1,0.1,1.7,0.2l0.3,0.1l0.3,0.1c0.6,0.3,1.2,0.4,1.8,0.4c1.7,0,3.6-1,5.5-2.1c2.4-1.4,5.2-2.9,8.5-2.9
						c0.5,0,1.1,0,1.6,0.1c1.4-0.7,3-1,4.6-1.3c2.6-0.5,5-1,6.8-2.8l0.6-0.6l0.8-0.2c0.8-0.2,1.6-0.3,2.6-0.3c1.2,0,2.3,0.2,3.4,0.3
						c0.9,0.1,1.7,0.3,2.5,0.3c1,0,1.8-0.2,2.5-0.8l0.2-0.2l0.2-0.1c3.4-1.7,6.9-2.3,10.3-2.8c3.1-0.5,6-0.9,8.5-2.2
						c3.5-2.2,3.1-7.6,2-11.1c-1.5-1.4-2.4-3.2-3.2-4.9c-0.6-1.2-1.6-3.1-2.2-3.1c-0.2,0-0.6,0.1-1.5,0.5c-4.6,3.8-10.4,5.9-16,8
						c-2.3,0.8-4.5,1.6-6.5,2.5l-3.3,1.4l-0.7-3.5c-0.9-4.7,2.1-8,4.5-10.6c1-1.1,2-2.2,2.6-3.2c0.6-2,1.9-3.5,3-4.8
						c1.9-2.2,2.7-3.2,1.9-5.5c-0.2-0.2-1.1-0.5-1.7-0.7c-1.7-0.6-4.4-1.5-5.3-4.4l-0.8-2.3l2.2-1.1c4.3-2.2,8.3-3,12.2-3.8
						c3.5-0.7,6.8-1.4,10.3-3.1c1.4-1.6,2.8-3.2,4.2-4.8c4.4-4.9,8.6-9.4,10.7-14.9c0.1-3.5,1.1-6.8,2.1-10.1c1.6-5,2.5-8.3,1-11.1
						c-1.1,0.4-2.3,0.6-3.7,0.6c-1.2,0-2.4-0.2-3.5-0.3c-0.9-0.1-1.8-0.3-2.5-0.3c-1.1,0-1.7,0.3-2.3,1.1l-0.6,0.8l-0.9,0.2
						c-7.4,1.9-13.3,5.9-19.5,10.2c-3.2,2.2-6.4,4.4-10,6.4c-1.2,2.5-1.9,5.2-2.6,8.2c-1.1,4.7-2.3,9.5-5.8,13.5
						c-1.2,6.8-3.7,11.9-7.6,16l-1.1,1.1l-1.5-0.3c-0.2,0-0.5-0.1-0.7-0.1c-1.5,0-3.2,0.7-4.9,1.5c-2,0.9-4.1,1.9-6.4,1.9
						c-1.8,0-3.5-0.6-5-1.7c-7.3-3.8-12-9.7-13.2-16.7c-4.8-8.2-2.9-17.7-1-27c0.9-4.5,1.8-9.2,1.9-13.4c-0.8-3.4-2.2-11.4,0.1-18.6
						l0.5-1.6l1.7-0.3c0.5-0.1,0.9-0.1,1.4-0.1c4.1,0,6,3.2,7.2,5.4c1.3,2.3,1.8,2.9,2.9,2.9h1.2l0.8,0.9c2.3,2.3,3.8,5.6,5.3,8.8
						c2.2,4.8,3.9,8,6.2,8c0.8,0,1.8-0.3,3-1c4.2-2.4,8.6-4.8,12.8-7c11.8-6.4,23-12.4,33.8-21.2l0.6-0.5l0.8-0.1
						c7.8-1,15.1-1.9,20.5-6.5l1.2-1.1l1.5,0.5l0,0c0,0,0.1,0,0.3,0c0.6,0,1.4-0.1,2.2-0.2c1.1-0.2,2.1-0.3,3.2-0.3
						c3.2,0,5.4,1.7,6,4.5c1.9,1,3.7,2,5.5,2.9c8.5,4.5,16.5,8.7,23.9,16.2l0.2,0.3l0.2,0.3c4.2,7.2,2.9,18.1,2.4,21.3l-0.1,0.4
						l-0.2,0.3c-4.8,10.6-14.4,15.6-23.7,20.5c-3.1,1.6-6.1,3.2-8.8,4.9c-2.3,3.3-6.1,5.5-9.8,7.7c-7.2,4.2-9.9,6.3-7.9,10.9
						c2.1,1.9,3.4,4.2,4.6,6.3c1.8,3.3,3,5.1,5.9,6l1,0.3l0.6,0.9c0.7,1,1.2,2.2,1.8,3.3c1.2,2.6,2.1,4.3,3.5,4.6l0.3,0.1l0.2,0.1
						c1.6,0.7,3.1,1.1,4.8,1.1c3.2,0,6.5-1.3,9.9-2.7c3.7-1.5,7.4-3,11.5-3c0.8,0,1.6,0.1,2.4,0.2c2.9-0.8,5.7-1.7,8.4-2.5
						c7.6-2.4,14.8-4.6,22.7-5.5c1.9-1.2,4.1-1.9,6.3-1.9c5.5,0,10.8,3.8,15,6.8c0.7,0.5,1.4,1,2.1,1.5c9.7,5,16.4,14.4,17.4,24.6
						l0.1,1l-0.6,0.8c-0.5,0.7-0.9,1.5-1.3,2.4c-1.3,2.6-3,5.8-6.7,7.7l-0.1,0.1h-0.1c-1.5,0.6-3.2,0.9-5,0.9l0,0
						c-1.7,0-3.4-0.3-4.9-0.5c-1.2-0.2-2.4-0.4-3.3-0.4c-0.4,0-0.8,0-1.2,0.1l-1.2,0.3l-1-0.6c-2.9-1.7-6.1-2.5-9.9-2.5
						c-3.6,0-7.4,0.7-11.3,1.5c-4.2,0.8-8.5,1.6-12.8,1.6c-0.9,0-1.8,0-2.6-0.1l-1.4-0.1l-0.6-1c-2.6,2.1-6.2,3.1-10.7,3.1h-1.2
						l-0.8-0.9c-0.2-0.2-0.5-0.4-0.7-0.4c-0.3,0-1,0.3-1.6,0.6c-1.1,0.5-2.4,1-3.9,1c-0.8,0-1.5-0.1-2.2-0.4
						c-2.2,1.8-4.8,1.8-5.8,1.8c-0.9,0-1.8-0.1-2.6-0.1c-0.8-0.1-1.6-0.1-2.4-0.1c-0.5,0-0.9,0-1.3,0.1c-1,4.8-1,9.7-1,15
						c0,5.6,0,11.4-1.3,17c0.7,1.9,0.4,3.9,0.2,5.7c-0.3,2.6-0.4,3.8,0.5,4.5l1.1,0.9v1.4c0,2.3-0.5,4.6-1,6.7
						c-0.9,4.3-1.4,7.1,0.5,10l0.8,1.2l-0.5,1.4c-1.8,4.6-1.8,9.5-1.8,14.7c0,5.5,0,11.2-2.2,16.8c-4.5,12.5-13.6,24.5-20.5,32.4
						l-0.9,1h-1.3c-1.3,0-2.4,1.3-4,3.4c-2,2.6-4.5,5.9-9.1,5.9c-0.1,0-0.2,0-0.3,0c-3.1,1.7-5.8,2.5-8.4,3.2
						c-1.7,0.5-3.4,0.9-5.2,1.6l-1.5,0.6l-1.3-0.9c-1.1-0.8-1.9-0.9-2.5-0.9c-1.3,0-2.8,0.7-4.4,1.5
						C696.3,1187.9,694.2,1188.9,691.8,1188.9z"/>
				</g>
				<g>
					<path d="M1227,1123.5c-5.7-2.5-8.2-9.8-14.7-11.5c-6.6-1.6-13.1-4.9-20.5-5.7c-4.9-5.7-12.3-8.2-20.5-6.5
						c-4.9,3.3-11.5,3.3-15.6,8.2c-20.5,4.9-39.3,10.6-59.7,13.1l-4.1,2.5c-9-0.8-17.2,10.6-26.2,4.1c-1.6-2.5,0.8-4.1,0.8-6.5
						c8.2-9,13.9-20.5,21.3-30.3c3.3-7.4,11.5-13.1,11.5-21.3c2.5-4.9-1.6-10.6,2.5-14.7c1.6-1.6,2.5,1.6,4.9,0.8
						c0-2.5-3.3-3.3-2.5-5.7c4.1-6.5,11.5-4.9,17.2-6.5c6.5,3.3,10.6-2.5,15.5-4.1c2.5-5.7,5.7-10.6,8.2-16.4
						c4.1-4.9,8.2-12.3,4.9-18.8c-5.7-8.2-14.7-10.6-24.6-13.1c-3.3,0.8-9-0.8-11.5,2.5c-1.6,0.8-2.5,0-3.3-0.8l-15.6,7.4
						c-13.1,5.7-27.8,7.4-40.1,15.6c-12.3,2.5-22.9,9.8-35.2,12.3c-13.1,8.2-27,18-40.9,24.6c-4.9-6.6-11.5-11.5-16.4-18.8
						c0-3.3,2.5-4.1,3.3-6.5c3.3-4.9,9.8-5.7,11.5-11.5c9-4.1,18-8.2,25.4-15.6c9.8-4.9,19.6-10.6,29.5-16.4
						c3.3-3.3,8.2-4.1,10.6-7.4c12.3-5.7,25.4-9,35.2-19.6c2.5-2.5,4.1-6.5,8.2-5.7c3.3-0.8,5.7-4.1,6.6-7.4
						c-2.5-7.4-4.1-15.6-11.5-20.5c-19.6-12.3-35.2-34.4-58.9-38.5c-5.7,0.8-11.5,0-14.7,6.5c4.1,1.6,6.5,7.4,6.5,12.3
						c3.3,12.3-6.5,21.3-10.6,32.7c-22.9,25.4-41.7,55.7-67.1,78.6c-5.7,0.8-11.5-1.6-16.4,0.8c0.8,1.6-0.8,5.7-0.8,8.2
						c0,3.3,2.5,4.9,4.1,5.7c3.3,9,5.7,17.2,8.2,26.2c1.6,11.5,13.9,20.5,9,33.6c3.3,3.3,6.5,7.4,9,10.6c4.1,16.4,3.3,33.6,8.2,49.9
						c-4.9,4.9-12.3,3.3-17.2,7.4c-18,4.1-36,10.6-53.2,15.6c-7.4,1.6-13.9,7.4-21.3,8.2c-3.3,2.5-9,1.6-12.3,4.1
						c-0.8,0.8-2.5,1.6-3.3,0.8c-6.5,0.8-12.3,3.3-18,5.7c-9,1.6-17.2,5.7-26.2,6.5c-2.5,0.8-1.6,4.9-1.6,7.4
						c0.8,5.7,1.6,11.5,4.9,16.4c8.2,8.2,19.6,13.9,32.7,12.3c2.5-1.6,7.4-1.6,9.8-1.6c5.7-4.1,13.1-5.7,18-11.5
						c7.4,0.8,8.2-8.2,15.6-6.5c8.2-4.9,17.2-10.6,25.4-15.6c9.8-0.8,17.2-4.9,24.6-9.8c10.6-1.6,17.2-10.6,27.8-13.1
						c8.2-4.1,18-4.9,27-6.5c7.4,1.6,16.4-4.1,22.1,0.8c1.6,3.3,5.7,6.6,3.3,9.8h2.5c5.7-5.7,13.9-9,18.8-15.5
						c8.2-7.4,19.6,0,27.8-5.7c7.4,1.6,13.1-4.9,19.6-3.3c10.6-2.5,21.3-4.1,32.7-4.9c5.7,0.8,11.5-2.5,17.2-1.6
						c13.9-1.6,27.8-4.9,42.6-2.5c13.1,4.1,27.8,7.4,40.9,2.5c5.7-0.8,5.7-8.2,9.8-12.3L1227,1123.5z M1060.9,1076.9
						c-4.1,4.1-5.7,11.5-10.6,15.6c0.8,9.8-7.4,16.4-11.5,24.6c-1.6,4.1-7.4,7.4-5.7,12.3c-9.8,4.9-20.5,7.4-31.1,10.6
						c-3.3,2.5-8.2,3.3-10.6,0.8c-4.1-3.3,4.9-7.4,0.8-12.3c-5.7-9,0.8-17.2-1.6-27c-3.3-9.8,0.8-20.5-8.2-27.8
						c0-6.5,0.8-10.6,4.9-14.7c15.6,3.3,31.9,5.7,48.3,5.7c6.5-0.8,13.1-6.6,18.8-2.5c3.3,0,4.9,1.6,6.6,3.3
						C1064.2,1069.5,1056.8,1072.8,1060.9,1076.9z"/>
					<path d="M1154.2,1237.3c-5.7-3.3-11.5-3.3-18.8-4.1c-9.8,1.6-21.3,0.8-30.3,0.8c8.2,7.4,25.4,10.6,26.2,24.6
						c-3.3,8.2-3.3,18-11.5,22.1c-9.8,17.2-28.6,24.6-42.6,36c5.7,0,12.3,0.8,18,0.8c15.6,4.9,31.1,5.7,46.7,3.3
						c3.3-5.7,11.5-2.5,13.9-8.2c11.5-7.4,22.1-15.6,31.1-25.4c2.4-5.7,8.2-8.2,9.8-14.7c0.8-8.2-4.9-13.1-7.4-19.6
						C1177.9,1246.3,1166.5,1242.2,1154.2,1237.3z"/>
					<path d="M995.4,1252.8c-4.9,4.1-10.6,4.1-15.6,8.2c-6.5,2.5-10.6,8.2-16.4,11.5c-5.7,1.6-11.5,4.9-18.8,4.9
						c-3.3,2.5-8.2,2.5-11.5,4.9l0.8,0.8c0,1.6,0,2.5-0.8,3.3c-2.5,0.8-4.9,3.3-7.4,0.8c-0.8-1.6,1.6-2.5,2.5-3.3h-4.1
						c-5.7,5.7-12.3,3.3-18,6.5c-9.8,0-18.8,0-27.8,1.6c-7.4,0.8-15.6-2.5-18-8.2c-2.5,2.5-1.6,7.4-4.9,9c1.6,9.8,10.6,18,13.9,27
						c2.5,1.6,5.7,3.3,5.7,6.5c5.7,0.8,9.8,3.3,14.7,4.9c9-1.6,17.2-5.7,24.6-9.8c2.5-4.1,7.4-4.1,10.6-7.4
						c8.2-1.6,12.3-10.6,21.3-12.3c11.5-10.6,22.1-20.5,33.6-31.1c7.4-6.6,13.9-15.6,22.1-20.5h-1.6
						C999.5,1251.2,997,1252.8,995.4,1252.8z"/>
				</g>
				<g>
					<g>
						<g>
							<path d="M1452.1,1120c-3.7,0-7.3-0.5-10.8-1c-0.9-0.1-1.9-0.3-2.8-0.4l-1.4-0.2l-0.7-1.2c-1.5-2.6-3.5-3.2-6.8-3.9
								c-3.6-0.8-8-1.7-10.4-7.2c-5.9-3.9-5.7-10.5-5.7-15.8c0-2.7,0.1-5.3-0.6-7.3l-0.5-1.5l1-1.2c4.6-5.8,10.9-9.3,17-12.7
								c6.7-3.8,13.1-7.4,16.4-13.6l0.2-0.4l0.3-0.3c8.9-8.9,15.6-17.7,24.1-29.8l0.9-1.2h0.9l-0.7-1.3l1.7-1.5
								c9-7.9,15-18.5,18.8-27c-1.8,0.8-3.7,1.2-5.6,1.7c-3.7,0.9-6.9,1.6-8.9,4.6l-0.9,1.3h-1.5c-8,0-14.2,3.6-20.7,7.4
								c-3,1.8-6.1,3.6-9.5,5.1l-0.3,0.1l-0.3,0.1c-4.1,1-8.3,2.5-12.7,4.2c-7.2,2.8-14.6,5.6-22.4,5.6c-4.3,0-8.3-0.9-12.2-2.6
								c-0.4,0.1-0.8,0.1-1.2,0.1c-3.4,0-6.9-2.7-8.2-5.4l-1.3-2.6l2.6-1.3c1-0.5,2.1-1.4,3.4-2.3c2.8-2.2,6-4.6,9.8-4.6
								c1.4,0,2.7,0.3,4,1c2.9-2.5,6.9-3.5,10.6-4.3c2.5-0.6,5.1-1.1,6.6-2.1c3.2-3.1,6.5-3.3,9-3.5c1.9-0.1,2.8-0.2,3.6-1l0.5-0.5
								l0.6-0.2c7.4-2.7,14.6-5.8,21.5-8.9c5-2.2,9.7-4.3,14.5-6.2l1.6-0.6l1.3,1.1c1.3,1.1,1.8,1.1,1.8,1.1
								c0.3-0.1,1.2-1.2,1.7-1.8c1.3-1.6,3.1-3.9,6-4.5c3.5-4,2.6-8.1,0.9-14.2c-1.1-3.9-2.2-8-1.3-12.1c-0.3-2-0.5-4.1-0.6-6.3
								c-0.2-3.6-0.4-7.4-1.7-10.4c-3,0.3-5.5,1.3-8.2,2.3c-2.2,0.8-4.4,1.7-6.9,2.2l-0.3,0.1h-0.3c-15.5,0-29.9-2.1-45.2-4.3
								l-3.3-0.5l-0.4-0.2c-3.3-1.6-6-3.8-8.3-5.6c-1.3-1-2.4-1.9-3.6-2.7l-4.9-3.3l5.6-1.8c3.3-1.1,6.9-1.5,10.3-1.9
								c4.2-0.4,8.5-0.9,12.7-2.7h0.1h0.1c6.7-2.2,13.8-4,20.7-5.7c11-2.7,22.4-5.5,32.2-10.4c3.1-2.2,3.2-5.8,3-11.4
								c-0.1-2.3-0.2-4.7,0.2-6.9c-0.5-3.1-0.9-6.5-1.3-10c-1-10-2.2-21.4-8.6-27.8c-5.1,0.2-9.3,2-13.5,3.6
								c-3.3,1.4-6.8,2.7-10.5,3.3l-5.8,0.8l2.9-5.1c1.4-2.4,2.5-5.1,3.6-7.7c2.3-5.6,4.8-11.4,10.3-15.8c1.4-4.7,5.1-7.3,7.7-9.2
								c0.8-0.6,1.6-1.2,2.1-1.6l0.6-0.6l0.8-0.2c1.7-0.4,3.4-0.6,4.9-0.7c3-0.3,4.3-0.5,5-1.6l1.3-1.9l2.1,0.8
								c1.9,0.7,3.9,1.4,6,2.2c17.8,6.4,42.3,15.1,42.3,40v0.3v0.3c-0.8,4.3-2.2,8.6-3.5,12.7c-2.7,8.2-5.5,16.8-3.6,25.9
								c0.8,0.6,1.5,0.7,2,0.7c1.4,0,3.2-0.9,5.1-1.9c2.3-1.2,4.9-2.5,7.7-2.5h0.4l0.4,0.1c5.5,1.6,12.1,1.9,18.5,2.2
								c6.8,0.3,13.7,0.6,19.9,2.4l0.5,0.1l0.4,0.3c5.2,3.9,7.2,10.4,5.7,18l-0.1,0.6l-0.3,0.5c-5.4,7.8-14,8.8-21.5,9.7
								c-5.3,0.6-10.2,1.2-14.1,3.8l-0.9,0.6l-1.1-0.2c-0.9-0.1-1.9-0.2-2.9-0.2c-4.8,0-9.2,1.6-13.9,3.3c-1.3,0.5-2.6,1-4,1.4
								l-1.1,0.4l-1.1-0.5c-0.4-0.2-0.7-0.2-0.7-0.2c-0.4,0-1.4,1.3-2,2.1c-0.7,0.9-1.4,1.9-2.4,2.7c0,2.1,0.1,4.2,0.1,6.2
								c0.2,6.9,0.4,13.5-1.2,21.2c0.3,0.9,0.4,1.9,0.5,2.7c0.1,0.5,0.1,1.1,0.2,1.6c3.3-0.4,6.3-0.6,9.1-0.6
								c7.1,0,13.4,1.4,19.2,4.1c6.3,0.2,14.3,2.9,17.1,9.9l0.4,1.1l-0.5,1.1c-2.5,5.9-7.4,9-12.2,12c-2.6,1.6-5.1,3.2-7,5.2
								l-0.6,0.6l-0.9,0.2c-4.9,1-8,5-11.2,9.2c-3.1,4.1-6.4,8.3-11.5,10.1c-2.7,7-8.3,10.7-13.4,14c-3,2-5.9,3.9-7.4,6.1l-0.4,0.6
								l-0.7,0.3c-2.5,1.2-4.8,3.7-7.2,6.3c-3.4,3.6-7.1,7.6-12.2,8.9c-8.8,11.9-18.4,20.7-31.9,31.8c0.2,0.4,0.7,0.9,1,1.3
								c0.2,0.3,0.5,0.7,0.8,1c0.3,0,0.5,0,0.8,0c4.4,0,9.1-1.3,14.2-2.8c5.3-1.5,10.9-3.1,16.5-3.2c1.3-0.5,2.6-1.2,3.8-1.7
								c3.4-1.6,6.6-3.1,10-3.1c0.3,0,0.6,0,0.9,0c2.4-2,5.5-2.4,8.6-2.8c3.4-0.4,6.6-0.8,9-3.2l0.3-0.3l0.4-0.2
								c1.2-0.6,2.5-0.7,3.6-0.7c0.5,0,1,0,1.5,0s1,0,1.4,0c2.1,0,2.6-0.4,2.9-0.8l0.9-1.3h1.5c9.2,0,17.9-4,26.4-8
								c1.2-0.6,2.4-1.1,3.6-1.7c0.3-2.7-1.7-4.7-4.7-7.6c-3.1-2.9-7.6-7.2-4.3-12.7l-2-4.1l3.6-0.8c1.8-0.4,3.6-0.6,5.3-0.6
								c11.9,0,20.6,8.7,28.4,16.4c2.1,2.1,4,4,6,5.7l0.4,0.4l0.2,0.5c2.4,4.8,5.8,8.6,9.4,12.7c3.1,3.5,6.3,7.1,9,11.5
								c5.4,8.1,7.4,15.8,6.2,24l-0.1,0.9l-0.7,0.7c-5.8,5.8-14.6,9.6-22.5,9.6l0,0c-2,0-4-0.2-5.8-0.7l-0.5-0.1l-0.4-0.3
								c-4.2-2.8-8.9-4.7-13.5-6.6c-2.7-1.1-5.6-2.3-8.2-3.6l-1.6-0.8v-1.8c0-0.4-0.6-1.2-1-1.8c-0.9-1.3-2.1-3.1-1.4-5.3
								c0.4-1.3,1.4-2.2,2.4-2.9c-0.2-6.4-1.6-11.3-4.4-15.2c-4.9,0-8.9,3-13.2,6.1c-4.6,3.3-9.3,6.8-15.4,6.8c-0.2,0-0.4,0-0.5,0
								c-1.1,0.6-2.1,1.2-3.2,1.7c-2.3,1.2-4.5,2.2-5.6,3.9l-0.6,0.9l-1,0.3c-11,2.9-20.4,7.7-30.4,12.8c-4.9,2.5-10,5-15.3,7.4
								c-0.8,2.9-3.3,3.1-3.8,3.1c-0.7,0-1.4-0.2-2-0.3c-0.2-0.1-0.5-0.1-0.8-0.2C1464.1,1118.2,1458.9,1120,1452.1,1120z"/>
						</g>
						<g>
							<path d="M1345.4,920.3c-3.2,0-5.9-1-8.1-3.1c-3.8-1.9-7.6-3.8-10.4-6.5c-1.1,0.7-2.3,1-3.5,1c-2.9,0-4.9-1.9-6.6-3.5
								c-0.9-0.8-1.8-1.6-2.5-2c-0.8,0.1-1.7,0.2-2.5,0.2l0,0c-5.1,0-9.5-1.9-13.7-3.8c-1-0.5-2.1-0.9-3.1-1.3l-5.1-2l4.5-3
								c4.5-3,9.6-3.5,14.6-3.9c3.8-0.4,7.7-0.7,11.5-2.2l1-0.4l1,0.3c0.5,0.2,0.9,0.2,1.4,0.2c1.7,0,3.5-0.9,5.5-1.8
								c2.3-1.1,4.9-2.3,7.7-2.3c1.4,0,2.8,0.3,4.1,0.9c1.1-0.5,2.4-0.8,3.6-0.8c3.6,0,6.8,2.3,9.3,4.1c0.5,0.4,1.1,0.8,1.6,1.1
								l1.1,0.7l0.2,1.3c0.3,2,2.8,4.4,5.1,6.6c3.2,3,6.5,6.2,5.9,10.2c-0.4,2.7-2.6,5.1-6.7,7.1l-0.6,0.3h-0.7
								c-1.9,0-4.2,0.6-6.5,1.2C1350.7,919.6,1348.1,920.3,1345.4,920.3z"/>
						</g>
						<g>
							<path d="M1317,1138.7c-3.2,0-6.7-0.4-10.1-0.7c-3.3-0.4-6.8-0.7-9.9-0.7h-0.4l-0.4-0.1c-2.4-0.7-5.7-1-9.2-1.4
								c-8.3-0.9-17.7-2-22.4-7.6l-3.6-4.3l5.6-0.4c22.9-1.7,34.9-21,46.5-39.6c3.4-5.4,6.9-11,10.5-16c2.2-3.8,3.8-8.2,5.5-12.8
								c1.6-4.4,3.3-8.9,5.6-13c-0.2-0.1-0.3-0.1-0.4-0.2c-5.2-2.1-4.3-5.7-4-6.9l0.2-1l0.8-0.6c2.1-1.6,4.4-2.3,6.6-3
								c3.2-1,5.8-1.9,7.5-5c1.9-8.1,6.9-16,11.3-22.9c1.4-2.1,2.7-4.2,3.8-6.1c0.9-6.7,4.3-12.4,7.6-17.9c2-3.4,4-6.6,5.2-9.9
								c0.7-2.7,2.3-5.2,3.8-7.6c1.4-2.2,2.7-4.3,3.1-6.1l2.3-9.1l3.2,8.8c3.1,8.4,0,15.7-2.9,22.8c-2,4.8-3.9,9.4-3.9,14.2
								c0,2.2-0.6,4.5-1.2,6.9c-1.2,4.7-2.5,9.6,0.6,13.3l3.4,4.1l-5.3,0.6c-3.6,0.4-4.2,2.3-4.2,9c0,3.5-0.1,7.2-1.6,10.3
								c-0.4,0.9-0.9,1.7-1.4,2.6c-3.1,5.9-6.9,13.2-4.5,18l1.5,3l-3.2,1c-1,0.3-1.5,2-2,4.5c-0.2,1-0.5,2-0.8,3l-0.1,0.3l-0.1,0.2
								c-2.9,5.2-4,11.7-5,18c-0.9,5.4-1.8,11.1-3.9,16.1c-0.2,6.4-4,12.5-7.3,17.9c-1.3,2.1-2.5,4.1-3.5,6v0.1l-0.1,0.1
								c-4.6,7.6-10.7,12-16.9,12c-0.6,0-1.2,0-1.8-0.1C1320.1,1138.6,1318.7,1138.7,1317,1138.7L1317,1138.7z"/>
						</g>
						<g>
							<path d="M1333.7,1001.4c-2.2,0-4.2-0.6-6.1-1.2c-2-0.6-3.9-1.2-6.3-1.2c-0.6,0-1.2,0-1.8,0.1l-1.1,0.1l-0.9-0.6
								c-0.6-0.4-2.1-0.4-2.7-0.4c-0.4,0-0.8,0-1.2,0c-0.4,0-0.9,0-1.3,0c-1.6,0-5.1,0-7.4-2.6c-1.5,0-3.1,0-4.7,0.1
								c-2.2,0-4.4,0.1-6.6,0.1l0,0c-6.1,0-13.2-0.3-19.5-2.7l-1.9-0.7v-2c0-5.3,4.8-5.9,6.8-6.2c0.7-0.1,1.9-0.2,2.2-0.5l1-1
								l1.4,0.2c0.3,0,0.6,0.1,1,0.1l0,0c2.9,0,5.3-1.7,8.2-3.7c3.3-2.3,7.1-4.9,12.1-4.9c0.8,0,1.7,0.1,2.6,0.2
								c3-0.8,6.1-1.3,9.2-1.3c9,0,17.7,3.5,25.4,10.2l0.6,0.5l0.2,0.7c0.2,0.6,0.5,1.3,0.9,2c1.3,2.6,3.6,7.6-1.9,11.7
								C1339,1000.4,1336.4,1001.4,1333.7,1001.4z"/>
						</g>
					</g>
				</g>
				<g>
					<g>
						<g>
							<path class="st0" d="M1403.3,1306.7c-4.4,0-7.9-2.5-10.7-4.9l-0.9-0.7l-0.4-1c-1.2-2.8-1-5.3-1-6.4l0.2-3.7l3.7-0.7
								c1.8-0.3,4.1-1.6,6.3-3.4c0.4-1.4,0.9-2.8,1.3-4.2c4.3-13.4,8-25.1,9.2-39c-0.5,0.1-1,0.2-1.5,0.4c-1.1,0.3-2.2,0.6-3.5,0.7
								c-2.9,1.9-5.8,2.3-8,2.6c-1.2,0.2-2.2,0.3-2.9,0.6l-2.6,1.1l-2.2-1.7c-2.4-1.8-5.3-4.4-6.4-8.7l-0.3-1.3l0.3-1.2
								c0.6-2.4,1.3-4.7,1.9-7c3.5-12.7,6.8-24.6,9-37.6c-0.1-2.8,0.4-5.1,0.8-7c0.2-0.9,0.5-2.1,0.4-2.5c-0.1-0.1-0.3-0.3-0.7-0.6
								l-2.9-1.9l0.5-2c-1.3-0.9-3.5-2.3-4-5.1c-0.3-1.3-0.2-3.3,1.3-5.6l1.5-2.2l2.6,0.2c0.2-0.1,0.8-0.4,1.1-0.6
								c1.4-0.8,3.3-1.9,5.9-1.9c1.4,0,2.8,0.3,4.2,1l0.2,0.1l0.2,0.1c6.3,3.6,10.5,8.1,13,13.6c3.9,7,1.4,12.9-0.9,17.1
								c0.2,0,0.4,0,0.6,0c1.7,0,3.5-0.3,5.5-0.6c2.2-0.4,4.4-0.7,6.7-0.7c5.7,0,10,2.5,12.7,7.4l0.4,0.7l0.1,0.8
								c0.9,5-1.2,9.1-5.7,11l-1,0.4l-1.1-0.1c-0.5,0-1.5,0.4-2.3,0.6c-1.4,0.5-3.1,1.1-4.9,1.1c-0.7,0-1.4-0.1-2-0.3
								c-0.9,0.2-1.8,0.3-2.6,0.3c-3.3,0-5.8-1.4-7.9-2.6c-1.2-0.7-2.2-1.3-3-1.3c-2.2,3.4-4,8.2-5.2,14l-0.2,1.1l-0.7,0.9
								c-0.3,0.4-0.6,0.7-0.9,1c0.4-0.1,0.9-0.2,1.4-0.3c1.7-0.4,3.7-0.9,5.9-1c1.9-0.9,3.8-1.3,5.8-1.3c3.9,0,7.8,1.7,11.7,4.9
								l0.5,0.4l0.4,0.6c3.4,5.2,4.6,10.8,3.3,15.8l-0.2,0.9l-0.6,0.8c-2.2,3-3.9,6.5-5.6,10.3c-0.7,1.5-1.4,3.1-2.2,4.7
								c-2,9.3-4.7,17.9-8.8,28.3c1.2,5.5-3,8.9-4.9,10.5c-0.6,0.5-1.5,1.2-1.6,1.5l-0.5,0.9l-0.9,0.6
								C1408,1306,1405.7,1306.7,1403.3,1306.7z"/>
						</g>
						<g>
							<path class="st0" d="M1327.3,1373.2c-1.3,0-2.6-0.4-3.8-1.1l-6.4-3.7l5.9-4.3c8.5-6.3,16.2-14.6,23.7-22.6
								c1.2-1.3,2.5-2.6,3.7-3.9c1-2.4,1.4-5.5,1.1-9.3c-0.8-0.6-1.6-0.7-2.5-0.7c-1.9,0-4.2,0.7-6.7,1.5c-3.1,1-6.3,2-9.8,2
								c-0.8,0-1.5-0.1-2.2-0.2c-0.3,0-0.7,0-1,0c-6.3,0-12.2,2.9-18.3,5.9c-1,0.5-1.9,1-2.9,1.4l-0.3,0.2l-0.3,0.1
								c-1.3,0.4-2.6,0.9-3.9,1.4c-3.5,1.3-7.2,2.6-11.1,2.6c-2.3,0-4.6-0.5-6.7-1.4c-0.4,0-0.8,0-1.2,0c-6.4,0-12.5-3.9-18.1-11.5
								l-2.6-3.5l1.8-1.6c0-0.2,0-0.3,0-0.5l0.3-4.8l4.8,0.3c3.6,0.2,7.1,0.3,10.4,0.3c10.8,0,20.7-1.2,30.4-3.5
								c2.1-0.6,4.1-0.7,5.9-0.8c1.5-0.1,2.6-0.2,3.5-0.4c-0.1-0.2-0.2-0.4-0.3-0.6c-3.4-6.1-7.6-13.7-3.6-22.6
								c0-1.4,0.2-2.7,0.4-3.9c0.1-0.8,0.3-2.1,0.3-2.6l-3.3-2.8l2.7-3.6c1-1.3,2-5.2,2.2-8.1v-0.1v-0.1c1.6-13.2,0.8-25.3,0-38
								l-0.2-2.4l3.9-10.9l4.3,1.2c8.7,2.5,15.9,11.3,17.5,21.5l0.2,1.1l-0.3,1.1c-0.1,0.4-0.3,0.8,0.2,1.5c2.4-0.2,4.9-0.9,7.5-1.7
								c3.1-0.9,6.3-1.9,9.9-2.1l1.4-0.1l1.1,0.6c0.2,0.1,0.6,0.2,0.9,0.3c2.5,0.8,9.2,2.8,8.8,9.7v0.8l-0.3,0.7
								c-1.2,3-3.9,5.2-6.5,7.3c-0.7,0.5-1.3,1.1-1.9,1.6l-1.8,1.6l-2.3-0.4c-4-0.8-8.6-0.9-13.4-1c-1.9,0-3.9-0.1-5.9-0.2
								c-1.2,5.5-1.1,11.2-0.9,17.2c2-0.4,4.3-1.5,6.6-2.6c3.4-1.6,6.8-3.3,10.4-3.3s8.5,1.7,11.2,9.9l0.3,0.9l-0.1,0.9
								c-0.3,5-4.2,6.5-5.6,7.1c-0.3,0.1-0.6,0.2-0.7,0.3l-2,2.6l-3.2-1c-0.5-0.2-1.1-0.3-1.7-0.3c-1.3,0-2.9,0.4-4.5,0.8
								c-2,0.5-4.3,1.1-6.8,1.1c-1.6,0-3-0.2-4.5-0.7c-0.3,0-0.6,0.1-0.9,0.1c0.3,2.5,0.2,5,0.2,7.3c-0.1,3.7-0.1,6.4,0.8,8.4
								c5.2-0.8,11.3-1.5,17.2-2.2c2.3-0.3,4.5-0.5,6.7-0.8c1.6-0.5,3.3-1.1,4.8-1.6c5-1.8,10.1-3.6,16.2-3.9l3-0.4
								c7.5-1,15.2-2.1,21.7-3.8l0.4-0.1h0.4c1.8-0.2,3.6-0.3,5.3-0.4c3.2-0.2,6.2-0.3,9.2-1.1l0.8-0.2h0.8c0.3,0,0.7,0,1,0
								c8,0,13.7-5.8,16.7-9.9c0.5-3.5,2.1-6.5,3.5-9.1c2-3.7,3-5.7,2.1-8.1l-3.8-10.2l8,3.2c0-0.1,0.1-0.1,0.1-0.2
								c1.7-11.4,4.7-22.6,7.6-33.5c2.2-8.5,4.4-16.5,5.9-24.5c0.2-1.6,0.7-3.2,1.2-4.8c0.4-1.2,1.1-3.4,0.9-4.1
								c-1.6,0.2-3.3,0.6-5.1,1c-2.8,0.6-5.6,1.3-8.7,1.3c-3.6,0-6.8-0.9-9.7-2.8l-0.9-0.5l-0.6-0.9c-0.5-0.8-1.4-1.5-2.3-2.3
								c-2-1.7-4.9-4.1-5.5-8.5l-0.7-4.9l4.9-0.5c2.6-0.3,5.2-0.5,7.7-0.7c7.6-0.6,14.8-1.3,22.1-3.2l1.6-0.4l1.5,0.7
								c6.6,3,13.5,6,18.8,10.9c4.5,2.9,4.4,7.6,4.4,10.1c0,2.1,0,2.8,0.6,3.4l2.8,3.1l-2.7,3.2c-4.1,4.8-6.1,10.5-8.5,17.1
								c-0.3,0.8-0.6,1.6-0.8,2.4c0.1,3.1-1.7,5.1-2.6,6.1c-0.2,0.3-0.5,0.6-0.6,0.7c-0.1,0.6-0.2,1.6-0.2,2.6
								c-0.2,2.9-0.4,7-3.1,9.9c-0.8,3.1-2,6.3-3.3,9.5c-1.5,3.7-3,7.6-3.6,11l-0.1,0.5l-0.2,0.5c-2,5-3.6,10.2-5.2,15.8
								c-1,3.2-2,6.5-3,9.8c0.8-0.2,1.7-0.4,2.7-0.4c0.4,0,0.8,0,1.2,0.1c15.6-1.3,29.9-4,45.1-6.9l5.8-1.1l1.1,0.3
								c1.2,0.4,2.5,0.7,3.7,1c6.3,1.6,12.9,3.2,17.7,10.5l0.9,1.3l-0.1,1.1c0.1,0.2,0.3,0.4,0.5,0.6c1.3,1.5,4.2,5,1.9,10.1
								c-2,4.8-6.7,7.7-12.7,7.7l0,0c-1.6,0-3.3-0.2-4.9-0.6l-0.7-0.2l-0.6-0.4c-7.7-4.7-17.6-5.7-24.5-5.7c-3.5,0-7.1,0.2-10.6,0.7
								l-1.6,0.2l-1.4-0.8c-0.1-0.1-0.2-0.1-0.5-0.1c-0.4,0-0.9,0.1-1.5,0.2c-0.8,0.1-1.9,0.3-3,0.3c-0.9,0-1.8-0.1-2.7-0.3
								c-1.2-0.1-2.5-0.1-3.7-0.1c-8.5,0-16.2,1.4-24.5,3c-8.2,1.5-16.6,3.1-25.7,3.1c-0.2,0-0.3,0-0.5,0c-2.5,0.7-5.3,1.1-8.8,1.1
								c-1.9,0-3.7-0.1-5.4-0.2c-11.9,0.9-22.4,3.4-34.3,6.9c-2.7,0.9-5.7,1.3-8.6,1.6c1.8,1.2,3.4,2.9,4,5.4
								c3.5,2.6,4.1,7.2,4.4,10c0.1,0.6,0.1,1.2,0.2,1.8l0.5,2.7l-1.2,1.1c-0.2,0.9-0.8,2.4-2.1,3.6v0.2l-0.2,0.6
								c-1.8,5-6,6.8-8.7,8c-1.3,0.6-2.6,1.1-2.8,1.6l-0.7,1.7l-1.6,0.8c-10.7,5.4-20.5,10-32.7,11.1l0,0
								C1330.4,1372.6,1329.1,1373.2,1327.3,1373.2z"/>
						</g>
						<g>
							<path class="st0" d="M1371.1,1218c-1.6,0-3-0.3-4.3-0.6c-0.6-0.1-1.3-0.3-1.6-0.3h-0.7l-0.6-0.2c-2.9-1-5.7-2.4-8.4-3.7
								c-3.1-1.5-6.2-3-9.5-4.1l-0.8-0.2l-1.5-1.1c-0.5-0.1-0.9-0.3-1.3-0.4l-7.2-0.4l3.9-6.7c2.9-5,7.6-6,11.1-6.7
								c1.5-0.3,2.8-0.6,3.8-1.1l1.2-0.6l1.3,0.1c9.4,0.6,17.3,3.9,22.2,9.5l0.8,0.8l0.3,1.1c1,3.6,0.9,8.8-2.4,12
								C1376.3,1216.6,1374.4,1218,1371.1,1218z"/>
						</g>
						<g>
							<path class="st0" d="M1457.7,1242.9c-5.9,0-9.2-3.8-11.6-6.5c-1.9-2.2-3.1-3.5-4.9-3.8l-4.2-0.7l0.2-3.6
								c-0.3-0.7-0.7-1.9-0.6-3.3l0.2-2.8l2.5-1.2c2.7-1.3,5.8-2,8.8-2c8.8,0,15.9,5.7,17.6,14.1l0.4,2l-5.3,7.7l-2.4,0.1
								C1458.2,1242.8,1457.9,1242.9,1457.7,1242.9L1457.7,1242.9z"/>
						</g>
						<g>
							<path class="st0" d="M1447.8,1276.4c-2.6,0-4.9-1-6.7-2.9c-0.8-0.7-1.8-1.4-2.8-2.2c-2.9-2.1-6.2-4.6-8.2-7.7l-2.1-3.2
								l2.6-2.8c2.7-2.9,6.4-4.4,10.5-4.4c3.9,0,7.6,1.3,10.8,2.5l1.5,0.6l7.4,12.6l-2.9,2.6
								C1454.3,1274.9,1451,1276.4,1447.8,1276.4L1447.8,1276.4z"/>
						</g>
						<g>
							<path class="st0" d="M1373.3,1296.2c-0.2-0.4-0.5-0.8-0.8-1.2c-1.7-2.7-5-7.7-2.1-12.9c3.7-7.1,6.6-14.5,9.5-21.6l1.5-3.8
								l4,0.9c9.3,2.1,10.3,11.6,10.6,14.7l0.1,1.4l-0.7,1.3c-0.9,1.7-1.6,4-2.3,6.5c-2,6.7-5,16.8-15.7,17.1l-2.8,0.1
								L1373.3,1296.2z"/>
						</g>
						<g>
							<path class="st0" d="M1485.8,1367.2c-0.9-0.2-2.1-0.3-3.3-0.3c-4.3-0.3-12.1-0.7-14.1-9.3c-1.3-2.2-2.7-4.9-3-8.2
								c-3.4-3.5-5.9-7.2-8.3-10.9c-3.2-4.9-6-9.2-10.6-11.9l-2-1.2l-1.4-10.2l3.4-1.4c2-0.9,4.3-1.3,6.7-1.3
								c4.4,0,9.2,1.4,14.8,4.2h0.1c1.9,1,4.1,1.9,6.4,2.9c8,3.4,18,7.6,21.5,18.5c3.9,6,3.1,11.9,2,17.4v0.2l-0.1,0.2
								c-1.4,4.6-4.8,7.5-7.8,10.2l-1.8,1.6L1485.8,1367.2z"/>
						</g>
					</g>
				</g>
			</g>
		</g>
	</g>
</g>
<text transform="matrix(1 0 0 1 -565.833 691.1851)" class="st0" style="font-family:'KozGoPr6N-Medium-83pv-RKSJ-H'; font-size:74.2629px; letter-spacing:1;">劉必榮講座</text>
<rect x="528.5" y="618.8" class="st2" width="619.1" height="135.6"/>
<g class="st3">
	<path class="st0" d="M678.3,656.8l1.2-0.1l3.1,0.3c0,0.5,0,1.2-0.1,1.8c-0.6,13-1.2,18.1-2.6,19.9c-1.6,1.8-3.2,2.3-8.6,2
		c-0.1-1.7-0.6-4-1.3-5.5c1.7,0.2,2.9,0.2,3.6,0.2c0.7,0,1.2-0.1,1.6-0.7c0.7-1,1.2-4.2,1.6-12.7h-5.2c-0.7,6.7-2.4,12.8-7.6,17.2
		l3.6,0.7c-0.1,0.6-0.7,0.9-1.7,0.9l-0.1,0.1c5.9,2.6,12.9,6.3,16.7,8.9l-3.4,4.7c-1.5-1.1-3.6-2.4-5.8-3.8v4h-7.8v3.9H680v4.9h-7.5
		l5.6,2.2c-0.2,0.4-0.8,0.7-1.6,0.7c-0.7,1.6-2,3.9-3.1,5.8l9-0.6l-0.1,4.6c-13.5,1.3-27.9,2.5-37.1,3.1c-0.1,0.5-0.5,0.9-1,1
		l-2.6-6.4c2.6-0.1,5.8-0.3,9.3-0.4c-0.5-2.2-1.7-5.5-3.1-8l4.9-1.4c1.5,2.5,2.8,5.7,3.3,7.9l-4.6,1.5l7.7-0.4v-9.5h-14.8V699h14.8
		v-3.9h-7.5v-2c-2.5,1.6-5.1,3.1-8,4.5c-0.7-1.5-2.5-3.8-3.8-4.8c8.1-3.5,14.5-8.2,18.6-12.6c-0.6-0.7-1.3-1.5-1.9-1.9
		c0.9-0.4,1.8-0.9,2.6-1.5c-0.2-0.7-0.6-1.4-0.9-2.2c-5.3,2.3-10.7,4.6-14.3,6c-0.1,0.6-0.3,1-0.8,1.2l-3.2-6.2
		c1.2-0.4,2.5-0.7,4-1.2v-16.6l3.6,1.2c3.5-1.5,7-3.5,9.2-5.3l5.1,4.3c-0.3,0.3-0.8,0.4-1.5,0.3c-2.6,1.7-6.7,3.5-10.6,4.9v9.3
		l6.3-2c-0.9-1.6-1.9-3.2-2.9-4.6l4.2-2.1c2.2,2.7,4.4,6.2,5.7,9c1.9-2.9,2.8-6.5,3.3-10.5h-4.1v-5.5H678.3z M672.2,690.5
		c-3.2-1.9-6.8-3.8-10.2-5.3c-1.9,1.7-4,3.6-6.4,5.3H672.2z M670.1,712.7c-0.7-0.2-1.2-0.5-1.7-0.7c1.1-2.3,2.5-5.6,3.3-8.1h-6.3
		v9.1L670.1,712.7z M692.9,663.1c-0.1,0.6-0.5,0.9-1.6,1.2v39.4H685v-41L692.9,663.1z M699.1,655.2l8.1,0.4
		c-0.1,0.7-0.5,1.1-1.6,1.2v56.7c0,7.4-3.1,8.3-15.1,8.3c-0.3-1.8-1.2-4.9-2.1-6.8c2,0.1,4,0.1,5.6,0.1h3.4c1.2,0,1.7-0.4,1.7-1.6
		V655.2z"/>
	<path class="st0" d="M719.2,702c4.5-5.5,7.1-14.5,8.4-22.8l6.5,1.7c-1.3,8.5-3.7,18.3-8.4,24.1L719.2,702z M747.5,711
		c0,3.4,0.7,4,4.6,4h12.3c3.9,0,4.5-2.3,5-13.5c1.6,1.2,4.5,2.5,6.5,2.9c-0.9,13.2-2.9,17.1-11.1,17.1h-13.5
		c-8.4,0-10.8-2.3-10.8-10.6v-2.4c-5.1,3.4-10.5,6.6-16.4,9.3c-0.9-1.6-3.1-4.1-4.4-5.5c7.5-3.3,14.5-7.5,20.8-12.2v-26.5l8.7,0.5
		c-0.1,0.7-0.6,1-1.7,1.2v19.1c12-10.7,21.3-23.6,27.4-36.4l8.1,3.6c-0.4,0.7-1.4,0.9-2.3,0.7c-7.3,14.7-18.5,29.3-33.2,41.1V711z
		 M744.1,653.7c7.5,2.3,16.3,6.7,21.2,10.1l-4.6,6.1c-4.7-3.6-13.7-8.2-21.1-10.8L744.1,653.7z M783.3,705.7
		c-1.9-6.8-6.9-16.9-12.1-24.4l6.3-3.1c5.4,7.4,10.4,17.2,12.5,23.9L783.3,705.7z"/>
	<path class="st0" d="M863.7,700.2h-21.5c6.3,6.1,16.1,11.3,25.9,13.8c-1.7,1.5-3.8,4.4-4.9,6.3c-9.5-3.1-18.9-9-25.5-16.3v17.9
		h-6.8v-17.4c-6.6,7.1-15.9,12.7-25.8,15.6c-1-1.7-3-4.5-4.5-5.9c10.1-2.4,19.9-7.6,26-13.9h-20.7v-6.1h24.9v-7.3l8.6,0.5
		c-0.1,0.6-0.6,1-1.7,1.2v5.6h26.1V700.2z M803.6,679.6h0.6c-0.7-1.5-2.1-3.4-3.2-4.4c13-3.3,14.8-9,15.4-21.5l7.6,0.5
		c-0.1,0.6-0.6,1-1.5,1.1c-0.3,4.4-0.7,8.1-1.7,11.3c3.6,2.2,8.4,5.3,10.8,7.3l-4.5,4.3c-2-1.7-5.5-4.3-8.8-6.5
		c-2.3,3.3-6,6-11.9,7.9h54.9c-3-2.3-7.7-5.6-12-8.3c-2.5,3.6-6.4,6.3-13,8.2c-0.7-1.5-2.3-3.9-3.6-5.1c12.3-3.3,14.1-9.1,14.6-20.7
		l7.7,0.6c-0.1,0.6-0.6,0.9-1.6,1.1c-0.3,4.1-0.7,7.6-1.7,10.7c4.8,3,11.3,7.1,14.7,9.6l-3.8,3.9h3V692h-6.9v-6.3h-48.5v6.3h-6.6
		V679.6z M801.8,666.6c2.9-2,5-5.6,6-8.9l4.5,1.5c-1.2,3.9-3,7.7-6.4,10.2L801.8,666.6z M834.7,660.2c-0.3,0.4-0.9,0.6-1.7,0.6
		c-1.5,2-3.9,5-5.8,7c-0.1,0-4.1-2-4.1-2c1.7-2.3,3.9-5.8,5.1-8.1L834.7,660.2z M843.2,658.8c-1.2,3.9-3,7.9-6.4,10.3l-4.3-2.8
		c3.1-2,5.1-5.5,6.1-9L843.2,658.8z M867.2,660c-0.2,0.5-0.8,0.7-1.6,0.7c-1.7,2.1-4.4,5.2-6.5,7.2l-4.1-2.1c1.9-2.3,4.4-6,5.7-8.4
		L867.2,660z"/>
	<path class="st0" d="M880.3,671.7v-5.5h25v5.5H880.3z M903.6,696.9v21.8h-14.5v3.1h-5.7v-25H903.6z M903.3,676.5v5.4h-19.8v-5.4
		H903.3z M883.5,692v-5.4h19.8v5.4H883.5z M903,656.2v5.4h-19.1v-5.4H903z M897.8,702.4h-8.7v10.7h8.7V702.4z M948.9,705.1v5.5h-4.6
		v4.7c0,6.3-3.1,6.5-13.3,6.5c-0.3-1.6-1-3.9-1.7-5.5c3.3,0.1,6.5,0.1,7.5,0.1c1-0.1,1.2-0.4,1.2-1.2v-4.7h-21.6v11.3h-5.9v-11.3
		h-4.8v-5.5h4.8v-18.6h13.5V683h-18.4v-5.4h10.3v-4.1h-6.8v-4.9h6.8v-3.9h-8.3v-5.1h8.3v-5.8l7.9,0.5c-0.1,0.6-0.5,0.9-1.6,1.1v4.2
		h10.3v-5.8l7.9,0.5c-0.1,0.6-0.5,0.9-1.6,1.1v4.2h8.7v5.1h-8.7v3.9h7.2v4.9h-7.2v4.1h9.9v5.4h-18.8v3.6h14.5v18.6H948.9z
		 M924.1,691.5h-7.6v4.6h7.6V691.5z M916.4,700.6v4.5h7.6v-4.5H916.4z M922.2,664.6v3.9h10.3v-3.9H922.2z M922.2,673.4v4.1h10.3
		v-4.1H922.2z M938,691.5h-8.1v4.6h8.1V691.5z M929.9,705.1h8.1v-4.5h-8.1V705.1z"/>
	<path class="st0" d="M972.6,668.1v13.9c0,11.5-0.9,28.8-7.1,40.2c-1.2-1.2-4.2-3.2-5.9-3.9c5.7-10.6,6.3-25.7,6.3-36.4v-20.2h27.3
		v-7.9l8.9,0.5c-0.1,0.7-0.5,1-1.7,1.2v6.2h27.5v6.4H972.6z M1003.5,704.8v9.2h24.5v6h-55.7v-6h24.5v-9.2h-19.4v-6h19.4v-28.2
		l8.3,0.5c-0.1,0.6-0.5,1-1.7,1.2v18.6c5.4-4,8.5-10.9,9.7-19.2l7.4,1.2c-0.1,0.6-0.6,0.9-1.5,1c-0.4,2.5-1.1,4.9-2,7.2
		c4.1,3.3,8.8,7.4,11.3,10.1l-4.2,4.7c-2.1-2.5-5.9-6-9.6-9.2c-2,3.5-4.5,6.5-7.6,8.7c-0.7-0.9-2.3-2.3-3.6-3.3v6.7h20.3v6H1003.5z
		 M992.5,694.5c-1.5-2-4.1-4.9-6.8-7.6c-2,3.8-4.5,6.9-7.6,9.2c-1.1-1.1-3.3-3-4.8-3.9c6-4,9.3-11.5,10.5-20.7l7.6,1.1
		c-0.1,0.6-0.6,0.9-1.5,0.9c-0.4,2.6-1,5.2-1.8,7.6c3.2,2.8,6.8,6.3,8.6,8.7L992.5,694.5z"/>
</g>
<rect x="501" y="618.8" class="st4" width="674.2" height="135.6"/>
</svg>
