<?xml version="1.0" encoding="utf-8"?>
<!-- Generator: Adobe Illustrator 27.3.1, SVG Export Plug-In . SVG Version: 6.00 Build 0)  -->
<svg version="1.1" id="圖層_1" xmlns="http://www.w3.org/2000/svg" xmlns:xlink="http://www.w3.org/1999/xlink" x="0px" y="0px"
	 viewBox="0 0 186.1 18.9" style="enable-background:new 0 0 186.1 18.9;" xml:space="preserve">
<style type="text/css">
	.st0{fill:#D7B155;}
	.st1{fill:#FFFFFF;}
	.st2{fill:#333333;}
</style>
<g>
	<g>
		<path id="SVGID_1_" class="st0" d="M181.3,7.9c-7.6-1.7-17.7-1.5-25.9-1.7c0.8,0.2-1.6,0-2-0.1c0.5-0.3-0.7-0.1-0.3-0.3
			c-0.2-0.1,0.2,0,0.3-0.1c0.3-0.1-0.1-0.1,0-0.3c0.2,0,0.4,0.1,0.5,0c-2.1-0.3-4.3-0.3-6.5-0.5c0.1-0.1,0.4,0.1,0.5-0.1l0,0
			c1.5-0.2,3.2-0.1,4.8,0c-0.2-0.2-2.6-0.1-1.5-0.3c-0.4,0-0.4-0.2-0.9-0.2c0.5,0.3-1.3,0.2-1.5,0c0.8,0,1.2-0.3,2.1-0.1V4.1
			c0.2,0,0.4,0,0.5,0.2c-0.3,0.1,0.9,0.1,1.1,0.1c-0.1-0.2-0.3,0-0.4-0.2c2,0-1.6-0.2-2-0.1c-0.7-0.2-1.9,0-2.6-0.4
			c0,0.1-0.2,0-0.2,0.1c0.1,0,0.5,0,0.4,0.1c-0.2,0-0.4-0.1-0.5,0c0.3,0,0.6,0.1,1,0.1c-0.4-0.1-1,0.1-1.4-0.1
			c0.6-0.3-2.2-0.1-2.3-0.3c0.1-0.1,0.3,0,0.5,0c-0.4-0.1-0.9,0-1.3-0.1c0.4,0.2,0,0.1-0.2,0.2c0.6,0.1,1.2,0,1.7,0.1
			c-0.8,0.1-1.7,0-2.5,0V3.7c-1,0.3-3.1-0.2-4.5-0.1c0.2,0,0.4,0,0.5,0.1c-1.3,0-2.7,0.1-3.9-0.1c0.1,0,0.2,0,0.3-0.1
			c-6.1,0.3-12.5,0.3-18.6,0.7c0.1,0,0.1,0,0.2,0c-0.5,0-2.4,0.2-1.2-0.1c-1.3-0.2-3,0.1-4.4-0.4c-0.3,0.1,0,0.1,0.2,0.1
			c0.3,0.2-0.3,0-0.4,0.2c0.2,0,0.5,0.1,0.8,0.1c-0.4-0.1-0.8,0.1-1.1-0.1c0.5-0.3-1.8-0.1-1.9-0.3c0.1-0.1,0.3,0,0.4,0
			c-0.4-0.1-0.7,0-1.1-0.1c0.3,0.2,0,0.1-0.1,0.2c0.5,0.1,1,0,1.4,0.1c-0.7,0.1-1.4,0-2.1,0V3.8c-0.9,0.3-2.6-0.2-3.7,0
			c0.2,0,0.3,0,0.4,0.1c-1,0-2.3,0.1-3.2,0c0.1,0,0.2-0.1,0.3-0.1c-9.3,1-25-0.5-31.7,4.2l0,0c-0.3,0.1-0.6,0.3-0.1,0.5
			c-0.4,0.1,0.1,0.2,0,0.2l0,0c0,0,0,0.1,0.1,0.1c0.4-0.1,0.4,0.2,0.6,0.4c-0.6,0.3-0.9,0.6-1.5,0.9c-0.7,0-0.2,0.5-0.6,0.6
			c-2.3,0.2,1.5,2,2.3,1.5c-0.6,0.3-0.9,0.6-0.9,1.3c-0.3,0-0.6,0.1-0.9,0.2c0.7,0.3-0.6,0.1,0.1,0.5c-0.1-0.2,0.1-0.2,0.2-0.3
			c0.3,0.4,1.1,0.2,1.5,0.5c0.2,0.5,0.9,0.6,1.5,0.8c-0.7-0.3,0-0.5,0.4-0.2c-0.1,0.2,0.1,0.1,0.2,0.2c-0.5-0.6,0.9,0.1,0.2,0.3
			c0.1,0.1,0.3,0.1,0.3-0.1c0.6,0.3,1.3,0.1,1.9,0.2c0,0.1,0.1,0.2-0.3,0.2c3.3,0.5,6,0.4,9.2,0.3l0,0c2.6-0.1,6.2,0.2,8.1-0.4
			c0.1-0.2,0.4,0.2,0.2,0.2c-0.3,0.1,0,0.1,0,0.1c0.4-0.1,2,0.2,2-0.1c0.2,0,0.4,0.3,0.3,0c0.1,0,0.4,0.1,0.2-0.1
			c0.6-0.3,1.2,0.2,1.8,0.2c0.2-0.1-0.1-0.1-0.2-0.1c0.4-0.3,1.2,0.3,1.6-0.1c-0.1,0-0.2,0-0.3,0c0.2-0.4,1.5,0.2,1.5-0.2
			c-0.3-0.4,2,0,2.3-0.2c0.2,0,1.1,0,0.9,0.3c-0.5,0,0.4,0.4,0.1,0.1c0.1,0,0.1,0,0.2,0c-0.5,0.3,0.6,0.2,0.7,0
			c0.5,0.1,1.3,0.2,1.7,0.1c-0.4-0.1-0.9,0-1.2-0.3c4,0.3,7.1,0.3,11,0.3l0,0c0.3,0.1,0.6,0.1,1,0l0,0c1.1,0,1.8-0.2,2.7,0
			c-0.8-0.4,0.7,0.1,0.9-0.1c0,0.2,0.5,0,0.1-0.1c0.7-0.1,1.5,0.2,2.3,0c0.2,0,0.9,0.2,0.8-0.1c0.2,0,2.2,0.1,1.8-0.1
			c0.1-0.2,0.5,0.2,0.2,0.2c-0.4,0.1,0.1,0.1,0,0.1c0.6,0,1.2,0.1,1.8,0c0.1,0.1,0.7,0.2,0.6-0.1c0.2,0,0.4,0.3,0.4,0
			c0.1,0,0.5,0.1,0.3-0.1c0.7-0.3,1.5,0.3,2.3,0.2c0-0.1-0.2,0-0.3-0.1c0.5-0.3,1.5,0.3,1.9,0c-0.1,0-0.3,0-0.4,0
			c1.5-0.1,4.3-0.7,5.7-0.1c-0.6,0,0.5,0.4,0.1,0.1c0.1,0,0.2,0,0.3,0c-0.6,0.3,0.7,0.2,0.8,0c0.6,0.1,1.5,0.2,2.1,0.1
			c-0.8-0.1-1.8-0.3-2.5-0.5c3.6,0.1,7.5,0.5,11.1,0.3c0,0.1-0.1,0.2,0.1,0.2c0.3-0.3,2,0.2,3,0.1l0,0c0.4,0.1,0.8,0.1,1.2,0l0,0
			c0.3-0.1,0.8,0.1,1,0c-2.7-0.5,1.7-0.2,2.3,0.1c-0.3,0-0.4-0.1-0.3-0.2c0.5-0.2,1.2,0.6,1.4,0c3.9-0.2,6.3-0.7,9.8-0.6l0,0
			c0.7-0.2,1.3,0.1,2,0c-0.5-0.1-1.1-0.1-1.6-0.3c0.8-0.5,2.2-0.3,3.2-0.3c-3.7-1.2-8.1-0.5-11.6-1.9c0.6-0.5-1-0.7-1.4-1
			c3.5-0.2,7.3,0.5,10.8,0.5c1.4,0,0.2-0.3,1-1c-0.2-0.4,1.1-0.3,0.7-0.7c-0.6-0.3,0.8-0.4,0.2-0.8c0.3-0.2-0.4-0.1-0.4-0.2
			c0.6-0.8,3.6-0.4,2.5-0.8c1.4-0.2,2.7,0.1,4.1,0.1c-0.6-0.2-1.2-0.1-1.7-0.4c0.4-0.1,0.9,0.1,1.4,0.1c0,0,0,0,0.1,0c0,0,0,0-0.1,0
			c0.6,0.1,1.2,0.2,1.8,0.3c-0.3-0.2-0.9-0.2-1.2-0.4c0.3,0,0.4-0.1,0.6-0.1c-0.1,0.1,0.7,0.2,0.5,0c0.5-0.3,1.8,0.2,2.1,0
			c0-0.1,1.4,0.1,0.8-0.2c0-0.3,1,0,1.3,0C181.8,7.9,181.4,8,181.3,7.9z"/>
	</g>
</g>
<g>
	<path class="st1" d="M8.9,2.6L8.3,5.4c0.4-0.1,0.8-0.2,1.2-0.3c0-0.5,0-1.1-0.1-1.7l0.3-0.2c0.6,0.3,1.1,0.7,1.4,1
		c0.3,0.4,0.5,0.8,0.4,1.2c-0.1,0.4-0.3,0.7-0.6,0.9c0.1,0.1,0.3,0.1,0.4,0.1c0.2-0.3,0.5-0.7,0.8-1.2c0.3-0.4,0.5-0.9,0.8-1.5
		c0.1-0.3,0.3-1,0.6-1.7c-0.5,0-0.8,0.1-1,0.1l-0.1-1c0.7,0.2,1.5,0.2,2.4,0.2h1c0.2-0.2,0.4-0.4,0.6-0.6c0.3-0.3,0.6-0.5,0.7-0.5
		c0.2,0,0.5,0.2,0.8,0.6c0.4,0.4,0.6,0.7,0.5,0.9c0,0.1-0.2,0.2-0.4,0.3c-0.2,0.2-0.4,0.3-0.4,0.5c-0.3,0.9-0.6,1.8-1,2.7
		c-0.3,0.7-0.6,1.2-0.8,1.4c-0.2,0.3-0.6,0.5-1.2,0.6c-0.5,0.1-0.9,0.2-1.1,0.2c-0.1,0-0.2-0.2-0.1-0.6c0-0.5-0.1-0.9-0.5-1.3
		c-0.1,0.1-0.2,0.2-0.3,0.3c-0.3,0.3-0.7,0.5-1,0.7c0.1,0,0.1,0.1,0.2,0.1c0.6,0.2,0.9,0.4,0.9,0.5c0,0.2-0.3,0.3-0.7,0.3
		c-0.1,0-0.2,0-0.2,0c0.8,0.2,1.5,0.4,2.1,0.6c0.7,0.3,1.2,0.6,1.5,0.9c0.3,0.3,0.3,0.5,0.3,0.8c-0.1,0.3-0.3,0.6-0.5,0.8
		c-0.3,0.3-0.6,0.4-0.8,0.4c-0.3,0-0.7-0.4-1.3-1.3C12.6,9.1,11.9,8.5,11,8c-0.9,0.7-1.8,1.3-2.8,1.8C8.1,9.9,7.9,10,7.8,10.1
		c0.6,0.1,1.4,0.1,2.4,0.1h0.2c0,0,0.3-0.2,0.6-0.6C11.6,9.2,11.9,9,11.9,9c0.2,0,0.4,0.2,0.7,0.7c0.3,0.4,0.4,0.7,0.4,0.8
		c-0.1,0.2-0.2,0.3-0.3,0.3h-1.5l-0.4,1.7h0.6c0,0,0.3-0.2,0.8-0.7c0.6-0.5,0.9-0.8,1-0.8c0.2,0,0.5,0.3,0.8,0.8s0.5,0.8,0.4,0.9
		C14.3,12.9,14.2,13,14,13h-3.3l-0.8,2.9c0.2,0,0.5,0,0.7-0.1c0.2-0.4,0.4-0.7,0.5-1.1c0.2-0.4,0.4-0.9,0.6-1.5
		c0.5,0.2,1,0.3,1.5,0.5s0.7,0.3,0.6,0.5c0,0.2-0.2,0.3-0.5,0.3s-0.5,0.1-0.5,0.2c-0.3,0.4-0.7,0.7-1,0.9c-0.1,0.1-0.2,0.1-0.3,0.2
		c1.1-0.1,2.1-0.2,3.1-0.3v0.2c-3.2,1.2-6.5,2-9.9,2.5c-0.4,0-0.5,0.1-0.6,0.2S4,18.6,4,18.7C3.9,18.9,3.8,19,3.7,19
		c-0.3,0-0.5-0.5-0.6-1.4C3,17.3,3,16.9,2.9,16.3c1.6,0,3.1-0.1,4.6-0.2l0.8-3H7.2c-1.2,0-2,0-2.5,0.1l-0.1-0.8
		c0.6,0.1,1.5,0.2,2.7,0.2h1.3L9,10.9c-0.6,0-1.1,0-1.4,0.1l-0.1-0.6c-1.1,0.5-2.4,1.1-3.8,1.6l-0.1-0.3c1-0.5,2.2-1.3,3.5-2.3
		C8,8.5,8.8,7.7,9.6,6.7c0,0-0.1-0.1-0.1-0.2c0,0-0.1-0.2,0-0.4c-1,0.8-2,1.3-3,1.7C6.4,7.8,6.3,7.9,6.3,8C6.1,8,6.1,8.1,6.1,8.2
		C6,8.4,5.9,8.4,5.8,8.4C5.5,8.4,5.4,8,5.2,7.1c0-0.2-0.1-0.6-0.2-1.2c0.4,0,0.8-0.1,1.2-0.1l0.2-1.3c0.3-1,0.5-2.1,0.6-3.1L8.7,2
		C9,1.8,9.3,1.6,9.5,1.4c0.4-0.3,0.7-0.7,1.2-1.2c0.4,0.4,0.8,0.8,1.1,1c0.4,0.4,0.6,0.6,0.5,0.8c0,0.2-0.1,0.2-0.3,0.2l-0.9-0.1
		C10.3,2.4,9.6,2.5,8.9,2.6z M7.2,13.9c0.3,0.2,0.4,0.4,0.4,0.6c-0.1,0.4-0.3,0.7-0.5,1c-0.3,0.3-0.7,0.4-0.9,0.4
		c-0.2,0-0.3,0-0.4-0.1s-0.1-0.3-0.1-0.7c0-0.5,0-1-0.2-1.5l0.3-0.2C6.4,13.6,6.9,13.8,7.2,13.9z M14.6,3.4
		c-0.3,0.5-0.6,0.9-0.9,1.3c-0.2,0.2-0.3,0.4-0.4,0.5c0.4,0.2,0.8,0.2,0.9,0.2c0.2,0,0.4,0,0.5-0.2c0.1,0,0.3-0.4,0.6-1.2
		c0.3-0.7,0.5-1.4,0.7-2h-0.7C15,2.6,14.8,3.1,14.6,3.4z M23.4,0.5c1,0.2,1.5,0.3,1.5,0.5c-0.1,0.2-0.3,0.4-0.7,0.6
		c-0.2,0-0.3,0.2-0.4,0.4L20,16.1c-0.3,1.1-0.8,1.9-1.5,2.2c-0.8,0.4-1.4,0.5-1.8,0.5c-0.2,0-0.3-0.2-0.3-0.6c0-0.7-0.6-1.3-1.9-1.8
		l0.2-0.4c0.8,0.1,1.5,0.2,2,0.2c0.4,0,0.7-0.1,0.9-0.2c0.1-0.1,0.3-0.3,0.3-0.5l3.3-12.2c0.3-1.2,0.5-2.2,0.6-3.1
		C22.5,0.4,23,0.4,23.4,0.5z M20,3.2c0.7,0.1,1.1,0.2,1,0.4c0,0.2-0.3,0.4-0.7,0.5c-0.3,0.1-0.5,0.2-0.5,0.5l-2.5,9.3
		c-0.1,0.2-0.4,0.4-1,0.5c-0.3,0-0.5,0.1-0.6,0.1c-0.4,0-0.6-0.1-0.5-0.4c0.1-0.3,0.2-0.6,0.3-0.8l2.3-8.7C17.9,3.9,18,3.4,18,2.9
		C18.5,3,19.2,3.1,20,3.2z"/>
	<path class="st1" d="M33.1,4.2c0.7,0.1,1,0.3,0.9,0.5s-0.3,0.4-0.8,0.5c-0.3,0.1-0.5,0.2-0.6,0.5l-1.8,6.7c1.3-1.1,2.7-2.5,4.2-4.2
		c1.9-2.3,3.6-4.6,4.9-7c0.7,0.4,1.1,0.7,1.4,0.9c0.7,0.5,1,0.8,1,1S42,3.4,41.7,3.4C41.3,3.5,41,3.5,41,3.7c-2.6,3.5-4.8,6-6.4,7.5
		c-1.5,1.3-2.9,2.4-4.3,3.3l-0.1,0.3c-0.1,0.5,0,0.9,0.5,1c0.4,0.1,1.1,0.2,2.1,0.2s1.7-0.1,2.1-0.2c0.3-0.2,0.7-0.5,1-1.2
		c0.4-0.7,0.9-1.7,1.6-3H38c-0.3,1.3-0.5,2.2-0.6,2.7c-0.1,0.6-0.1,1.1,0,1.4c0.3,0.4,0.4,0.7,0.3,1c-0.1,0.3-0.4,0.6-0.8,0.8
		c-0.4,0.2-1,0.3-1.8,0.4C34.2,18,33.3,18,32.3,18c-1.3,0-2.3,0-3-0.1s-1.1-0.2-1.3-0.4c-0.5-0.3-0.6-0.8-0.4-1.6
		c-1.5,0.8-3,1.4-4.6,2v-0.3c1.9-1,3.6-2.1,5.1-3.1l2-7.6c0.4-1.3,0.6-2.3,0.6-3C31.4,4,32.2,4.1,33.1,4.2z M28.9,5.7
		c-0.7,2.8-1.3,4.6-1.7,5.6c-0.5,1.1-1,1.9-1.5,2.3c-0.3,0.2-0.6,0.4-0.9,0.4c-0.4,0-0.8-0.1-1-0.4c-0.2-0.2-0.3-0.5-0.1-1
		c0.1-0.4,0.5-1,1.2-1.6s1.4-1.3,1.9-2.1c0.5-0.7,1.1-1.8,1.7-3.3L28.9,5.7z M36.1,1.2c0.6,0.3,1,0.6,1.2,0.9s0.3,0.5,0.2,0.8
		c-0.1,0.4-0.3,0.7-0.7,1c-0.3,0.3-0.7,0.5-1,0.5c-0.2,0-0.5-0.4-0.8-1.3c-0.4-0.8-1-1.5-1.8-2.2l0.4-0.5C34.6,0.7,35.4,1,36.1,1.2z
		 M42.3,9.7c0.3,0.7,0.4,1.4,0.3,2c-0.1,0.5-0.4,1-0.8,1.3c-0.4,0.4-0.7,0.6-1.1,0.6c-0.2,0-0.3-0.1-0.4-0.2c-0.1-0.2-0.1-0.8,0-1.8
		c0.1-1.2-0.1-2.5-0.5-4.2l0.4-0.2C41.2,8.1,41.9,9,42.3,9.7z"/>
	<path class="st1" d="M53.5,0.4c0.8,0.2,1.2,0.3,1.1,0.5c0,0.2-0.2,0.3-0.5,0.4c-0.3,0.1-0.5,0.3-0.5,0.4c-0.2,0.5-0.4,1-0.6,1.4
		c0.2-0.1,0.4-0.3,0.6-0.4c0.6-0.4,1.2-0.9,1.7-1.5c0.4,0.3,0.8,0.6,1.1,0.9s0.5,0.5,0.4,0.7C56.8,3,56.7,3,56.5,3l-0.9-0.1
		c-0.7,0.3-1.7,0.5-3,0.8c-0.2,0.3-0.3,0.5-0.4,0.7c0.6,0.2,1.1,0.3,1.5,0.5c0.5,0.3,0.8,0.5,1,0.9c0.2,0.2,0.2,0.5,0.1,0.8
		c-0.1,0.3-0.3,0.7-0.6,0.9c-0.3,0.3-0.6,0.4-0.9,0.4c-0.2,0-0.4-0.4-0.7-1.3C52.4,6,52,5.5,51.6,5c-0.5,0.5-1.2,1-1.9,1.4
		c-0.3,0.2-0.7,0.3-1.1,0.5c-0.1,0.4-0.2,0.9-0.3,1.2h12.2c0.3-0.2,0.5-0.4,0.7-0.6C61,7.4,60.7,7,60.5,6.4
		c-0.3-0.4-0.7-0.9-1.1-1.3c-0.5,0.6-1.2,1.2-1.9,1.6s-1.6,0.8-2.8,1.1l-0.1-0.3c0.7-0.4,1.4-0.8,1.9-1.3c0.5-0.4,1-1,1.4-1.7
		c0.4-0.6,0.7-1.4,0.9-2.2c0.3-0.9,0.4-1.7,0.6-2.4C60,0,60.5,0.1,61.1,0.2c0.8,0.2,1.2,0.3,1.1,0.5c0,0.2-0.2,0.3-0.5,0.4
		s-0.5,0.3-0.5,0.4C61,2,60.9,2.4,60.7,2.8c0.1-0.1,0.3-0.2,0.4-0.3c0.6-0.4,1.2-0.9,1.7-1.5c0.5,0.4,0.9,0.7,1.3,1s0.6,0.6,0.5,0.7
		c0,0.2-0.1,0.2-0.3,0.2l-1-0.1c-0.8,0.2-1.8,0.4-3,0.7C60.2,4,60.1,4.2,60,4.4c0.6,0.1,1.2,0.3,1.6,0.4c0.6,0.2,1,0.5,1.2,0.8
		C63,5.8,63.1,6,63,6.3c-0.1,0.4-0.3,0.7-0.6,0.9c0.2,0.2,0.4,0.4,0.7,0.7c0.5,0.5,0.7,0.9,0.6,1.1c0,0.2-0.2,0.3-0.6,0.3
		c-0.4,0-0.6,0-0.7,0.1c-0.6,0.3-1.3,0.6-2.1,0.9c0.2,0.1,0.5,0.4,0.7,0.8c0.4,0.6,0.5,0.9,0.5,1c-0.1,0.2-0.2,0.3-0.4,0.3H55
		c0.9,0.8,1.8,1.4,2.9,1.8c1.2,0.5,2.5,0.8,3.8,1l-0.2,0.5c-0.7,0.2-1.3,0.7-1.7,1.3c-0.3,0.5-0.6,0.8-0.8,0.8s-0.7-0.3-1.5-0.8
		s-1.5-1.2-2.1-2c-0.5-0.6-0.8-1.3-1.1-1.9L54,14.3c-0.3,1.3-0.7,2.6-0.9,3.8c-0.1,0.2-0.5,0.4-1.3,0.6c-0.3,0-0.6,0.1-0.7,0.1
		c-0.5,0-0.7-0.2-0.5-0.7c0.5-1.4,0.9-2.6,1.2-3.8l0.2-0.6c-0.7,0.6-1.3,1-1.9,1.3c-1,0.6-2.1,1.2-3.3,1.7s-2.5,0.9-3.9,1.2
		l-0.1-0.4c1.5-0.6,2.9-1.3,4.3-2.2c1.3-0.9,2.5-1.9,3.6-3h-2.6c-1.2,0-2,0-2.5,0.1l-0.1-0.8c0.6,0.1,1.5,0.2,2.7,0.2h4.2
		c0.2-0.8,0.3-1.6,0.4-2.3c0.6,0.1,1.5,0.2,2.4,0.3c0.7,0.1,1,0.2,0.9,0.4s-0.3,0.4-0.8,0.5c-0.3,0.1-0.5,0.2-0.6,0.5l-0.1,0.5h3.7
		c0,0,0.3-0.3,0.8-0.8c0.3-0.2,0.5-0.4,0.6-0.5c-0.3,0.1-0.6,0.2-0.9,0.3l-0.3-0.2c0.8-0.6,1.5-1.2,2.1-1.9H48.2
		c-0.2,0.4-0.3,0.8-0.4,1c-0.3,0.6-0.7,1-1.1,1.2C46.4,10.9,46.2,11,46,11c-0.4,0-0.8-0.1-1-0.4c-0.2-0.2-0.3-0.5-0.2-1
		c0-0.2,0.3-0.4,0.9-0.7c0.6-0.2,1.1-0.5,1.5-0.9c0.3-0.2,0.5-0.5,0.8-0.9c-0.4,0.1-0.8,0.2-1.2,0.3l-0.1-0.3
		c0.8-0.3,1.5-0.7,2.1-1.2c0.6-0.4,1.1-0.9,1.5-1.6c0.4-0.6,0.7-1.2,0.9-2c0.3-0.9,0.4-1.7,0.6-2.4C52.4,0.2,53,0.3,53.5,0.4z
		 M50.6,1.8c-0.3,1.2-0.6,2-0.8,2.4c-0.3,0.5-0.7,0.8-1.1,1c-0.3,0.1-0.5,0.2-0.8,0.2c-0.4,0-0.7-0.1-0.8-0.3
		c-0.2-0.2-0.2-0.4-0.1-0.8c0-0.2,0.3-0.3,0.9-0.6c0.5-0.2,1-0.4,1.4-0.7c0.3-0.2,0.7-0.6,1-1.2L50.6,1.8z M58.2,1.9
		c-0.3,1.1-0.6,1.8-0.7,2.3C57.3,4.6,57,5,56.6,5.1c-0.2,0.1-0.4,0.2-0.6,0.2c-0.4,0-0.6-0.1-0.8-0.3C55,4.8,55,4.5,55.1,4.2
		c0-0.1,0.3-0.3,0.7-0.5C56.3,3.5,56.6,3.3,57,3c0.3-0.2,0.6-0.6,0.9-1.1L58.2,1.9z"/>
</g>
<g>
	<path class="st2" d="M85.1,10.8h-1.5v0.5h1v0.8h-2.8v0.4H85v0.8h-3.2v1h-1v-1h-3.1v-0.8h3.1v-0.4h-2.7v-0.8H79v-0.5h-1.4V9.9H79
		V9.5h-0.8V8.7h6.2v0.8h-0.9V10H85v0.8H85.1z M79.5,8.5V8.2h-1.7V7.3h1.7V6.7l1.2,0.1c0,0.1-0.1,0.1-0.2,0.2v0.4h1.9V6.7l1.2,0.1
		c0,0.1-0.1,0.1-0.2,0.2v0.4h1.8v0.9h-1.8v0.3h-0.9V8.2h-1.9v0.3H79.5z M80.1,9.5V10H81V9.5H80.1z M80.1,11.3H81v-0.5h-0.9V11.3z
		 M82.8,9.9V9.5h-0.9V10h0.9V9.9z M82.8,11.3v-0.5h-0.9v0.5H82.8z"/>
	<path class="st2" d="M90.2,7c0,0.1-0.1,0.1-0.2,0.2c0,0.1,0,0.3,0,0.4c0.1,1.3,0.6,4.5,3.5,5.9c-0.3,0.2-0.6,0.6-0.7,0.8
		c-1.9-0.9-2.8-2.6-3.3-4.1c-0.4,1.4-1.3,3-3,4.1c-0.2-0.3-0.5-0.5-0.8-0.8c3.3-1.8,3.2-5.5,3.2-6.6L90.2,7z"/>
	<path class="st2" d="M94.2,7h7v7.3h-1V14h-5.1v0.3h-0.9V7z M95.1,13.2h5.1V7.9h-5.1V13.2z M99.9,10.4h-0.8c0.3,0.3,0.6,0.5,0.9,0.6
		c-0.2,0.1-0.4,0.4-0.5,0.6c-0.3-0.2-0.6-0.4-0.9-0.7c0,1.1-0.1,1.1-1.2,1.1c0-0.2-0.1-0.4-0.1-0.5c0.2,0,0.4,0,0.5,0
		c0.2,0,0.2,0,0.2-0.3h-1V12c0,0.2,0.1,0.3,0.4,0.3h1.2c0.3,0,0.3-0.1,0.3-0.5c0.2,0.1,0.4,0.2,0.6,0.2c-0.1,0.7-0.3,0.9-0.9,0.9
		h-1.3c-0.8,0-1.1-0.2-1.1-0.8v-0.8c-0.2,0.2-0.4,0.3-0.6,0.4c-0.1-0.2-0.3-0.4-0.4-0.6c0.4-0.2,0.7-0.5,1-0.8h-0.8V9.8h1.2
		c0.1-0.1,0.1-0.3,0.2-0.4h-0.6V9.2c-0.1,0.1-0.2,0.2-0.3,0.3c-0.1-0.1-0.4-0.3-0.5-0.4C95.7,8.8,96,8.4,96.2,8L97,8.3
		c0,0.1-0.1,0.1-0.2,0.1c-0.1,0.2-0.2,0.3-0.3,0.5H97c0-0.3,0.1-0.6,0.1-0.9L98,8.2c0,0.1-0.1,0.1-0.2,0.1c0,0.2-0.1,0.4-0.1,0.6
		h1.2c-0.2-0.2-0.3-0.4-0.5-0.5L99,8c0.4,0.3,0.8,0.8,1,1.1l-0.6,0.4c-0.1-0.1-0.2-0.3-0.3-0.4v0.3h-0.6c0.1,0.1,0.1,0.3,0.2,0.4
		h1.2C99.9,9.8,99.9,10.4,99.9,10.4z M98.4,10.8h0.2c-0.1-0.1-0.2-0.2-0.3-0.4h-1.2c-0.1,0.1-0.2,0.3-0.3,0.4h1.4H98.4z M98,9.8
		c-0.1-0.1-0.1-0.3-0.1-0.4h-0.3c0,0.1-0.1,0.3-0.2,0.4H98z"/>
	<path class="st2" d="M105.4,7.3c0,0.1-0.1,0.1-0.2,0.1c-0.5,1.2-1.3,2.4-2.2,3.1c-0.2-0.2-0.6-0.5-0.9-0.7c0.8-0.7,1.6-1.8,2-2.9
		L105.4,7.3z M106.3,10c0,0.1-0.1,0.1-0.3,0.1c-0.3,0.9-0.9,1.9-1.3,2.8c0.9,0,1.9-0.1,2.9-0.1c-0.3-0.5-0.6-1-1-1.4l1-0.4
		c0.7,0.9,1.5,2,1.9,2.8l-1,0.5c-0.1-0.2-0.2-0.4-0.3-0.6c-1.9,0.1-3.8,0.2-5.1,0.3c0,0.1-0.1,0.1-0.2,0.1l-0.4-1.1h1.2
		c0.5-1,1.1-2.3,1.4-3.3L106.3,10z M107.4,6.9c0.5,1,1.4,2.1,2.2,2.8c-0.3,0.2-0.6,0.6-0.8,0.9c-0.8-0.8-1.7-2.1-2.3-3.2L107.4,6.9z
		"/>
	<path class="st2" d="M113,8v0.8h-3V8H113z M112.8,11.4v2c0.3-0.4,0.5-1,0.5-1.7l0.8,0.2c-0.1,0.7-0.2,1.5-0.6,2l-0.7-0.4v0.4h-1.6
		v0.3h-0.8v-2.8H112.8z M112.8,9.2v0.7h-2.4V9.2H112.8z M110.4,11v-0.7h2.4V11H110.4z M112.8,6.9v0.7h-2.3V6.9H112.8z M112,13.1
		v-0.9h-0.8v0.9H112z M117.5,7.3c-0.1,3.3-0.2,3.3-1.9,3.2c0-0.3-0.1-0.6-0.2-0.8h0.1c-0.1-0.1-0.3-0.2-0.5-0.3
		c-0.3,0.5-0.7,1-1.4,1.4c-0.1-0.2-0.4-0.5-0.6-0.7c0.6-0.3,0.9-0.7,1.2-1.1c-0.3-0.1-0.6-0.3-0.9-0.3l0.5-0.7
		c0.2,0.1,0.5,0.2,0.8,0.3c0-0.2,0.1-0.3,0.1-0.5h-1.2V7h3.4h0.2l0.5,0.1L117.5,7.3z M115.2,13.1c0,0.2,0,0.2,0.1,0.2h0.3
		c0.1,0,0.2-0.1,0.2-0.8c0.2,0.1,0.6,0.3,0.8,0.3c-0.1,1-0.3,1.3-0.9,1.3h-0.6c-0.7,0-0.9-0.3-0.9-1.1v-1.7l1.1,0.1
		c0,0.1-0.1,0.1-0.2,0.1L115.2,13.1L115.2,13.1z M115.8,11.9c-0.3-0.3-0.9-0.8-1.4-1.2l0.6-0.5c0.5,0.3,1.1,0.7,1.4,1.1L115.8,11.9z
		 M115.7,9.7c0.2,0,0.3,0,0.4,0s0.1,0,0.2-0.1s0.2-0.6,0.2-1.8h-1c-0.1,0.3-0.1,0.5-0.2,0.8c0.3,0.1,0.6,0.3,0.8,0.4L115.7,9.7z
		 M117,14c-0.1-0.6-0.4-1.4-0.8-2l0.8-0.3c0.4,0.6,0.8,1.4,0.9,2L117,14z"/>
	<path class="st2" d="M121.3,8v0.8h-3.1V8H121.3z M121,11.4v2.5h-1.7v0.3h-0.8v-2.8H121z M121,9.2v0.7h-2.5V9.2H121z M118.6,11v-0.7
		h2.5V11H118.6z M121,6.9v0.7h-2.4V6.9H121z M120.2,12.2h-0.8v0.9h0.8V12.2z M125.9,11c0,0.1-0.1,0.1-0.2,0.1
		c-0.2,0.4-0.5,0.9-0.8,1.2l-0.7-0.3c0.2,0.5,0.7,1.1,1.7,1.4c-0.2,0.2-0.4,0.6-0.6,0.8c-1-0.4-1.6-1.3-1.8-1.8
		c-0.2,0.5-0.8,1.4-1.9,1.8c-0.1-0.2-0.4-0.6-0.5-0.8c1.6-0.6,2-1.6,2-2.2V9.9h0.5h0.7c0,0.1-0.1,0.1-0.2,0.2v1c0,0.2,0,0.4,0.1,0.7
		c0.2-0.4,0.5-1,0.7-1.4L125.9,11z M122.7,10.9c-0.1,0.6-0.4,1.3-0.8,1.7l-0.8-0.4c0.4-0.3,0.6-0.9,0.7-1.4L122.7,10.9z M124.3,6.8
		c0,0.1-0.1,0.1-0.2,0.2c0,0.6-0.1,1.1-0.2,1.6c0.7,0.4,1.5,0.9,2,1.3l-0.6,0.7c-0.3-0.3-1-0.8-1.6-1.2c-0.3,0.5-0.9,0.9-1.7,1.3
		c-0.1-0.2-0.3-0.6-0.5-0.8c1.7-0.5,1.8-1.5,1.9-3.1L124.3,6.8z M121.3,8.5c0.3-0.3,0.5-0.8,0.6-1.4l0.8,0.2
		c-0.1,0.5-0.3,1.2-0.6,1.5L121.3,8.5z M125.8,7.5c0,0.1-0.1,0.1-0.2,0.1c-0.2,0.4-0.5,0.9-0.7,1.2l-0.7-0.3
		c0.2-0.4,0.5-0.9,0.6-1.3L125.8,7.5z"/>
	<path class="st2" d="M128.9,10.1V11h1.6v0.9h-1.6v2.4h-1v-2.4h-1.6V11h1.6v-0.9h-1.5V9.2h1.5V6.7l1.2,0.1c0,0.1-0.1,0.1-0.2,0.1
		v2.3h1.5v0.9C130.4,10.1,128.9,10.1,128.9,10.1z M127.2,7.1c0.3,0.5,0.5,1.2,0.6,1.6L127,9c-0.1-0.5-0.3-1.2-0.5-1.7L127.2,7.1z
		 M130.7,7.4c0,0.1-0.1,0.1-0.2,0.1C130.3,8,130,8.6,129.8,9L129,8.8c0.2-0.5,0.5-1.2,0.6-1.7L130.7,7.4z M131.9,7.7
		c0,0.1-0.1,0.1-0.2,0.2v4.4h-1V7.7H131.9z M132.6,6.9l1.2,0.1c0,0.1-0.1,0.1-0.2,0.2v6.1c0,1-0.3,1.2-2.1,1.2c0-0.3-0.2-0.7-0.3-1
		c0.5,0,1.1,0,1.2,0c0.2,0,0.2,0,0.2-0.2L132.6,6.9L132.6,6.9z"/>
	<path class="st2" d="M141.9,9.9H139c0.5,1.7,1.4,3,3.1,3.5c-0.2,0.2-0.6,0.7-0.7,0.9c-1.6-0.6-2.5-1.7-3.1-3.3
		c-0.4,1.3-1.3,2.5-3.1,3.3c-0.1-0.3-0.4-0.6-0.7-0.9c2-0.8,2.7-2.1,3-3.6h-2.9v-1h3c0.1-0.7,0-1.5,0.1-2.2l1.3,0.1
		c0,0.1-0.1,0.1-0.2,0.2c0,0.6,0,1.3-0.1,1.9h3.2L141.9,9.9L141.9,9.9z"/>
	<path class="st2" d="M143.7,10.4v0.5h1.8v2.6h-1.8V14h-0.9V7.9h0.6c0.1-0.4,0.2-0.9,0.3-1.2l1.2,0.2c0,0.1-0.1,0.1-0.2,0.1
		c-0.1,0.3-0.2,0.6-0.4,0.9h1.1v2.5H143.7z M144.6,9.6V8.7h-0.9v0.8h0.9V9.6z M144.7,11.7h-1v1h1V11.7z M150.2,7.9h-1.8v1h1.5v3.3
		c0,0.8-0.3,0.9-1.2,0.9c0-0.2-0.1-0.6-0.3-0.8c0.6,0,0.6,0,0.6-0.1V9.8h-0.6v4.6h-0.9V9.8h-0.6v3.4H146V8.9h1.5v-1h-1.8V7.1h4.5
		V7.9z"/>
</g>
</svg>
